<svg width="291" height="290" viewBox="0 0 291 290" fill="none" xmlns="http://www.w3.org/2000/svg">
<g filter="url(#filter0_d_367_10889)">
<ellipse cx="143.29" cy="142.515" rx="124.928" ry="124.515" fill="#FFD27A"/>
</g>
<path d="M67.894 97.8457C67.894 92.3229 72.3712 87.8457 77.894 87.8457H208.967C214.49 87.8457 218.967 92.3229 218.967 97.8457V187.731C218.967 193.254 214.49 197.731 208.967 197.731H77.894C72.3712 197.731 67.894 193.254 67.894 187.731V97.8457Z" fill="white" fill-opacity="0.7"/>
<path d="M82.3391 111.091C82.3391 108.256 84.6368 105.958 87.4711 105.958H120.543C123.377 105.958 125.675 108.256 125.675 111.091C125.675 113.925 123.377 116.223 120.543 116.223H87.4711C84.6368 116.223 82.3391 113.925 82.3391 111.091Z" fill="white"/>
<path d="M114.841 131.015C114.841 128.181 117.139 125.883 119.973 125.883H153.045C155.879 125.883 158.177 128.181 158.177 131.015C158.177 133.849 155.879 136.147 153.045 136.147H119.973C117.139 136.147 114.841 133.849 114.841 131.015Z" fill="white"/>
<path d="M82.3391 150.939C82.3391 148.105 84.6368 145.807 87.4711 145.807H120.543C123.377 145.807 125.675 148.105 125.675 150.939C125.675 153.774 123.377 156.071 120.543 156.071H87.4711C84.6368 156.071 82.3391 153.774 82.3391 150.939Z" fill="#4695DE"/>
<path d="M130.49 150.939C130.49 148.105 132.788 145.807 135.622 145.807H196.38C199.215 145.807 201.512 148.105 201.512 150.939C201.512 153.774 199.215 156.071 196.38 156.071H135.622C132.788 156.071 130.49 153.774 130.49 150.939Z" fill="white"/>
<path d="M82.3391 170.863C82.3391 168.029 84.6368 165.731 87.4711 165.731H148.23C151.064 165.731 153.362 168.029 153.362 170.863C153.362 173.698 151.064 175.995 148.23 175.995H87.4711C84.6368 175.995 82.3391 173.698 82.3391 170.863Z" fill="white"/>
<path d="M130.49 111.091C130.49 108.256 132.788 105.958 135.622 105.958H168.694C171.528 105.958 173.826 108.256 173.826 111.091C173.826 113.925 171.528 116.223 168.694 116.223H135.622C132.788 116.223 130.49 113.925 130.49 111.091Z" fill="#F97676"/>
<path d="M162.992 131.015C162.992 128.181 165.29 125.883 168.124 125.883H185.547C188.381 125.883 190.679 128.181 190.679 131.015C190.679 133.849 188.381 136.147 185.547 136.147H168.124C165.29 136.147 162.992 133.849 162.992 131.015Z" fill="#F9BE28"/>
<path d="M178.641 111.091C178.641 108.256 180.939 105.958 183.773 105.958H201.196C204.03 105.958 206.328 108.256 206.328 111.091C206.328 113.925 204.03 116.223 201.196 116.223H183.773C180.939 116.223 178.641 113.925 178.641 111.091Z" fill="white"/>
<path d="M173.826 170.863C173.826 168.029 176.124 165.731 178.958 165.731H196.381C199.215 165.731 201.513 168.029 201.513 170.863C201.513 173.698 199.215 175.995 196.381 175.995H178.958C176.124 175.995 173.826 173.698 173.826 170.863Z" fill="#F97676"/>
<path d="M195.494 131.015C195.494 128.181 197.792 125.883 200.626 125.883H201.196C204.03 125.883 206.328 128.181 206.328 131.015C206.328 133.849 204.03 136.147 201.196 136.147H200.626C197.792 136.147 195.494 133.849 195.494 131.015Z" fill="white"/>
<path d="M158.177 170.863C158.177 168.029 160.474 165.731 163.309 165.731H163.879C166.713 165.731 169.011 168.029 169.011 170.863C169.011 173.698 166.713 175.995 163.879 175.995H163.309C160.474 175.995 158.177 173.698 158.177 170.863Z" fill="white"/>
<path d="M82.3391 131.015C82.3391 128.181 84.6368 125.883 87.4711 125.883H104.894C107.728 125.883 110.026 128.181 110.026 131.015C110.026 133.849 107.728 136.147 104.894 136.147H87.4711C84.6368 136.147 82.3391 133.849 82.3391 131.015Z" fill="white"/>
<defs>
<filter id="filter0_d_367_10889" x="0.362305" y="0" width="289.856" height="289.03" filterUnits="userSpaceOnUse" color-interpolation-filters="sRGB">
<feFlood flood-opacity="0" result="BackgroundImageFix"/>
<feColorMatrix in="SourceAlpha" type="matrix" values="0 0 0 0 0 0 0 0 0 0 0 0 0 0 0 0 0 0 127 0" result="hardAlpha"/>
<feOffset dx="2" dy="2"/>
<feGaussianBlur stdDeviation="10"/>
<feComposite in2="hardAlpha" operator="out"/>
<feColorMatrix type="matrix" values="0 0 0 0 0 0 0 0 0 0 0 0 0 0 0 0 0 0 0.25 0"/>
<feBlend mode="normal" in2="BackgroundImageFix" result="effect1_dropShadow_367_10889"/>
<feBlend mode="normal" in="SourceGraphic" in2="effect1_dropShadow_367_10889" result="shape"/>
</filter>
</defs>
</svg>
