<?xml version="1.0" standalone="no"?>
<!DOCTYPE svg PUBLIC "-//W3C//DTD SVG 1.1//EN" "http://www.w3.org/Graphics/SVG/1.1/DTD/svg11.dtd" >
<svg xmlns="http://www.w3.org/2000/svg">
<metadata>Generated by IcoMoon</metadata>
<defs>
<font id="devoca" horiz-adv-x="1024">
<font-face units-per-em="1024" ascent="960" descent="-64" />
<missing-glyph horiz-adv-x="1024" />
<glyph unicode="&#x20;" horiz-adv-x="512" d="" />
<glyph unicode="&#xe900;" d="M136.54 0.913h737.28c67.863 0 122.88 54.915 122.88 122.655v502.876c0 67.739-55.017 122.653-122.88 122.653h-122.88l-86.016 147.183h-319.488l-86.016-147.183h-122.88c-67.865 0-122.88-54.913-122.88-122.653v-502.876c0-67.74 55.015-122.655 122.88-122.655z" />
<glyph unicode="&#xe901;" d="M689.5 405.668c0-101.609-82.522-183.98-184.32-183.98s-184.32 82.371-184.32 183.98c0 101.609 82.523 183.98 184.32 183.98s184.32-82.371 184.32-183.98z" />
<glyph unicode="&#xe902;" glyph-name="camera-cc" d="M896.004-15.347h-768.003c-70.693 0-128.001 57.203-128.001 127.765v523.834c0 70.562 57.308 127.764 128.001 127.764h128.001l89.6 153.317h332.802l89.6-153.317h128c70.694 0 128-57.202 128-127.764v-523.834c0-70.562-57.306-127.765-128-127.765zM518.404 187.729c116.642 0 211.2 94.558 211.2 211.2 0 116.644-94.558 211.203-211.2 211.203-116.644 0-211.203-94.558-211.203-211.203 0-116.642 94.558-211.2 211.203-211.2z" />
<glyph unicode="&#xe903;" glyph-name="check" d="M971.959 872.823c22.543-20.238 24.415-54.921 4.176-77.467l-655.322-730.076c-10.405-11.593-25.247-18.213-40.824-18.213s-30.419 6.619-40.823 18.213l-223.382 248.863c-20.238 22.546-18.366 57.229 4.18 77.467s57.229 18.366 77.467-4.18l182.558-203.383 614.504 684.597c20.239 22.546 54.916 24.418 77.466 4.18z" />
<glyph unicode="&#xe904;" glyph-name="check-active" d="M940.36 844.501c21.047-18.889 22.787-51.26 3.905-72.302l-611.639-681.404c-9.712-10.82-23.564-16.998-38.102-16.998s-28.391 6.178-38.102 16.998l-208.49 232.272c-18.888 21.043-17.142 53.414 3.901 72.303s53.414 17.142 72.302-3.901l170.388-189.824 573.535 638.957c18.889 21.043 51.261 22.79 72.301 3.901z" />
<glyph unicode="&#xe905;" glyph-name="check-cc" d="M992.746 872.823c22.543-20.238 24.415-54.921 4.176-77.467l-655.323-730.076c-10.405-11.593-25.247-18.213-40.824-18.213s-30.419 6.619-40.823 18.213l-223.382 248.863c-20.238 22.546-18.366 57.229 4.18 77.467s57.229 18.366 77.467-4.18l182.558-203.383 614.498 684.597c20.239 22.546 54.923 24.418 77.473 4.18z" />
<glyph unicode="&#xe906;" glyph-name="chevron" d="M787.719 448c0-13.589-5.402-26.621-15.017-36.224l-461.321-460.8c-20.006-19.981-52.424-19.968-72.408 0.038s-19.965 52.429 0.041 72.41l425.055 424.576-425.055 424.576c-20.006 19.983-20.024 52.401-0.041 72.407s52.402 20.024 72.407 0.041l461.321-460.8c9.615-9.604 15.017-22.636 15.017-36.225z" />
<glyph unicode="&#xe907;" glyph-name="chevron-cc" d="M787.719 448c0-13.589-5.402-26.621-15.017-36.224l-461.321-460.8c-20.006-19.981-52.424-19.968-72.408 0.038s-19.965 52.429 0.041 72.41l425.055 424.576-425.055 424.576c-20.006 19.983-20.024 52.401-0.041 72.407s52.402 20.024 72.407 0.041l461.321-460.8c9.615-9.604 15.017-22.636 15.017-36.225z" />
<glyph unicode="&#xe908;" glyph-name="close" d="M22.494 937.506c29.992 29.992 78.619 29.992 108.612 0l355.294-355.294 355.294 355.294c29.992 29.992 78.62 29.992 108.612 0s29.992-78.619 0-108.611l-355.294-355.294 355.294-355.294c29.992-29.992 29.992-78.62 0-108.612s-78.62-29.992-108.612 0l-355.294 355.294-355.294-355.294c-29.992-29.992-78.619-29.992-108.612 0s-29.992 78.62 0 108.612l355.294 355.294-355.294 355.294c-29.992 29.992-29.992 78.619 0 108.612z" />
<glyph unicode="&#xe909;" glyph-name="close-cc" d="M22.494 937.506c29.992 29.992 78.619 29.992 108.612 0l355.294-355.294 355.294 355.294c29.992 29.992 78.62 29.992 108.612 0s29.992-78.619 0-108.611l-355.294-355.294 355.294-355.294c29.992-29.992 29.992-78.62 0-108.612s-78.62-29.992-108.612 0l-355.294 355.294-355.294-355.294c-29.992-29.992-78.619-29.992-108.612 0s-29.992 78.62 0 108.612l355.294 355.294-355.294 355.294c-29.992 29.992-29.992 78.619 0 108.612z" />
<glyph unicode="&#xe90a;" glyph-name="code" d="M587.154 748.535c16.283-3.398 26.728-19.353 23.331-35.636l-112.944-541.115c-3.398-16.283-19.353-26.725-35.636-23.329-16.283 3.398-26.727 19.354-23.329 35.636l112.941 541.116c3.398 16.283 19.353 26.727 35.636 23.329zM785.679 626.522c11.812 11.711 30.883 11.628 42.592-0.184l169.412-170.878c11.637-11.74 11.637-30.668 0-42.409l-169.412-170.878c-11.71-11.813-30.78-11.895-42.592-0.184s-11.896 30.78-0.187 42.592l148.39 149.674-148.39 149.674c-11.71 11.812-11.625 30.881 0.187 42.592zM263.381 626.522c11.813-11.711 11.895-30.78 0.184-42.592l-148.389-149.674 148.389-149.674c11.711-11.812 11.629-30.881-0.184-42.592s-30.881-11.629-42.592 0.184l-169.412 170.878c-11.64 11.74-11.64 30.668 0 42.409l169.412 170.878c11.711 11.812 30.78 11.895 42.592 0.184z" />
<glyph unicode="&#xe90b;" glyph-name="code-cc" d="M599.154 748.535c16.282-3.398 26.727-19.353 23.33-35.636l-112.942-541.115c-3.398-16.283-19.353-26.725-35.636-23.329-16.283 3.398-26.728 19.354-23.329 35.636l112.941 541.116c3.398 16.283 19.354 26.727 35.636 23.329zM797.678 626.522c11.812 11.711 30.883 11.628 42.592-0.184l169.412-170.878c11.637-11.74 11.637-30.668 0-42.409l-169.412-170.878c-11.71-11.813-30.78-11.895-42.592-0.184s-11.896 30.78-0.181 42.592l148.384 149.674-148.384 149.674c-11.716 11.812-11.631 30.881 0.181 42.592zM275.381 626.522c11.812-11.711 11.895-30.78 0.184-42.592l-148.39-149.674 148.39-149.674c11.711-11.812 11.628-30.881-0.184-42.592s-30.881-11.629-42.592 0.184l-169.412 170.878c-11.639 11.74-11.639 30.668 0 42.409l169.412 170.878c11.711 11.812 30.78 11.895 42.592 0.184z" />
<glyph unicode="&#xe90c;" glyph-name="hive-active" d="M400.45 284.857l-97.603-162.224h-195.208l-97.604 162.224 97.604 162.226h195.208l97.603-162.226zM400.45 624.594l-97.603-162.224h-195.208l-97.604 162.224 97.604 162.224h195.208l97.603-162.224zM1013.961 284.857l-97.603-162.224h-195.209l-97.603 162.224 97.603 162.226h195.209l97.603-162.226zM1013.961 624.594l-97.603-162.224h-195.209l-97.603 162.224 97.603 162.224h195.209l97.603-162.224zM707.217 114.989l-97.605-162.226h-195.207l-97.605 162.226 97.605 162.224h195.207l97.605-162.224zM707.217 794.462l-97.605-162.224h-195.207l-97.605 162.224 97.605 162.225h195.207l97.605-162.225zM707.217 454.726l-97.605-162.226h-195.207l-97.605 162.226 97.605 162.224h195.207l97.605-162.224z" />
<glyph unicode="&#xe90d;" glyph-name="hive-cc" d="M398.219 274.735l-99.555-165.47h-199.112l-99.556 165.47 99.556 165.468h199.112l99.555-165.468zM398.219 621.265l-99.555-165.468h-199.112l-99.556 165.468 99.556 165.469h199.112l99.555-165.469zM1024 274.735l-99.555-165.47h-199.113l-99.555 165.47 99.555 165.468h199.113l99.555-165.468zM1024 621.265l-99.555-165.468h-199.113l-99.555 165.468 99.555 165.469h199.113l99.555-165.469zM711.121 101.468l-99.557-165.468h-199.111l-99.557 165.468 99.557 165.47h199.111l99.557-165.47zM711.121 794.531l-99.557-165.469h-199.111l-99.557 165.469 99.557 165.469h199.111l99.557-165.469zM711.121 448l-99.557-165.468h-199.111l-99.557 165.468 99.557 165.468h199.111l99.557-165.468z" />
<glyph unicode="&#xe90e;" glyph-name="hive-default" d="M400.45 284.857l-97.603-162.224h-195.208l-97.604 162.224 97.604 162.226h195.208l97.603-162.226zM400.45 624.594l-97.603-162.224h-195.208l-97.604 162.224 97.604 162.224h195.208l97.603-162.224zM1013.961 284.857l-97.603-162.224h-195.209l-97.603 162.224 97.603 162.226h195.209l97.603-162.226zM1013.961 624.594l-97.603-162.224h-195.209l-97.603 162.224 97.603 162.224h195.209l97.603-162.224zM707.217 114.989l-97.605-162.226h-195.207l-97.605 162.226 97.605 162.224h195.207l97.605-162.224zM707.217 794.462l-97.605-162.224h-195.207l-97.605 162.224 97.605 162.225h195.207l97.605-162.225zM707.217 454.726l-97.605-162.226h-195.207l-97.605 162.226 97.605 162.224h195.207l97.605-162.224z" />
<glyph unicode="&#xe90f;" glyph-name="kakao" d="M512 900.23c-253.844 0-485.053-204.045-485.053-376.67 0-129.347 83.968-243.442 211.86-311.242l-53.787-197.578c-4.797-17.516 15.091-31.421 30.343-21.342l235.897 156.564c19.887-1.94 40.152-3.072 60.739-3.072 267.857 0 485.053 168.637 485.053 376.67 0 172.625-217.196 376.67-485.053 376.67z" />
<glyph unicode="&#xe910;" glyph-name="kakao-cc" d="M512 900.23c-253.844 0-485.053-204.045-485.053-376.67 0-129.347 83.968-243.442 211.86-311.242l-53.787-197.578c-4.797-17.516 15.091-31.421 30.343-21.342l235.897 156.564c19.887-1.94 40.152-3.072 60.739-3.072 267.857 0 485.053 168.637 485.053 376.67 0 172.625-217.196 376.67-485.053 376.67z" />
<glyph unicode="&#xe911;" glyph-name="lock" d="M410.121 847.208c-22.901-23.897-36.026-56.628-36.026-91.065v-128h471.621c41.004 0 71.617-34.23 71.617-73.143v-512.002c0-38.912-30.613-73.143-71.617-73.143h-700.955c-41.005 0-71.619 34.231-71.619 73.143v512.002c0 38.913 30.614 73.143 71.619 73.143h156.191v128c0 52.856 20.107 103.844 56.36 141.673 36.304 37.882 85.883 59.469 137.925 59.469s101.622-21.587 137.925-59.469c36.254-37.829 56.359-88.817 56.359-141.673 0-20.198-16.374-36.571-36.571-36.571s-36.571 16.373-36.571 36.571c0 34.438-13.122 67.169-36.025 91.065-22.85 23.844-53.502 36.935-85.116 36.935s-62.267-13.091-85.117-36.935zM337.524 555h-191.238v-512.002h697.905v512.002h-506.666zM444.191 353.855c0 31.783 24.306 54.857 51.047 54.857s51.047-23.074 51.047-54.857c0-31.778-24.306-54.857-51.047-54.857s-51.047 23.079-51.047 54.857zM531.81 231.453c51.451 16.238 87.618 65.843 87.618 122.402 0 69.213-54.15 128.002-124.189 128.002s-124.19-58.789-124.19-128.002c0-56.559 36.168-106.164 87.619-122.402v-78.741c0-20.197 16.374-36.571 36.571-36.571s36.571 16.374 36.571 36.571v78.741z" />
<glyph unicode="&#xe912;" glyph-name="lock-active" d="M440.597 847.208c-22.901-23.897-36.026-56.628-36.026-91.065v-128h471.621c41.004 0 71.617-34.23 71.617-73.143v-512.002c0-38.912-30.613-73.143-71.617-73.143h-700.955c-41.005 0-71.619 34.231-71.619 73.143v512.002c0 38.913 30.614 73.143 71.619 73.143h156.191v128c0 52.856 20.107 103.844 56.36 141.673 36.304 37.882 85.883 59.469 137.925 59.469s101.622-21.587 137.925-59.469c36.254-37.829 56.359-88.817 56.359-141.673 0-20.198-16.374-36.571-36.571-36.571s-36.571 16.373-36.571 36.571c0 34.438-13.122 67.169-36.025 91.065-22.85 23.844-53.502 36.935-85.116 36.935s-62.267-13.091-85.117-36.935zM368 555h-191.238v-512.002h697.905v512.002h-506.666zM474.667 353.855c0 31.783 24.306 54.857 51.047 54.857s51.046-23.074 51.046-54.857c0-31.778-24.305-54.857-51.046-54.857s-51.047 23.079-51.047 54.857zM562.283 231.453c51.454 16.238 87.62 65.843 87.62 122.402 0 69.213-54.15 128.002-124.189 128.002s-124.19-58.789-124.19-128.002c0-56.559 36.168-106.164 87.619-122.402v-78.741c0-20.197 16.374-36.571 36.571-36.571s36.569 16.374 36.569 36.571v78.741z" />
<glyph unicode="&#xe913;" glyph-name="lock-cc" d="M410.121 847.208c-22.901-23.897-36.026-56.628-36.026-91.065v-128h471.621c41.004 0 71.617-34.23 71.617-73.143v-512.002c0-38.912-30.613-73.143-71.617-73.143h-700.955c-41.005 0-71.619 34.231-71.619 73.143v512.002c0 38.913 30.614 73.143 71.619 73.143h156.191v128c0 52.856 20.107 103.844 56.36 141.673 36.304 37.882 85.883 59.469 137.925 59.469s101.622-21.587 137.925-59.469c36.254-37.829 56.359-88.817 56.359-141.673 0-20.198-16.374-36.571-36.571-36.571s-36.571 16.373-36.571 36.571c0 34.438-13.122 67.169-36.025 91.065-22.85 23.844-53.502 36.935-85.116 36.935s-62.267-13.091-85.117-36.935zM337.524 555h-191.238v-512.002h697.905v512.002h-506.666zM444.191 353.855c0 31.783 24.306 54.857 51.047 54.857s51.047-23.074 51.047-54.857c0-31.778-24.306-54.857-51.047-54.857s-51.047 23.079-51.047 54.857zM531.81 231.453c51.451 16.238 87.618 65.843 87.618 122.402 0 69.213-54.15 128.002-124.189 128.002s-124.19-58.789-124.19-128.002c0-56.559 36.168-106.164 87.619-122.402v-78.741c0-20.197 16.374-36.571 36.571-36.571s36.571 16.374 36.571 36.571v78.741z" />
<glyph unicode="&#xe914;" glyph-name="lock-wrong" d="M410.121 847.208c-22.901-23.897-36.026-56.628-36.026-91.065v-128h471.621c41.004 0 71.617-34.23 71.617-73.143v-512.002c0-38.912-30.613-73.143-71.617-73.143h-700.955c-41.005 0-71.619 34.231-71.619 73.143v512.002c0 38.913 30.614 73.143 71.619 73.143h156.191v128c0 52.856 20.107 103.844 56.36 141.673 36.304 37.882 85.883 59.469 137.925 59.469s101.622-21.587 137.925-59.469c36.254-37.829 56.359-88.817 56.359-141.673 0-20.198-16.374-36.571-36.571-36.571s-36.571 16.373-36.571 36.571c0 34.438-13.122 67.169-36.025 91.065-22.85 23.844-53.502 36.935-85.116 36.935s-62.267-13.091-85.117-36.935zM337.524 555h-191.238v-512.002h697.905v512.002h-506.666zM444.191 353.855c0 31.783 24.306 54.857 51.047 54.857s51.047-23.074 51.047-54.857c0-31.778-24.306-54.857-51.047-54.857s-51.047 23.079-51.047 54.857zM531.81 231.453c51.451 16.238 87.618 65.843 87.618 122.402 0 69.213-54.15 128.002-124.189 128.002s-124.19-58.789-124.19-128.002c0-56.559 36.168-106.164 87.619-122.402v-78.741c0-20.197 16.374-36.571 36.571-36.571s36.571 16.374 36.571 36.571v78.741z" />
<glyph unicode="&#xe915;" glyph-name="login-circle-active" d="M512 245.44c-123.712 0-224 100.285-224 223.997s100.288 224 224 224c123.712 0 224-100.288 224-224s-100.288-223.997-224-223.997zM512-10.56c265.094 0 480 214.899 480 479.997s-214.906 480-480 480c-265.097 0-480-214.903-480-480s214.903-479.997 480-479.997z" />
<glyph unicode="&#xe916;" glyph-name="login-circle-cc" d="M512 245.44c-123.712 0-224 100.285-224 223.997s100.288 224 224 224c123.712 0 224-100.288 224-224s-100.288-223.997-224-223.997zM512-10.56c265.094 0 480 214.899 480 479.997s-214.906 480-480 480c-265.097 0-480-214.903-480-480s214.903-479.997 480-479.997z" />
<glyph unicode="&#xe917;" glyph-name="login-circle-default" d="M512 245.44c-123.712 0-224 100.285-224 223.997s100.288 224 224 224c123.712 0 224-100.288 224-224s-100.288-223.997-224-223.997zM512-10.56c265.094 0 480 214.899 480 479.997s-214.906 480-480 480c-265.097 0-480-214.903-480-480s214.903-479.997 480-479.997z" />
<glyph unicode="&#xe918;" glyph-name="login-circle-wrong" d="M512 245.44c-123.712 0-224 100.285-224 223.997s100.288 224 224 224c123.712 0 224-100.288 224-224s-100.288-223.997-224-223.997zM512-10.56c265.094 0 480 214.899 480 479.997s-214.906 480-480 480c-265.097 0-480-214.903-480-480s214.903-479.997 480-479.997z" />
<glyph unicode="&#xe919;" glyph-name="logout" horiz-adv-x="978" d="M390.46 534.093c-16.593 0-29.712-12.896-29.712-29.204 0-15.929 13.119-29.202 29.712-29.202h231.524v-181.287c0-92.918-76.789-168.769-171.713-168.769h-187.92c-94.54 0-171.329 75.471-171.329 168.391v421.356c0 93.298 77.175 168.771 171.713 168.771h188.307c94.153 0 170.942-75.473 170.942-168.391v-181.664h-231.524zM759.665 636.107l110.742-110.364c5.689-5.689 8.724-12.896 8.724-20.86 0-7.584-3.036-15.171-8.724-20.48l-110.742-110.364c-5.689-5.689-13.276-8.722-20.48-8.722-7.587 0-15.171 3.033-20.86 8.722-11.378 11.378-11.378 29.962 0 41.34l60.682 60.302h-157.013v58.404h157.013l-60.682 60.302c-11.378 11.378-11.378 29.962 0 41.34 11.378 11.758 29.962 11.758 41.34 0.38z" />
<glyph unicode="&#xe91a;" glyph-name="logout-cc" horiz-adv-x="978" d="M390.46 534.093c-16.593 0-29.712-12.896-29.712-29.204 0-15.929 13.119-29.202 29.712-29.202h231.524v-181.287c0-92.918-76.789-168.769-171.713-168.769h-187.92c-94.54 0-171.329 75.471-171.329 168.391v421.356c0 93.298 77.175 168.771 171.713 168.771h188.307c94.153 0 170.942-75.473 170.942-168.391v-181.664h-231.524zM759.665 636.107l110.742-110.364c5.689-5.689 8.724-12.896 8.724-20.86 0-7.584-3.036-15.171-8.724-20.48l-110.742-110.364c-5.689-5.689-13.276-8.722-20.48-8.722-7.587 0-15.171 3.033-20.86 8.722-11.378 11.378-11.378 29.962 0 41.34l60.682 60.302h-157.013v58.404h157.013l-60.682 60.302c-11.378 11.378-11.378 29.962 0 41.34 11.378 11.758 29.962 11.758 41.34 0.38z" />
<glyph unicode="&#xe91b;" glyph-name="menu-dot" d="M265.029 448c0-66.534-53.936-120.471-120.471-120.471s-120.47 53.936-120.47 120.471c0 66.534 53.936 120.471 120.47 120.471s120.471-53.937 120.471-120.471zM626.441 448c0-66.534-53.936-120.471-120.471-120.471s-120.471 53.936-120.471 120.471c0 66.534 53.936 120.471 120.471 120.471s120.471-53.937 120.471-120.471zM987.853 448c0-66.534-53.935-120.471-120.471-120.471s-120.471 53.936-120.471 120.471c0 66.534 53.935 120.471 120.471 120.471s120.471-53.937 120.471-120.471z" />
<glyph unicode="&#xe91c;" glyph-name="menu-dot-cc" d="M290.441 448c0-66.534-53.936-120.471-120.471-120.471s-120.471 53.936-120.471 120.471c0 66.534 53.937 120.471 120.471 120.471s120.471-53.937 120.471-120.471zM651.854 448c0-66.534-53.938-120.471-120.472-120.471s-120.471 53.936-120.471 120.471c0 66.534 53.936 120.471 120.471 120.471s120.472-53.937 120.472-120.471zM1013.266 448c0-66.534-53.941-120.471-120.471-120.471-66.536 0-120.471 53.936-120.471 120.471s53.935 120.471 120.471 120.471c66.53 0 120.471-53.937 120.471-120.471z" />
<glyph unicode="&#xe91d;" glyph-name="note" d="M125.616 810.891c0.001 80.752 62.122 149.109 142.22 149.109h511.998c80.1 0 142.222-68.359 142.222-149.113l-0.011-723.995c-0.006-80.748-62.123-149.106-142.222-149.106l-511.991 0.006c-80.098 0-142.22 68.358-142.219 149.111l0.004 723.987zM267.835 903.111c-45.574 0-85.33-39.69-85.33-92.22l-0.005-723.993c-0.001-52.531 39.756-92.217 85.33-92.217l511.991-0.006c45.574 0 85.333 39.691 85.333 92.223l0.011 723.991c0 52.532-39.754 92.223-85.333 92.223h-511.998zM324.736 690.224c0 15.71 12.735 28.444 28.444 28.444h341.325c15.713 0 28.444-12.735 28.444-28.444s-12.732-28.444-28.444-28.444h-341.325c-15.709 0-28.444 12.735-28.444 28.444zM324.736 509.226c0 15.71 12.735 28.444 28.444 28.444h341.325c15.713 0 28.444-12.735 28.444-28.444s-12.732-28.444-28.444-28.444h-341.325c-15.709 0-28.444 12.735-28.444 28.444zM324.736 328.226c0 15.713 12.735 28.444 28.444 28.444h170.663c15.709 0 28.444-12.732 28.444-28.444 0-15.707-12.735-28.444-28.444-28.444h-170.663c-15.709 0-28.444 12.737-28.444 28.444z" />
<glyph unicode="&#xe91e;" glyph-name="note-cc" d="M136.949 810.891c0 80.752 62.122 149.109 142.22 149.109h512.002c80.1 0 142.222-68.359 142.217-149.113l-0.011-723.995c0-80.748-62.123-149.106-142.222-149.106l-511.99 0.006c-80.099 0-142.22 68.358-142.22 149.111l0.004 723.987zM279.169 903.111c-45.574 0-85.33-39.69-85.331-92.22l-0.004-723.993c-0.001-52.531 39.756-92.217 85.33-92.217l511.99-0.006c45.574 0 85.333 39.691 85.333 92.223l0.011 723.991c0 52.532-39.754 92.223-85.328 92.223h-512.002zM336.069 690.224c0 15.71 12.735 28.444 28.444 28.444h341.324c15.713 0 28.444-12.735 28.444-28.444s-12.732-28.444-28.444-28.444h-341.324c-15.709 0-28.444 12.735-28.444 28.444zM336.069 509.226c0 15.71 12.735 28.444 28.444 28.444h341.324c15.713 0 28.444-12.735 28.444-28.444s-12.732-28.444-28.444-28.444h-341.324c-15.709 0-28.444 12.735-28.444 28.444zM336.069 328.226c0 15.713 12.735 28.444 28.444 28.444h170.663c15.709 0 28.444-12.732 28.444-28.444 0-15.707-12.735-28.444-28.444-28.444h-170.663c-15.709 0-28.444 12.737-28.444 28.444z" />
<glyph unicode="&#xe91f;" glyph-name="order" d="M78.718 253.745l556.698 0.001c15.619 0 28.274-12.66 28.274-28.277s-12.655-28.277-28.274-28.277h-556.698c-15.617 0-28.277 12.66-28.277 28.276s12.66 28.277 28.277 28.277zM813.321 225.47c0 15.617 12.661 28.277 28.28 28.277l144.33-0.001c15.613 0 28.274-12.66 28.274-28.277s-12.661-28.276-28.274-28.276h-144.33c-15.619 0-28.28 12.661-28.28 28.277zM738.515 300.101c-41.37 0-74.812-33.46-74.812-74.626 0-41.162 33.443-74.622 74.812-74.622s74.818 33.461 74.818 74.622c0 41.165-33.449 74.626-74.818 74.626zM607.148 225.476c0 72.497 58.862 131.179 131.367 131.179s131.367-58.681 131.367-131.179c0-72.496-58.862-131.177-131.367-131.177s-131.367 58.681-131.367 131.177zM50.441 678.228c0 15.617 12.661 28.276 28.277 28.276l226.803-0.004c15.617-0.001 28.276-12.66 28.276-28.277s-12.66-28.276-28.277-28.276l-226.803 0.004c-15.617 0-28.276 12.66-28.276 28.277zM511.717 706.5l474.226 0.004c15.613 0.001 28.274-12.66 28.274-28.276s-12.661-28.277-28.274-28.277l-474.225-0.004c-15.617 0-28.277 12.66-28.277 28.277s12.66 28.277 28.276 28.277zM408.604 752.858c-41.369 0-74.816-33.46-74.816-74.625s33.447-74.625 74.816-74.625c41.368 0 74.815 33.46 74.815 74.625s-33.447 74.625-74.815 74.625zM277.235 678.233c0 72.497 58.865 131.179 131.369 131.179s131.369-58.681 131.369-131.179c0-72.497-58.866-131.178-131.369-131.178s-131.369 58.681-131.369 131.178z" />
<glyph unicode="&#xe920;" glyph-name="order-cc" d="M77.777 253.745l556.699 0.001c15.613 0 28.274-12.66 28.274-28.277s-12.661-28.277-28.274-28.277h-556.699c-15.617 0-28.277 12.66-28.277 28.276s12.66 28.277 28.277 28.277zM812.381 225.47c0 15.617 12.661 28.277 28.28 28.277l144.324-0.001c15.619 0 28.28-12.66 28.28-28.277s-12.661-28.276-28.28-28.276h-144.324c-15.619 0-28.28 12.661-28.28 28.277zM737.575 300.101c-41.37 0-74.818-33.46-74.818-74.626 0-41.162 33.449-74.622 74.818-74.622s74.812 33.461 74.812 74.622c0 41.165-33.443 74.626-74.812 74.626zM606.208 225.476c0 72.497 58.862 131.179 131.367 131.179s131.367-58.681 131.367-131.179c0-72.496-58.862-131.177-131.367-131.177s-131.367 58.681-131.367 131.177zM49.5 678.228c0 15.617 12.66 28.276 28.277 28.276l226.803-0.004c15.617-0.001 28.277-12.66 28.276-28.277s-12.66-28.276-28.277-28.276l-226.803 0.004c-15.617 0-28.277 12.66-28.276 28.277zM510.777 706.5l474.221 0.004c15.619 0.001 28.28-12.66 28.28-28.276s-12.661-28.277-28.274-28.277l-474.226-0.004c-15.617 0-28.277 12.66-28.277 28.277s12.66 28.277 28.277 28.277zM407.663 752.858c-41.368 0-74.815-33.46-74.815-74.625s33.447-74.625 74.815-74.625c41.369 0 74.816 33.46 74.816 74.625s-33.447 74.625-74.816 74.625zM276.294 678.233c0 72.497 58.866 131.179 131.369 131.179s131.369-58.681 131.369-131.179c0-72.497-58.865-131.178-131.369-131.178s-131.369 58.681-131.369 131.178z" />
<glyph unicode="&#xe921;" glyph-name="pencil" d="M603.147 821.301c34.628 33.209 90.305 33.231 124.956 0.051l104.454-100.001c35.351-33.845 35.379-89.273 0.051-123.148l-493.075-472.86c-12.465-11.952-28.195-19.985-45.156-23.262l-220.262-42.542c-9.357-1.803-18.997 1.195-25.678 7.987-6.681 6.798-9.515 16.486-7.549 25.81l44.461 210.868c3.563 16.898 12.211 32.243 24.665 44.186l493.131 472.909zM688.765 780.26c-12.646 12.106-33.61 12.097-46.245-0.018l-493.128-472.909c-4.377-4.198-7.222-9.392-8.375-14.863l-35.623-168.946 178.196 34.412c6.426 1.246 12.169 4.25 16.568 8.465l493.078 472.862c11.958 11.468 11.952 29.537-0.017 40.996l-104.454 100.001zM730.066 110.074c-26.726 40.277-87.307 45.306-120.9 9.222l-37.444-40.226c-10.705-11.503-28.704-12.146-40.202-1.439-11.498 10.701-12.142 28.7-1.439 40.198l37.448 40.226c58.3 62.635 162.595 54.83 209.943-16.526 24.838-37.427 79.895-45.096 115.041-14.854l67.88 58.414c11.907 10.251 29.867 8.903 40.112-3.004s8.903-29.867-3.004-40.112l-67.88-58.414c-60.53-52.093-155.386-40.044-199.555 26.516z" />
<glyph unicode="&#xe922;" glyph-name="pencil-cc" d="M614.48 821.301c34.628 33.209 90.305 33.231 124.962 0.051l104.448-100.001c35.351-33.845 35.379-89.273 0.057-123.148l-493.079-472.86c-12.465-11.952-28.195-19.985-45.156-23.262l-220.262-42.542c-9.357-1.803-18.997 1.195-25.678 7.987-6.681 6.798-9.515 16.486-7.548 25.81l44.461 210.868c3.563 16.898 12.211 32.243 24.665 44.186l493.13 472.909zM700.097 780.26c-12.646 12.106-33.61 12.097-46.245-0.018l-493.127-472.909c-4.377-4.198-7.222-9.392-8.376-14.863l-35.622-168.946 178.196 34.412c6.426 1.246 12.169 4.25 16.568 8.465l493.076 472.862c11.958 11.468 11.952 29.537-0.017 40.996l-104.454 100.001zM741.404 110.074c-26.726 40.277-87.313 45.306-120.906 9.222l-37.444-40.226c-10.706-11.503-28.703-12.146-40.201-1.439-11.498 10.701-12.142 28.7-1.439 40.198l37.447 40.226c58.305 62.635 162.594 54.83 209.943-16.526 24.838-37.427 79.895-45.096 115.041-14.854l67.88 58.414c11.907 10.251 29.867 8.903 40.112-3.004s8.903-29.867-3.004-40.112l-67.88-58.414c-60.53-52.093-155.386-40.044-199.549 26.516z" />
<glyph unicode="&#xe923;" glyph-name="plus" d="M505.97 929.882c17.743 0 32.126-14.408 32.126-32.181v-417.52h417.633c17.739 0 32.123-14.408 32.123-32.181s-14.384-32.181-32.123-32.181h-417.633v-417.518c0-17.775-14.384-32.184-32.126-32.184s-32.125 14.408-32.125 32.184v417.518h-417.631c-17.742 0-32.126 14.408-32.126 32.181s14.383 32.181 32.126 32.181h417.631v417.52c0 17.773 14.383 32.181 32.125 32.181z" />
<glyph unicode="&#xe924;" glyph-name="plus-cc" d="M531.383 929.882c17.742 0 32.125-14.408 32.125-32.181v-417.52h417.629c17.745 0 32.13-14.408 32.13-32.181s-14.384-32.181-32.13-32.181h-417.629v-417.518c0-17.775-14.383-32.184-32.125-32.184s-32.126 14.408-32.126 32.184v417.518h-417.631c-17.742 0-32.125 14.408-32.125 32.181s14.383 32.181 32.125 32.181h417.631l0.001 417.52c0 17.773 14.383 32.181 32.125 32.181z" />
<glyph unicode="&#xe925;" glyph-name="profile" d="M772.716 694.41c0-147.428-118.206-265.64-265.737-265.64-147.48 0-265.736 118.212-265.736 265.64s118.256 265.59 265.736 265.59c147.531 0 265.737-118.163 265.737-265.59zM506.979-43.921c-217.731 0-401.568 35.388-401.568 171.924 0 136.584 184.992 170.716 401.568 170.716 217.784 0 401.571-35.388 401.571-171.921 0-136.587-184.992-170.719-401.571-170.719z" />
<glyph unicode="&#xe926;" glyph-name="profile-cc" d="M772.716 694.41c0-147.428-118.206-265.64-265.737-265.64-147.48 0-265.736 118.212-265.736 265.64s118.256 265.59 265.736 265.59c147.531 0 265.737-118.163 265.737-265.59zM506.979-43.921c-217.731 0-401.568 35.388-401.568 171.924 0 136.584 184.992 170.716 401.568 170.716 217.784 0 401.571-35.388 401.571-171.921 0-136.587-184.992-170.719-401.571-170.719z" />
<glyph unicode="&#xe927;" glyph-name="quiz" d="M411.834 165.095l348.732 450.974c18.954 24.319 25.693 52.436 19.375 81.065-5.477 26.026-21.48 50.772-45.487 69.545l-58.544 46.505c-50.962 40.532-114.138 36.266-150.359-10.24l-39.169-50.815c-5.053-6.357-3.789-15.743 2.529-20.863 0 0 98.976-79.357 101.081-81.065 6.739-6.399 11.793-14.934 13.057-25.174 2.105-20.051-11.793-38.824-32.432-41.384-9.685-1.281-18.951 1.705-25.69 7.251l-104.029 82.773c-5.056 3.796-12.636 2.986-16.848-2.134l-247.228-319.993c-16.005-20.051-21.48-46.078-16.005-71.251l31.588-136.956c1.685-7.251 8.002-12.371 15.583-12.371l138.987 1.705c25.271 0.426 48.857 11.947 64.86 32.427zM606.446 207.746h226.633c22.111 0 40.096-18.218 40.096-40.617 0-22.442-17.984-40.617-40.096-40.617h-226.633c-22.111 0-40.096 18.175-40.096 40.617 0 22.399 17.984 40.617 40.096 40.617z" />
<glyph unicode="&#xe928;" glyph-name="quiz-cc" d="M411.834 165.095l348.732 450.974c18.954 24.319 25.693 52.436 19.375 81.065-5.477 26.026-21.48 50.772-45.487 69.545l-58.544 46.505c-50.962 40.532-114.138 36.266-150.359-10.24l-39.169-50.815c-5.053-6.357-3.789-15.743 2.529-20.863 0 0 98.976-79.357 101.081-81.065 6.739-6.399 11.793-14.934 13.057-25.174 2.105-20.051-11.793-38.824-32.432-41.384-9.685-1.281-18.951 1.705-25.69 7.251l-104.029 82.773c-5.056 3.796-12.636 2.986-16.848-2.134l-247.228-319.993c-16.005-20.051-21.48-46.078-16.005-71.251l31.588-136.956c1.685-7.251 8.002-12.371 15.583-12.371l138.987 1.705c25.271 0.426 48.857 11.947 64.86 32.427zM606.446 207.746h226.633c22.111 0 40.096-18.218 40.096-40.617 0-22.442-17.984-40.617-40.096-40.617h-226.633c-22.111 0-40.096 18.175-40.096 40.617 0 22.399 17.984 40.617 40.096 40.617z" />
<glyph unicode="&#xe929;" glyph-name="reset" d="M518.749 862.012c148.206 0 277.627-80.332 346.898-199.866 0.663-1.134 1.373-2.217 2.138-3.245h-104.701c-18.745 0-33.937-15.193-33.937-33.935s15.191-33.935 33.937-33.935h217.184c18.745 0 33.937 15.193 33.937 33.935v216.785c0 18.742-15.191 33.935-33.937 33.935-18.739 0-33.937-15.194-33.937-33.935v-182.85h-24.088c7.843 10.552 9.138 25.18 2.126 37.277-80.932 139.655-232.267 233.705-405.621 233.705-258.58 0-468.308-209.25-468.308-467.505 0-258.258 209.728-467.503 468.308-467.503 207.544 0 383.515 134.764 444.973 321.397 5.861 17.803-3.813 36.986-21.618 42.848-17.8 5.862-36.984-3.817-42.845-21.618-52.543-159.566-203.065-274.76-380.509-274.76-221.215 0-400.438 178.983-400.438 399.636s179.223 399.635 400.438 399.635z" />
<glyph unicode="&#xe92a;" glyph-name="reset-cc" d="M517.808 862.012c148.207 0 277.623-80.332 346.899-199.866 0.657-1.134 1.373-2.217 2.132-3.245h-104.695c-18.745 0-33.937-15.193-33.937-33.935s15.191-33.935 33.937-33.935h217.184c18.739 0 33.937 15.193 33.937 33.935v216.785c0 18.742-15.197 33.935-33.937 33.935s-33.937-15.194-33.937-33.935v-182.85h-24.088c7.843 10.552 9.138 25.18 2.126 37.277-80.938 139.655-232.273 233.705-405.623 233.705-258.58 0-468.309-209.25-468.309-467.505 0-258.258 209.728-467.503 468.309-467.503 207.545 0 383.516 134.764 444.974 321.397 5.861 17.803-3.819 36.986-21.618 42.848s-36.984-3.817-42.845-21.618c-52.543-159.566-203.065-274.76-380.511-274.76-221.215 0-400.438 178.983-400.438 399.636s179.223 399.635 400.438 399.635z" />
<glyph unicode="&#xe92b;" glyph-name="search" d="M915.763 8.734l-207.125 207.131c-32.563-28.226-70.56-50.212-113.981-65.952s-89.557-23.606-138.406-23.606c-117.238 0-216.565 40.707-297.981 122.121s-122.123 179.657-122.123 294.724c0 115.067 40.708 213.309 122.123 294.724s180.2 122.123 296.353 122.123c115.067 0 213.037-40.708 293.909-122.123s121.308-179.657 121.308-294.724c0-46.678-7.596-91.728-22.793-135.15s-37.996-84.129-68.391-122.126l210.384-207.125c9.77-8.68 14.655-19.811 14.655-33.376 0-13.571-5.427-25.781-16.282-36.641-9.77-9.764-21.715-14.649-35.828-14.649-14.107 0-26.052 4.885-35.822 14.649zM454.623 224.003c87.928 0 162.831 31.208 224.705 93.63 61.88 62.418 92.817 137.591 92.817 225.52s-30.937 163.103-92.817 225.521c-61.874 62.419-136.776 93.628-224.705 93.628-89.015 0-164.731-31.209-227.149-93.628s-93.628-137.592-93.628-225.521c0-87.928 31.209-163.102 93.628-225.52 62.418-62.422 138.135-93.63 227.149-93.63z" />
<glyph unicode="&#xe92c;" glyph-name="search-cc" d="M929.117 8.734l-207.125 207.131c-32.569-28.226-70.56-50.212-113.983-65.952-43.42-15.739-89.555-23.606-138.405-23.606-117.238 0-216.565 40.707-297.981 122.121s-122.123 179.657-122.123 294.724c0 115.067 40.708 213.309 122.123 294.724s180.2 122.123 296.353 122.123c115.067 0 213.038-40.708 293.91-122.123s121.308-179.657 121.308-294.724c0-46.678-7.596-91.728-22.793-135.15s-37.996-84.129-68.391-122.126l210.384-207.125c9.77-8.68 14.655-19.811 14.655-33.376 0-13.571-5.427-25.781-16.288-36.641-9.77-9.764-21.709-14.649-35.822-14.649s-26.052 4.885-35.822 14.649zM467.976 224.003c87.928 0 162.832 31.208 224.706 93.63 61.874 62.418 92.817 137.591 92.817 225.52s-30.943 163.103-92.817 225.521c-61.874 62.419-136.777 93.628-224.706 93.628-89.015 0-164.731-31.209-227.149-93.628s-93.628-137.592-93.628-225.521c0-87.928 31.209-163.102 93.628-225.52 62.418-62.422 138.135-93.63 227.149-93.63z" />
<glyph unicode="&#xe92d;" glyph-name="shared" d="M673.494 613.629c0-89.115-71.043-160.57-159.642-160.57s-159.642 71.455-159.642 160.57c0 89.147 71.043 160.534 159.642 160.534s159.642-71.387 159.642-160.534zM513.852 167.347c-130.13 0-241.245 20.632-241.245 103.153 0 82.555 110.401 103.938 241.245 103.938 130.13 0 241.245-20.63 241.245-103.187 0-82.521-110.401-103.904-241.245-103.904zM741.713 610.732c0-45.429-13.549-87.748-37.319-122.93-2.446-3.62-0.273-8.504 4.039-9.255 5.944-1.026 12.090-1.607 18.339-1.777 62.314-1.638 118.245 38.7 133.696 99.43 22.89 90.205-44.316 171.19-129.893 171.19-9.305 0-18.202-0.991-26.861-2.767-1.188-0.273-2.444-0.82-3.124-1.879-0.815-1.298-0.203-3.040 0.612-4.167 25.707-36.24 40.512-80.438 40.512-127.847zM844.914 413.389c41.872-8.231 69.414-25.036 80.823-49.457 9.644-20.050 9.644-43.311 0-63.326-17.456-37.879-73.726-50.039-95.594-53.182-4.517-0.683-8.151 3.245-7.675 7.787 11.173 104.965-77.699 154.729-100.689 166.172-0.985 0.512-1.188 1.297-1.085 1.775 0.068 0.341 0.476 0.887 1.222 0.99 49.75 0.924 103.235-5.907 122.998-10.759zM304.808 476.774c6.246 0.171 12.361 0.717 18.336 1.775 4.312 0.751 6.488 5.637 4.041 9.257-23.77 35.18-37.321 77.501-37.321 122.928 0 47.409 14.807 91.608 40.514 127.848 0.815 1.127 1.393 2.869 0.61 4.167-0.678 1.025-1.968 1.605-3.122 1.879-8.695 1.776-17.592 2.767-26.897 2.767-85.576 0-152.781-80.984-129.859-171.192 15.451-60.73 71.381-101.069 133.698-99.428zM310.868 423.178c0.102-0.512-0.1-1.263-1.051-1.809-23.024-11.444-111.895-61.208-100.723-166.138 0.475-4.576-3.124-8.47-7.641-7.821-21.87 3.143-78.14 15.303-95.594 53.182-9.678 20.050-9.678 43.277 0 63.326 11.41 24.421 38.917 41.226 80.788 49.491 19.798 4.817 73.249 11.649 123.033 10.725 0.746-0.102 1.122-0.649 1.188-0.956z" />
<glyph unicode="&#xe92e;" glyph-name="shared-cc" d="M673.494 613.629c0-89.115-71.043-160.57-159.642-160.57s-159.642 71.455-159.642 160.57c0 89.147 71.043 160.534 159.642 160.534s159.642-71.387 159.642-160.534zM513.852 167.347c-130.13 0-241.245 20.632-241.245 103.153 0 82.555 110.401 103.938 241.245 103.938 130.13 0 241.245-20.63 241.245-103.187 0-82.521-110.401-103.904-241.245-103.904zM741.713 610.732c0-45.429-13.549-87.748-37.319-122.93-2.446-3.62-0.273-8.504 4.039-9.255 5.944-1.026 12.090-1.607 18.339-1.777 62.314-1.638 118.245 38.7 133.696 99.43 22.89 90.205-44.316 171.19-129.893 171.19-9.305 0-18.202-0.991-26.861-2.767-1.188-0.273-2.444-0.82-3.124-1.879-0.815-1.298-0.203-3.040 0.612-4.167 25.707-36.24 40.512-80.438 40.512-127.847zM844.914 413.389c41.872-8.231 69.414-25.036 80.823-49.457 9.644-20.050 9.644-43.311 0-63.326-17.456-37.879-73.726-50.039-95.594-53.182-4.517-0.683-8.151 3.245-7.675 7.787 11.173 104.965-77.699 154.729-100.689 166.172-0.985 0.512-1.188 1.297-1.085 1.775 0.068 0.341 0.476 0.887 1.222 0.99 49.75 0.924 103.235-5.907 122.998-10.759zM304.808 476.774c6.246 0.171 12.361 0.717 18.336 1.775 4.312 0.751 6.488 5.637 4.041 9.257-23.77 35.18-37.321 77.501-37.321 122.928 0 47.409 14.807 91.608 40.514 127.848 0.815 1.127 1.393 2.869 0.61 4.167-0.678 1.025-1.968 1.605-3.122 1.879-8.695 1.776-17.592 2.767-26.897 2.767-85.576 0-152.781-80.984-129.859-171.192 15.451-60.73 71.381-101.069 133.698-99.428zM310.868 423.178c0.102-0.512-0.1-1.263-1.051-1.809-23.024-11.444-111.895-61.208-100.723-166.138 0.475-4.576-3.124-8.47-7.641-7.821-21.87 3.143-78.14 15.303-95.594 53.182-9.678 20.050-9.678 43.277 0 63.326 11.41 24.421 38.917 41.226 80.788 49.491 19.798 4.817 73.249 11.649 123.033 10.725 0.746-0.102 1.122-0.649 1.188-0.956z" />
<glyph unicode="&#xe92f;" glyph-name="star" d="M520.504 859.96l110.48-223.363c11.103-22.45 32.539-37.961 57.276-41.547l246.813-35.786-178.522-173.636c-17.949-17.457-26.161-42.637-21.918-67.34l42.169-245.316-220.935 115.897c-22.143 11.615-48.581 11.615-70.724 0l-220.937-115.897 42.168 245.316c4.246 24.703-3.969 49.883-21.915 67.34l-178.525 173.636 246.817 35.786c24.736 3.586 46.171 19.097 57.276 41.547l110.479 223.363zM544.997 920.427c-10.021 20.256-38.966 20.256-48.986 0l-129.694-262.211c-3.978-8.044-11.669-13.619-20.565-14.908l-290.004-42.047c-22.403-3.249-31.348-30.719-15.137-46.485l209.849-204.104c6.437-6.261 9.375-15.282 7.855-24.123l-49.539-288.197c-3.827-22.265 19.592-39.239 39.63-28.731l259.386 136.070c7.958 4.174 17.467 4.174 25.42 0l259.389-136.070c20.036-10.508 43.457 6.466 39.629 28.731l-49.537 288.197c-1.521 8.841 1.419 17.861 7.856 24.123l209.847 204.104c16.213 15.767 7.266 43.237-15.136 46.485l-290.002 42.047c-8.899 1.29-16.589 6.865-20.568 14.908l-129.692 262.211z" />
<glyph unicode="&#xe930;" glyph-name="star-active" d="M497.108 920.427c10.016 20.256 38.966 20.256 48.981 0l129.697-262.211c3.979-8.044 11.669-13.619 20.563-14.908l290.007-42.047c22.401-3.249 31.344-30.719 15.136-46.485l-209.852-204.104c-6.437-6.261-9.372-15.282-7.851-24.123l49.537-288.197c3.828-22.265-19.593-39.239-39.629-28.731l-259.389 136.070c-7.958 4.174-17.462 4.174-25.42 0l-259.387-136.070c-20.037-10.508-43.457 6.466-39.63 28.731l49.539 288.197c1.52 8.841-1.418 17.861-7.855 24.123l-209.849 204.104c-16.211 15.767-7.265 43.237 15.137 46.485l290.004 42.047c8.896 1.29 16.586 6.865 20.565 14.908l129.695 262.211z" />
<glyph unicode="&#xe931;" glyph-name="star-cc" d="M506.821 920.427c10.016 20.256 38.966 20.256 48.986 0l129.692-262.211c3.979-8.044 11.669-13.619 20.563-14.908l290.007-42.047c22.401-3.249 31.349-30.719 15.136-46.485l-209.847-204.104c-6.437-6.261-9.377-15.282-7.856-24.123l49.537-288.197c3.828-22.265-19.593-39.239-39.629-28.731l-259.389 136.070c-7.958 4.174-17.462 4.174-25.42 0l-259.387-136.070c-20.038-10.508-43.457 6.466-39.63 28.731l49.539 288.197c1.52 8.841-1.418 17.861-7.855 24.123l-209.849 204.104c-16.211 15.767-7.265 43.237 15.137 46.485l290.004 42.047c8.896 1.29 16.586 6.865 20.565 14.908l129.694 262.211z" />
<glyph unicode="&#xe932;" glyph-name="triangle-down" d="M511.609 1.772l-511.621 886.151h1023.24l-511.619-886.151z" />
<glyph unicode="&#xe933;" glyph-name="triangle-down-cc" d="M511.609 1.772l-511.621 886.151h1023.24l-511.619-886.151z" />
<glyph unicode="&#xe934;" glyph-name="warning" d="M525.382 864.318c-227.562 0-411.927-184.118-411.927-411.101s184.365-411.103 411.927-411.103c227.561 0 411.927 184.12 411.927 411.103s-184.367 411.101-411.927 411.101zM43.636 453.218c0 265.665 215.746 480.919 481.745 480.919s481.745-215.254 481.745-480.919c0-265.667-215.747-480.922-481.745-480.922-266 0-481.745 215.254-481.745 480.922zM525.382 711.131c19.279 0 34.909-15.629 34.909-34.909v-223.004c0-19.279-15.63-34.909-34.909-34.909s-34.909 15.63-34.909 34.909v223.004c0 19.28 15.63 34.909 34.909 34.909zM525.382 322.83c19.279 0 34.909-15.625 34.909-34.909v-1.96c0-19.279-15.63-34.909-34.909-34.909s-34.909 15.63-34.909 34.909v1.96c0 19.284 15.63 34.909 34.909 34.909z" />
<glyph unicode="&#xe935;" glyph-name="warning-cc" d="M496.291 864.318c-227.562 0-411.927-184.118-411.927-411.101s184.365-411.103 411.927-411.103c227.561 0 411.927 184.12 411.927 411.103s-184.367 411.101-411.927 411.101zM14.545 453.218c0 265.665 215.746 480.919 481.745 480.919s481.745-215.254 481.745-480.919c0-265.667-215.747-480.922-481.745-480.922-266 0-481.745 215.254-481.745 480.922zM496.291 711.131c19.279 0 34.909-15.629 34.909-34.909v-223.004c0-19.279-15.63-34.909-34.909-34.909s-34.909 15.63-34.909 34.909v223.004c0 19.28 15.63 34.909 34.909 34.909zM496.291 322.83c19.279 0 34.909-15.625 34.909-34.909v-1.96c0-19.279-15.63-34.909-34.909-34.909s-34.909 15.63-34.909 34.909v1.96c0 19.284 15.63 34.909 34.909 34.909z" />
<glyph unicode="&#xe936;" glyph-name="word" horiz-adv-x="933" d="M353.687 338.396h204.274c15.396 0 28.162 12.893 28.162 28.444 0 15.549-12.766 28.064-28.162 28.064h-204.274c-15.396 0-28.162-12.516-28.162-28.064 0-15.551 12.766-28.444 28.162-28.444zM480.609 584.533h-126.921c-15.396 0-28.162-12.893-28.162-28.444 0-15.549 12.766-28.064 28.162-28.064h126.921c15.394 0 28.162 12.516 28.162 28.064 0 15.551-12.768 28.444-28.162 28.444zM748.585 617.695c8.827 0.102 18.437 0.214 27.17 0.214 9.387 0 16.896-7.584 16.896-17.067v-304.924c0-94.056-75.476-170.287-168.6-170.287h-298.901c-97.632 0-177.238 80.022-177.238 178.631v408.84c0 94.057 75.852 171.046 169.351 171.046h200.52c9.764 0 17.274-7.964 17.274-17.446v-122.122c0-69.403 56.702-126.292 125.42-126.672 16.049 0 30.201-0.121 42.585-0.225 9.632-0.082 18.198-0.155 25.757-0.155 5.345 0 12.272 0.080 19.768 0.166zM758.939 673.052c-30.866-0.114-67.252 0-93.425 0.266-41.531 0-75.74 34.55-75.74 76.496v99.973c0 16.346 19.64 24.462 30.868 12.667 20.321-21.342 48.249-50.679 76.049-79.882 27.728-29.127 55.328-58.12 75.127-78.914 10.966-11.492 2.929-30.568-12.88-30.606z" />
<glyph unicode="&#xe937;" glyph-name="word-cc" horiz-adv-x="933" d="M353.687 338.396h204.274c15.396 0 28.162 12.893 28.162 28.444 0 15.549-12.766 28.064-28.162 28.064h-204.274c-15.396 0-28.162-12.516-28.162-28.064 0-15.551 12.766-28.444 28.162-28.444zM480.609 584.533h-126.921c-15.396 0-28.162-12.893-28.162-28.444 0-15.549 12.766-28.064 28.162-28.064h126.921c15.394 0 28.162 12.516 28.162 28.064 0 15.551-12.768 28.444-28.162 28.444zM748.585 617.695c8.827 0.102 18.437 0.214 27.17 0.214 9.387 0 16.896-7.584 16.896-17.067v-304.924c0-94.056-75.476-170.287-168.6-170.287h-298.901c-97.632 0-177.238 80.022-177.238 178.631v408.84c0 94.057 75.852 171.046 169.351 171.046h200.52c9.764 0 17.274-7.964 17.274-17.446v-122.122c0-69.403 56.702-126.292 125.42-126.672 16.049 0 30.201-0.121 42.585-0.225 9.632-0.082 18.198-0.155 25.757-0.155 5.345 0 12.272 0.080 19.768 0.166zM758.939 673.052c-30.866-0.114-67.252 0-93.425 0.266-41.531 0-75.74 34.55-75.74 76.496v99.973c0 16.346 19.64 24.462 30.868 12.667 20.321-21.342 48.249-50.679 76.049-79.882 27.728-29.127 55.328-58.12 75.127-78.914 10.966-11.492 2.929-30.568-12.88-30.606z" />
</font>
</defs>
</svg>
