<svg width="43" height="45" viewBox="0 0 43 45" fill="none" xmlns="http://www.w3.org/2000/svg">
<g filter="url(#filter0_d_338_10548)">
<path fill-rule="evenodd" clip-rule="evenodd" d="M17.4922 18.7166C16.763 18.7166 16.1865 19.2833 16.1865 20C16.1865 20.7 16.763 21.2833 17.4922 21.2833H27.6666V29.25C27.6666 33.3333 24.2921 36.6666 20.1206 36.6666H11.8623C7.70777 36.6666 4.33325 33.35 4.33325 29.2666V10.75C4.33325 6.64998 7.72473 3.33331 11.8793 3.33331H20.1545C24.2921 3.33331 27.6666 6.64998 27.6666 10.7333V18.7166H17.4922ZM33.7169 14.2336L38.5836 19.0836C38.8336 19.3336 38.9669 19.6503 38.9669 20.0003C38.9669 20.3336 38.8336 20.667 38.5836 20.9003L33.7169 25.7503C33.4669 26.0003 33.1336 26.1336 32.8169 26.1336C32.4836 26.1336 32.1503 26.0003 31.9003 25.7503C31.4003 25.2503 31.4003 24.4336 31.9003 23.9336L34.5669 21.2836H27.6669V18.717H34.5669L31.9003 16.067C31.4003 15.567 31.4003 14.7503 31.9003 14.2503C32.4003 13.7336 33.2169 13.7336 33.7169 14.2336Z" fill="#838E9E"/>
</g>
<defs>
<filter id="filter0_d_338_10548" x="-3" y="0" width="48" height="48" filterUnits="userSpaceOnUse" color-interpolation-filters="sRGB">
<feFlood flood-opacity="0" result="BackgroundImageFix"/>
<feColorMatrix in="SourceAlpha" type="matrix" values="0 0 0 0 0 0 0 0 0 0 0 0 0 0 0 0 0 0 127 0" result="hardAlpha"/>
<feOffset dy="4"/>
<feGaussianBlur stdDeviation="2"/>
<feComposite in2="hardAlpha" operator="out"/>
<feColorMatrix type="matrix" values="0 0 0 0 0 0 0 0 0 0 0 0 0 0 0 0 0 0 0.07 0"/>
<feBlend mode="normal" in2="BackgroundImageFix" result="effect1_dropShadow_338_10548"/>
<feBlend mode="normal" in="SourceGraphic" in2="effect1_dropShadow_338_10548" result="shape"/>
</filter>
</defs>
</svg>
