<svg xmlns="http://www.w3.org/2000/svg" width="1227" height="801" viewBox="0 0 1227 801" fill="none">
<path d="M121.648 111.522C123.437 105.841 128.418 101.756 134.34 101.114L307.899 82.3119C312.933 81.7666 317.902 83.7978 321.113 87.7132L444.385 238.038C447.596 241.954 448.615 247.225 447.094 252.054L394.666 418.57C392.877 424.252 387.896 428.336 381.974 428.978L208.415 447.78C203.381 448.326 198.412 446.295 195.201 442.379L71.9284 292.054C68.7176 288.139 67.6989 282.868 69.2196 278.038L121.648 111.522Z" fill="#FFD27A"/>
<path d="M778.912 638.313C773.511 635.801 770.109 630.331 770.243 624.376L774.169 449.846C774.283 444.783 776.943 440.12 781.243 437.446L946.321 334.768C950.621 332.094 955.979 331.769 960.571 333.905L1118.85 407.541C1124.26 410.054 1127.66 415.524 1127.52 421.479L1123.6 596.009C1123.48 601.071 1120.82 605.734 1116.52 608.409L951.446 711.086C947.146 713.761 941.787 714.085 937.196 711.95L778.912 638.313Z" fill="#FFDD9B"/>
<path d="M54.3207 393.807L99.4325 385.428C104.245 384.534 109.184 386.128 112.565 389.667L149.582 428.413C152.963 431.952 154.331 436.958 153.218 441.725L142.79 486.408C141.481 492.015 136.979 496.317 131.317 497.368L86.2056 505.748C81.3932 506.642 76.4545 505.047 73.0733 501.508L36.0563 462.763C32.675 459.224 31.3075 454.217 32.42 449.451L42.8483 404.768C44.157 399.161 48.6595 394.859 54.3207 393.807Z" fill="white" fill-opacity="0.4" stroke="#F9BE28"/>
<path d="M1132.8 690.696L1132.05 736.573C1131.96 741.467 1129.42 745.99 1125.28 748.6L1079.95 777.173C1075.81 779.783 1070.63 780.128 1066.18 778.09L1024.46 758.984C1019.23 756.587 1015.91 751.319 1016 745.562L1016.76 699.684C1016.84 694.79 1019.38 690.267 1023.52 687.657L1068.86 659.084C1073 656.474 1078.18 656.129 1082.63 658.168L1124.34 677.273C1129.58 679.671 1132.9 684.939 1132.8 690.696Z" fill="white" fill-opacity="0.6" stroke="#F9BE28"/>
</svg>