<svg width="194" height="80" viewBox="0 0 194 80" fill="none" xmlns="http://www.w3.org/2000/svg">
<path d="M65.6951 20.5002C65.5389 20.022 65.3329 19.5935 65.0772 19.2147C64.8263 18.8312 64.5256 18.5045 64.1752 18.2346C63.8296 17.9647 63.4366 17.7588 62.9963 17.6167C62.5559 17.4747 62.073 17.4037 61.5474 17.4037C60.6856 17.4037 59.902 17.6262 59.1965 18.0713C58.491 18.5163 57.93 19.1721 57.5133 20.0386C57.0966 20.9051 56.8883 21.968 56.8883 23.2275C56.8883 24.487 57.099 25.55 57.5204 26.4164C57.9418 27.2829 58.5124 27.9387 59.232 28.3838C59.9517 28.8288 60.7614 29.0514 61.661 29.0514C62.4944 29.0514 63.2283 28.8738 63.8627 28.5187C64.5019 28.1589 64.9991 27.6522 65.3542 26.9988C65.7141 26.3407 65.894 25.5665 65.894 24.6764L66.4338 24.79H62.0588V23.2275H67.5985V24.79C67.5985 25.9879 67.3428 27.0296 66.8315 27.915C66.3249 28.8004 65.6241 29.487 64.7292 29.9747C63.8391 30.4576 62.8163 30.6991 61.661 30.6991C60.3731 30.6991 59.2415 30.3961 58.2661 29.79C57.2955 29.184 56.5379 28.3222 55.9934 27.2048C55.4536 26.0874 55.1838 24.7616 55.1838 23.2275C55.1838 22.0769 55.3376 21.0424 55.6454 20.1238C55.9579 19.2005 56.3982 18.4145 56.9664 17.7659C57.5346 17.1172 58.207 16.62 58.9835 16.2744C59.76 15.9287 60.6146 15.7559 61.5474 15.7559C62.3144 15.7559 63.0294 15.8719 63.6923 16.1039C64.3599 16.3312 64.9541 16.6555 65.4749 17.0769C66.0005 17.4936 66.4385 17.9931 66.7889 18.5755C67.1392 19.1532 67.3807 19.7948 67.5133 20.5002H65.6951ZM74.9618 30.7275C73.9107 30.7275 73.0039 30.4955 72.2416 30.0315C71.4841 29.5627 70.8993 28.9093 70.4874 28.0713C70.0802 27.2285 69.8766 26.2484 69.8766 25.1309C69.8766 24.0135 70.0802 23.0287 70.4874 22.1764C70.8993 21.3194 71.4722 20.6518 72.2061 20.1735C72.9448 19.6906 73.8065 19.4491 74.7914 19.4491C75.3595 19.4491 75.9206 19.5438 76.4746 19.7332C77.0286 19.9226 77.5328 20.2304 77.9874 20.6565C78.4419 21.0779 78.8041 21.6366 79.074 22.3326C79.3439 23.0287 79.4789 23.8857 79.4789 24.9037V25.6139H71.0698V24.165H77.7743C77.7743 23.5495 77.6512 23.0002 77.405 22.5173C77.1635 22.0343 76.8179 21.6532 76.3681 21.3738C75.923 21.0945 75.3974 20.9548 74.7914 20.9548C74.1237 20.9548 73.5461 21.1205 73.0584 21.4519C72.5754 21.7787 72.2038 22.2048 71.9433 22.7304C71.6829 23.2559 71.5527 23.8194 71.5527 24.4207V25.3866C71.5527 26.2105 71.6948 26.9089 71.9789 27.4818C72.2677 28.05 72.6678 28.4832 73.1791 28.7815C73.6905 29.0751 74.2847 29.2218 74.9618 29.2218C75.4021 29.2218 75.7999 29.1603 76.155 29.0372C76.5148 28.9093 76.825 28.7199 77.0854 28.469C77.3458 28.2133 77.547 27.8961 77.6891 27.5173L79.3084 27.9718C79.1379 28.5211 78.8515 29.004 78.449 29.4207C78.0466 29.8326 77.5494 30.1546 76.9575 30.3866C76.3657 30.6139 75.7004 30.7275 74.9618 30.7275ZM86.7729 19.5912V21.0116H81.1195V19.5912H86.7729ZM82.7672 16.9775H84.4433V27.3752C84.4433 27.8487 84.512 28.2038 84.6493 28.4406C84.7914 28.6726 84.9713 28.8288 85.1891 28.9093C85.4116 28.9851 85.646 29.023 85.8922 29.023C86.0769 29.023 86.2284 29.0135 86.3467 28.9946C86.4651 28.9709 86.5598 28.9519 86.6308 28.9377L86.9717 30.4434C86.8581 30.486 86.6995 30.5287 86.4959 30.5713C86.2923 30.6186 86.0342 30.6423 85.7217 30.6423C85.2483 30.6423 84.7842 30.5405 84.3297 30.3369C83.8799 30.1333 83.5058 29.8232 83.2075 29.4065C82.914 28.9898 82.7672 28.4643 82.7672 27.8298V16.9775ZM103.101 19.5912C103.016 18.8715 102.67 18.3127 102.064 17.915C101.458 17.5173 100.715 17.3184 99.834 17.3184C99.19 17.3184 98.6266 17.4226 98.1436 17.6309C97.6654 17.8393 97.2914 18.1257 97.0215 18.4903C96.7563 18.8549 96.6237 19.2692 96.6237 19.7332C96.6237 20.1215 96.7161 20.4553 96.9007 20.7346C97.0901 21.0092 97.3316 21.2389 97.6252 21.4235C97.9187 21.6035 98.2265 21.7526 98.5485 21.871C98.8704 21.9846 99.1664 22.0769 99.4362 22.148L100.914 22.5457C101.292 22.6451 101.714 22.7824 102.178 22.9576C102.646 23.1328 103.094 23.3719 103.52 23.675C103.951 23.9733 104.306 24.3568 104.585 24.8255C104.865 25.2943 105.004 25.8696 105.004 26.5514C105.004 27.3374 104.798 28.0476 104.387 28.6821C103.979 29.3165 103.383 29.8208 102.597 30.1948C101.815 30.5689 100.866 30.7559 99.7487 30.7559C98.7071 30.7559 97.8051 30.5878 97.0428 30.2517C96.2852 29.9155 95.6886 29.4467 95.253 28.8454C94.8221 28.2441 94.5783 27.5457 94.5215 26.7502H96.3396C96.387 27.2995 96.5717 27.754 96.8936 28.1139C97.2203 28.469 97.6323 28.7341 98.1294 28.9093C98.6313 29.0798 99.1711 29.165 99.7487 29.165C100.421 29.165 101.025 29.0561 101.56 28.8383C102.095 28.6158 102.519 28.308 102.831 27.915C103.144 27.5173 103.3 27.0533 103.3 26.523C103.3 26.04 103.165 25.647 102.895 25.344C102.625 25.041 102.27 24.7948 101.83 24.6054C101.389 24.416 100.914 24.2502 100.402 24.1082L98.6124 23.5968C97.476 23.2701 96.5764 22.8037 95.9135 22.1977C95.2506 21.5916 94.9192 20.7985 94.9192 19.8184C94.9192 19.004 95.1394 18.2938 95.5797 17.6877C96.0248 17.0769 96.6214 16.6035 97.3695 16.2673C98.1223 15.9264 98.9628 15.7559 99.8908 15.7559C100.828 15.7559 101.662 15.924 102.391 16.2602C103.12 16.5916 103.698 17.0462 104.124 17.6238C104.555 18.2015 104.782 18.8573 104.806 19.5912H103.101ZM112.417 19.5912V21.0116H106.764V19.5912H112.417ZM108.412 16.9775H110.088V27.3752C110.088 27.8487 110.157 28.2038 110.294 28.4406C110.436 28.6726 110.616 28.8288 110.834 28.9093C111.056 28.9851 111.291 29.023 111.537 29.023C111.721 29.023 111.873 29.0135 111.991 28.9946C112.11 28.9709 112.204 28.9519 112.275 28.9377L112.616 30.4434C112.503 30.486 112.344 30.5287 112.14 30.5713C111.937 30.6186 111.679 30.6423 111.366 30.6423C110.893 30.6423 110.429 30.5405 109.974 30.3369C109.524 30.1333 109.15 29.8232 108.852 29.4065C108.559 28.9898 108.412 28.4643 108.412 27.8298V16.9775ZM118.149 30.7559C117.458 30.7559 116.83 30.6257 116.267 30.3653C115.703 30.1001 115.256 29.719 114.925 29.2218C114.593 28.7199 114.427 28.1139 114.427 27.4037C114.427 26.7787 114.55 26.272 114.797 25.8838C115.043 25.4908 115.372 25.183 115.784 24.9605C116.196 24.7379 116.65 24.5722 117.148 24.4633C117.649 24.3497 118.154 24.2597 118.66 24.1934C119.323 24.1082 119.861 24.0443 120.273 24.0017C120.689 23.9543 120.992 23.8762 121.182 23.7673C121.376 23.6584 121.473 23.469 121.473 23.1991V23.1423C121.473 22.4415 121.281 21.897 120.898 21.5088C120.519 21.1205 119.943 20.9264 119.172 20.9264C118.371 20.9264 117.744 21.1016 117.29 21.4519C116.835 21.8023 116.515 22.1764 116.331 22.5741L114.74 22.0059C115.024 21.343 115.403 20.8269 115.876 20.4576C116.354 20.0836 116.875 19.8232 117.439 19.6764C118.007 19.5249 118.566 19.4491 119.115 19.4491C119.465 19.4491 119.868 19.4917 120.322 19.5769C120.782 19.6574 121.224 19.8255 121.65 20.0812C122.081 20.3369 122.439 20.7228 122.723 21.2389C123.007 21.755 123.149 22.4463 123.149 23.3127V30.5002H121.473V29.023H121.388C121.274 29.2597 121.085 29.513 120.819 29.7829C120.554 30.0528 120.202 30.2824 119.761 30.4718C119.321 30.6612 118.783 30.7559 118.149 30.7559ZM118.405 29.2502C119.068 29.2502 119.626 29.12 120.081 28.8596C120.54 28.5992 120.886 28.263 121.118 27.8511C121.354 27.4392 121.473 27.0059 121.473 26.5514V25.0173C121.402 25.1025 121.246 25.1806 121.004 25.2517C120.767 25.318 120.493 25.3771 120.18 25.4292C119.872 25.4766 119.572 25.5192 119.278 25.5571C118.989 25.5902 118.755 25.6186 118.575 25.6423C118.139 25.6991 117.732 25.7914 117.353 25.9193C116.979 26.0424 116.676 26.2294 116.444 26.4804C116.217 26.7266 116.103 27.0627 116.103 27.4889C116.103 28.0713 116.319 28.5116 116.75 28.8099C117.185 29.1035 117.737 29.2502 118.405 29.2502ZM126.208 30.5002V19.5912H127.828V21.2389H127.941C128.14 20.6991 128.5 20.2611 129.021 19.925C129.542 19.5888 130.129 19.4207 130.782 19.4207C130.905 19.4207 131.059 19.4231 131.244 19.4278C131.428 19.4325 131.568 19.4396 131.663 19.4491V21.1537C131.606 21.1394 131.476 21.1181 131.272 21.0897C131.073 21.0566 130.863 21.04 130.64 21.04C130.11 21.04 129.636 21.1513 129.22 21.3738C128.808 21.5916 128.481 21.8947 128.24 22.2829C128.003 22.6664 127.884 23.1044 127.884 23.5968V30.5002H126.208ZM139.078 19.5912V21.0116H133.424V19.5912H139.078ZM135.072 16.9775H136.748V27.3752C136.748 27.8487 136.817 28.2038 136.954 28.4406C137.096 28.6726 137.276 28.8288 137.494 28.9093C137.716 28.9851 137.951 29.023 138.197 29.023C138.382 29.023 138.533 29.0135 138.651 28.9946C138.77 28.9709 138.865 28.9519 138.936 28.9377L139.276 30.4434C139.163 30.486 139.004 30.5287 138.801 30.5713C138.597 30.6186 138.339 30.6423 138.026 30.6423C137.553 30.6423 137.089 30.5405 136.634 30.3369C136.185 30.1333 135.811 29.8232 135.512 29.4065C135.219 28.9898 135.072 28.4643 135.072 27.8298V16.9775Z" fill="white"/>
<path d="M65.6951 20.5002L64.7446 20.8108L64.9698 21.5002H65.6951V20.5002ZM65.0772 19.2147L64.2404 19.7623L64.2444 19.7683L64.2484 19.7742L65.0772 19.2147ZM64.1752 18.2346L63.5598 19.0228L63.565 19.0268L64.1752 18.2346ZM62.9963 17.6167L63.3033 16.665L63.3033 16.665L62.9963 17.6167ZM57.5133 20.0386L58.4145 20.472L57.5133 20.0386ZM57.5204 26.4164L56.6211 26.8538V26.8538L57.5204 26.4164ZM59.232 28.3838L58.7061 29.2343L59.232 28.3838ZM63.8627 28.5187L64.3511 29.3913L64.3533 29.3901L63.8627 28.5187ZM65.3542 26.9988L64.4768 26.5191L64.4756 26.5213L65.3542 26.9988ZM65.894 24.6764L66.1 23.6978L64.894 23.4439V24.6764H65.894ZM66.4338 24.79V25.79L66.6398 23.8115L66.4338 24.79ZM62.0588 24.79H61.0588V25.79H62.0588V24.79ZM62.0588 23.2275V22.2275H61.0588V23.2275H62.0588ZM67.5985 23.2275H68.5985V22.2275H67.5985V23.2275ZM66.8315 27.915L65.9655 27.4149L65.9635 27.4184L66.8315 27.915ZM64.7292 29.9747L65.2061 30.8536L65.2077 30.8527L64.7292 29.9747ZM58.2661 29.79L57.7365 30.6383L57.7384 30.6394L58.2661 29.79ZM55.9934 27.2048L55.093 27.6398L55.0945 27.6428L55.9934 27.2048ZM55.6454 20.1238L54.6982 19.8032L54.6972 19.8061L55.6454 20.1238ZM56.9664 17.7659L57.7187 18.4248L56.9664 17.7659ZM58.9835 16.2744L58.5768 15.3608L58.9835 16.2744ZM63.6923 16.1039L63.3619 17.0478L63.37 17.0506L63.6923 16.1039ZM65.4749 17.0769L64.8459 17.8544L64.8537 17.8606L65.4749 17.0769ZM66.7889 18.5755L65.932 19.0911L65.9339 19.0941L66.7889 18.5755ZM67.5133 20.5002V21.5002H68.7187L68.4961 20.3156L67.5133 20.5002ZM66.6457 20.1897C66.4635 19.632 66.2186 19.1183 65.9061 18.6553L64.2484 19.7742C64.4472 20.0688 64.6143 20.412 64.7446 20.8108L66.6457 20.1897ZM65.914 18.6672C65.604 18.1935 65.2277 17.7831 64.7855 17.4424L63.565 19.0268C63.8235 19.226 64.0485 19.469 64.2404 19.7623L65.914 18.6672ZM64.7907 17.4464C64.3476 17.1005 63.849 16.8411 63.3033 16.665L62.6892 18.5684C63.0242 18.6765 63.3116 18.829 63.5598 19.0228L64.7907 17.4464ZM63.3033 16.665C62.7513 16.487 62.1632 16.4037 61.5474 16.4037V18.4037C61.9827 18.4037 62.3605 18.4624 62.6893 18.5684L63.3033 16.665ZM61.5474 16.4037C60.5034 16.4037 59.5337 16.6762 58.663 17.2255L59.7301 18.917C60.2704 18.5762 60.8679 18.4037 61.5474 18.4037V16.4037ZM58.663 17.2255C57.7756 17.7853 57.0975 18.5959 56.6121 19.6052L58.4145 20.472C58.7625 19.7484 59.2065 19.2473 59.7301 18.917L58.663 17.2255ZM56.6121 19.6052C56.1135 20.6421 55.8883 21.8626 55.8883 23.2275H57.8883C57.8883 22.0735 58.0798 21.1681 58.4145 20.472L56.6121 19.6052ZM55.8883 23.2275C55.8883 24.5938 56.1163 25.8159 56.6211 26.8538L58.4197 25.9791C58.0817 25.2841 57.8883 24.3802 57.8883 23.2275H55.8883ZM56.6211 26.8538C57.1136 27.8663 57.8039 28.6763 58.7061 29.2343L59.758 27.5333C59.2208 27.2011 58.7701 26.6995 58.4197 25.9791L56.6211 26.8538ZM58.7061 29.2343C59.5939 29.7833 60.5878 30.0514 61.661 30.0514V28.0514C60.935 28.0514 60.3096 27.8744 59.758 27.5333L58.7061 29.2343ZM61.661 30.0514C62.6401 30.0514 63.5468 29.8415 64.3511 29.3913L63.3743 27.6461C62.9097 27.9061 62.3486 28.0514 61.661 28.0514V30.0514ZM64.3533 29.3901C65.1587 28.9367 65.7893 28.2925 66.2328 27.4763L64.4756 26.5213C64.2089 27.012 63.8452 27.381 63.3722 27.6473L64.3533 29.3901ZM66.2316 27.4786C66.6857 26.6481 66.894 25.7029 66.894 24.6764H64.894C64.894 25.4302 64.7424 26.0333 64.4768 26.5191L66.2316 27.4786ZM65.688 25.6549L66.2277 25.7686L66.6398 23.8115L66.1 23.6978L65.688 25.6549ZM66.4338 23.79H62.0588V25.79H66.4338V23.79ZM63.0588 24.79V23.2275H61.0588V24.79H63.0588ZM62.0588 24.2275H67.5985V22.2275H62.0588V24.2275ZM66.5985 23.2275V24.79H68.5985V23.2275H66.5985ZM66.5985 24.79C66.5985 25.8427 66.375 26.7058 65.9655 27.4149L67.6974 28.4151C68.3107 27.3534 68.5985 26.1331 68.5985 24.79H66.5985ZM65.9635 27.4184C65.5488 28.1432 64.9828 28.6976 64.2507 29.0966L65.2077 30.8527C66.2654 30.2763 67.1009 29.4577 67.6994 28.4117L65.9635 27.4184ZM64.2523 29.0957C63.5281 29.4886 62.6735 29.6991 61.661 29.6991V31.6991C62.9592 31.6991 64.15 31.4266 65.2061 30.8536L64.2523 29.0957ZM61.661 29.6991C60.5364 29.6991 59.5922 29.4366 58.7939 28.9406L57.7384 30.6394C58.8909 31.3555 60.2099 31.6991 61.661 31.6991V29.6991ZM58.7958 28.9418C57.998 28.4436 57.362 27.7306 56.8924 26.7667L55.0945 27.6428C55.7138 28.9138 56.593 29.9243 57.7365 30.6382L58.7958 28.9418ZM56.8939 26.7698C56.4332 25.8162 56.1838 24.6458 56.1838 23.2275H54.1838C54.1838 24.8774 54.474 26.3585 55.093 27.6398L56.8939 26.7698ZM56.1838 23.2275C56.1838 22.1652 56.3259 21.2405 56.5936 20.4415L54.6972 19.8061C54.3494 20.8442 54.1838 21.9887 54.1838 23.2275H56.1838ZM56.5926 20.4444C56.8685 19.6294 57.2476 18.9625 57.7187 18.4248L56.2142 17.107C55.5488 17.8666 55.0473 18.7716 54.6982 19.8032L56.5926 20.4444ZM57.7187 18.4248C58.1929 17.8834 58.7479 17.4739 59.3901 17.188L58.5768 15.3608C57.6661 15.7662 56.8763 16.351 56.2142 17.107L57.7187 18.4248ZM59.3901 17.188C60.0266 16.9046 60.741 16.7559 61.5474 16.7559V14.7559C60.4883 14.7559 59.4933 14.9528 58.5768 15.3608L59.3901 17.188ZM61.5474 16.7559C62.2123 16.7559 62.8146 16.8562 63.3619 17.0478L64.0226 15.1601C63.2442 14.8876 62.4166 14.7559 61.5474 14.7559V16.7559ZM63.37 17.0506C63.9321 17.242 64.4213 17.5108 64.846 17.8544L66.1039 16.2995C65.4869 15.8003 64.7876 15.4205 64.0145 15.1573L63.37 17.0506ZM64.8537 17.8606C65.284 18.2017 65.6426 18.61 65.932 19.091L67.6457 18.06C67.2344 17.3763 66.717 16.7855 66.0962 16.2933L64.8537 17.8606ZM65.9339 19.0941C66.2181 19.5628 66.4187 20.0901 66.5305 20.6849L68.4961 20.3156C68.3427 19.4994 68.0604 18.7436 67.6439 18.0569L65.9339 19.0941ZM67.5133 19.5002H65.6951V21.5002H67.5133V19.5002ZM72.2416 30.0315L71.7154 30.8819L71.7217 30.8857L72.2416 30.0315ZM70.4874 28.0713L69.5869 28.5063L69.5899 28.5124L70.4874 28.0713ZM70.4874 22.1764L69.5861 21.7432L69.5851 21.7453L70.4874 22.1764ZM72.2061 20.1735L72.7521 21.0114L72.7534 21.0105L72.2061 20.1735ZM76.4746 19.7332L76.7981 18.787L76.4746 19.7332ZM77.9874 20.6565L77.3034 21.386L77.3075 21.3898L77.9874 20.6565ZM79.074 22.3326L80.0064 21.9711L79.074 22.3326ZM79.4789 25.6139V26.6139H80.4789V25.6139H79.4789ZM71.0698 25.6139H70.0698V26.6139H71.0698V25.6139ZM71.0698 24.165V23.165H70.0698V24.165H71.0698ZM77.7743 24.165V25.165H78.7743V24.165H77.7743ZM77.405 22.5173L76.5105 22.9645L76.5141 22.9715L77.405 22.5173ZM76.3681 21.3738L75.8364 22.2208L75.8405 22.2233L76.3681 21.3738ZM73.0584 21.4519L73.6187 22.2802L73.6205 22.279L73.0584 21.4519ZM71.9433 22.7304L71.0473 22.2864V22.2864L71.9433 22.7304ZM71.9789 27.4818L71.0829 27.9261L71.0874 27.9349L71.9789 27.4818ZM73.1791 28.7815L72.6753 29.6453L72.6813 29.6487L73.1791 28.7815ZM76.155 29.0372L76.4825 29.982L76.4898 29.9795L76.155 29.0372ZM77.0854 28.469L77.7793 29.1891L77.786 29.1826L77.0854 28.469ZM77.6891 27.5173L77.9593 26.5545L77.0752 26.3063L76.7527 27.1662L77.6891 27.5173ZM79.3084 27.9718L80.2635 28.2682L80.5681 27.2868L79.5787 27.009L79.3084 27.9718ZM78.449 29.4207L79.1643 30.1195L79.1683 30.1154L78.449 29.4207ZM76.9575 30.3866L77.316 31.3202L77.3225 31.3176L76.9575 30.3866ZM74.9618 29.7275C74.0611 29.7275 73.3413 29.5301 72.7616 29.1773L71.7217 30.8857C72.6666 31.4609 73.7603 31.7275 74.9618 31.7275V29.7275ZM72.7678 29.1811C72.1779 28.8161 71.7181 28.3082 71.3848 27.6301L69.5899 28.5124C70.0805 29.5105 70.7903 30.3094 71.7155 30.8819L72.7678 29.1811ZM71.3878 27.6362C71.0576 26.9529 70.8766 26.1266 70.8766 25.1309H68.8766C68.8766 26.3701 69.1027 27.504 69.587 28.5063L71.3878 27.6362ZM70.8766 25.1309C70.8766 24.1356 71.0575 23.3027 71.3897 22.6075L69.5851 21.7453C69.1028 22.7546 68.8766 23.8914 68.8766 25.1309H70.8766ZM71.3887 22.6096C71.7284 21.9028 72.1844 21.3813 72.7521 21.0114L71.6602 19.3357C70.76 19.9223 70.0702 20.7359 69.5861 21.7432L71.3887 22.6096ZM72.7534 21.0105C73.3108 20.646 73.9776 20.4491 74.7914 20.4491V18.4491C73.6355 18.4491 72.5787 18.7352 71.6589 19.3366L72.7534 21.0105ZM74.7914 20.4491C75.2461 20.4491 75.6981 20.5245 76.1511 20.6794L76.7981 18.787C76.1432 18.5631 75.4729 18.4491 74.7914 18.4491V20.4491ZM76.1511 20.6794C76.5624 20.8201 76.9456 21.0505 77.3034 21.386L78.6713 19.927C78.1201 19.4102 77.4947 19.0251 76.7981 18.787L76.1511 20.6794ZM77.3075 21.3898C77.6303 21.6891 77.9156 22.1111 78.1417 22.6942L80.0064 21.9711C79.6927 21.1621 79.2535 20.4667 78.6672 19.9232L77.3075 21.3898ZM78.1417 22.6942C78.3538 23.2413 78.4789 23.9673 78.4789 24.9037H80.4789C80.4789 23.804 80.334 22.816 80.0064 21.9711L78.1417 22.6942ZM78.4789 24.9037V25.6139H80.4789V24.9037H78.4789ZM79.4789 24.6139H71.0698V26.6139H79.4789V24.6139ZM72.0698 25.6139V24.165H70.0698V25.6139H72.0698ZM71.0698 25.165H77.7743V23.165H71.0698V25.165ZM78.7743 24.165C78.7743 23.4132 78.623 22.7047 78.2959 22.0631L76.5141 22.9715C76.6794 23.2957 76.7743 23.6858 76.7743 24.165H78.7743ZM78.2994 22.0701C77.9769 21.4251 77.5058 20.9033 76.8956 20.5243L75.8405 22.2233C76.1299 22.4031 76.3501 22.6435 76.5106 22.9645L78.2994 22.0701ZM76.8997 20.5268C76.2721 20.1329 75.556 19.9548 74.7914 19.9548V21.9548C75.2388 21.9548 75.5739 22.056 75.8364 22.2208L76.8997 20.5268ZM74.7914 19.9548C73.9507 19.9548 73.1711 20.1663 72.4963 20.6249L73.6205 22.279C73.9211 22.0748 74.2968 21.9548 74.7914 21.9548V19.9548ZM72.4981 20.6237C71.871 21.0479 71.384 21.6068 71.0473 22.2864L72.8394 23.1743C73.0235 22.8028 73.2799 22.5094 73.6187 22.2802L72.4981 20.6237ZM71.0473 22.2864C70.7167 22.9535 70.5527 23.6694 70.5527 24.4207H72.5527C72.5527 23.9694 72.6491 23.5583 72.8394 23.1743L71.0473 22.2864ZM70.5527 24.4207V25.3866H72.5527V24.4207H70.5527ZM70.5527 25.3866C70.5527 26.3216 70.7136 27.1811 71.0829 27.926L72.8748 27.0375C72.676 26.6366 72.5527 26.0993 72.5527 25.3866H70.5527ZM71.0874 27.9349C71.4563 28.6607 71.9852 29.2427 72.6753 29.6453L73.683 27.9177C73.3504 27.7237 73.079 27.4393 72.8703 27.0286L71.0874 27.9349ZM72.6813 29.6487C73.3654 30.0415 74.1363 30.2218 74.9618 30.2218V28.2218C74.4332 28.2218 74.0156 28.1086 73.677 27.9142L72.6813 29.6487ZM74.9618 30.2218C75.4949 30.2218 76.0057 30.1473 76.4825 29.982L75.8274 28.0923C75.594 28.1733 75.3094 28.2218 74.9618 28.2218V30.2218ZM76.4898 29.9795C76.9761 29.8067 77.4106 29.5443 77.7793 29.1891L76.3915 27.7489C76.2393 27.8956 76.0536 28.012 75.8202 28.0949L76.4898 29.9795ZM77.786 29.1826C78.1613 28.8141 78.4378 28.3688 78.6254 27.8684L76.7527 27.1662C76.6563 27.4233 76.5303 27.6125 76.3848 27.7554L77.786 29.1826ZM77.4188 28.4801L79.0381 28.9346L79.5787 27.009L77.9593 26.5545L77.4188 28.4801ZM78.3533 27.6754C78.2296 28.0741 78.0244 28.4209 77.7298 28.726L79.1683 30.1154C79.6786 29.5871 80.0463 28.968 80.2635 28.2682L78.3533 27.6754ZM77.7337 28.7219C77.4401 29.0224 77.0663 29.2699 76.5926 29.4556L77.3225 31.3176C78.0325 31.0393 78.653 30.6429 79.1643 30.1195L77.7337 28.7219ZM76.5991 29.4531C76.1388 29.6298 75.5978 29.7275 74.9618 29.7275V31.7275C75.8031 31.7275 76.5925 31.598 77.316 31.3201L76.5991 29.4531ZM86.7729 19.5912H87.7729V18.5912H86.7729V19.5912ZM86.7729 21.0116V22.0116H87.7729V21.0116H86.7729ZM81.1195 21.0116H80.1195V22.0116H81.1195V21.0116ZM81.1195 19.5912V18.5912H80.1195V19.5912H81.1195ZM82.7672 16.9775V15.9775H81.7672V16.9775H82.7672ZM84.4433 16.9775H85.4433V15.9775H84.4433V16.9775ZM84.6493 28.4406L83.7843 28.9423L83.7902 28.9526L83.7965 28.9627L84.6493 28.4406ZM85.1891 28.9093L84.8424 29.8473L84.8546 29.8518L84.8668 29.856L85.1891 28.9093ZM86.3467 28.9946L86.5047 29.982L86.5239 29.9789L86.5429 29.9751L86.3467 28.9946ZM86.6308 28.9377L87.6062 28.7169L87.3908 27.7659L86.4347 27.9572L86.6308 28.9377ZM86.9717 30.4434L87.3229 31.3798L88.1397 31.0734L87.9471 30.2226L86.9717 30.4434ZM86.4959 30.5713L86.291 29.5925L86.2802 29.5947L86.2694 29.5973L86.4959 30.5713ZM84.3297 30.3369L83.9173 31.2479L83.9209 31.2495L84.3297 30.3369ZM83.2075 29.4065L82.39 29.9825L82.3944 29.9886L83.2075 29.4065ZM85.7729 19.5912V21.0116H87.7729V19.5912H85.7729ZM86.7729 20.0116H81.1195V22.0116H86.7729V20.0116ZM82.1195 21.0116V19.5912H80.1195V21.0116H82.1195ZM81.1195 20.5912H86.7729V18.5912H81.1195V20.5912ZM82.7672 17.9775H84.4433V15.9775H82.7672V17.9775ZM83.4433 16.9775V27.3752H85.4433V16.9775H83.4433ZM83.4433 27.3752C83.4433 27.9126 83.5155 28.4789 83.7843 28.9423L85.5143 27.9389C85.5165 27.9427 85.4962 27.9079 85.4767 27.8069C85.4575 27.7076 85.4433 27.5666 85.4433 27.3752H83.4433ZM83.7965 28.9627C84.0348 29.352 84.3792 29.6761 84.8424 29.8473L85.5357 27.9713C85.5383 27.9723 85.5414 27.9737 85.5443 27.9755C85.5472 27.9772 85.5479 27.978 85.5465 27.9767C85.5438 27.9744 85.5272 27.9593 85.5022 27.9184L83.7965 28.9627ZM84.8668 29.856C85.198 29.9687 85.5416 30.023 85.8922 30.023V28.023C85.7504 28.023 85.6253 28.0015 85.5113 27.9627L84.8668 29.856ZM85.8922 30.023C86.1048 30.023 86.3142 30.0125 86.5047 29.982L86.1888 28.0071C86.1426 28.0145 86.049 28.023 85.8922 28.023V30.023ZM86.5429 29.9751C86.6612 29.9515 86.7559 29.9325 86.827 29.9183L86.4347 27.9572C86.3637 27.9714 86.269 27.9903 86.1506 28.014L86.5429 29.9751ZM85.6555 29.1586L85.9964 30.6643L87.9471 30.2226L87.6062 28.7169L85.6555 29.1586ZM86.6206 29.5071C86.5764 29.5237 86.4746 29.5541 86.291 29.5925L86.7008 31.5501C86.9244 31.5033 87.1398 31.4484 87.3229 31.3798L86.6206 29.5071ZM86.2694 29.5973C86.1669 29.6211 85.9916 29.6423 85.7217 29.6423V31.6423C86.0769 31.6423 86.4177 31.6161 86.7224 31.5453L86.2694 29.5973ZM85.7217 29.6423C85.3964 29.6423 85.0713 29.5733 84.7385 29.4243L83.9209 31.2495C84.4972 31.5077 85.1001 31.6423 85.7217 31.6423V29.6423ZM84.7421 29.4259C84.4586 29.2976 84.2206 29.1037 84.0207 28.8244L82.3944 29.9886C82.791 30.5426 83.3011 30.969 83.9173 31.2479L84.7421 29.4259ZM84.025 28.8305C83.8765 28.6198 83.7672 28.309 83.7672 27.8298H81.7672C81.7672 28.6195 81.9514 29.3599 82.3901 29.9824L84.025 28.8305ZM83.7672 27.8298V16.9775H81.7672V27.8298H83.7672ZM103.101 19.5912L102.108 19.7088L102.212 20.5912H103.101V19.5912ZM102.064 17.915L101.515 18.7511L102.064 17.915ZM98.1436 17.6309L97.7475 16.7127L97.7442 16.7141L98.1436 17.6309ZM97.0215 18.4903L96.2177 17.8953L96.2127 17.9021L97.0215 18.4903ZM96.9007 20.7346L96.0665 21.2861L96.0719 21.2943L96.0775 21.3024L96.9007 20.7346ZM97.6252 21.4235L97.0927 22.2701L97.1026 22.2761L97.6252 21.4235ZM98.5485 21.871L98.2034 22.8096L98.2156 22.814L98.5485 21.871ZM99.4362 22.148L99.6962 21.1823L99.6907 21.1809L99.4362 22.148ZM100.914 22.5457L100.654 23.5113L100.66 23.5129L100.914 22.5457ZM102.178 22.9576L101.825 23.8932L101.828 23.8943L102.178 22.9576ZM103.52 23.675L102.94 24.49L102.951 24.4972L103.52 23.675ZM104.585 24.8255L105.444 24.3136V24.3136L104.585 24.8255ZM104.387 28.6821L103.548 28.1375L103.545 28.1419L104.387 28.6821ZM102.597 30.1948L102.167 29.2919L102.165 29.2929L102.597 30.1948ZM97.0428 30.2517L96.6372 31.1657L96.6393 31.1666L97.0428 30.2517ZM95.253 28.8454L94.4401 29.4279L94.4432 29.4321L95.253 28.8454ZM94.5215 26.7502V25.7502H93.4475L93.524 26.8215L94.5215 26.7502ZM96.3396 26.7502L97.336 26.6644L97.2571 25.7502H96.3396V26.7502ZM96.8936 28.1139L96.1483 28.7807L96.1577 28.7909L96.8936 28.1139ZM98.1294 28.9093L97.7971 29.8526L97.8078 29.8562L98.1294 28.9093ZM101.56 28.8383L101.937 29.7645L101.944 29.7616L101.56 28.8383ZM102.831 27.915L103.614 28.5374L103.617 28.5328L102.831 27.915ZM102.895 25.344L103.642 24.6789L102.895 25.344ZM101.83 24.6054L101.435 25.524V25.524L101.83 24.6054ZM100.402 24.1082L100.127 25.0697L100.135 25.0717L100.402 24.1082ZM98.6124 23.5968L98.3361 24.5579L98.3377 24.5584L98.6124 23.5968ZM95.9135 22.1977L95.2387 22.9357V22.9357L95.9135 22.1977ZM95.5797 17.6877L94.7715 17.0988L94.7707 17.0999L95.5797 17.6877ZM97.3695 16.2673L97.7794 17.1794L97.782 17.1782L97.3695 16.2673ZM102.391 16.2602L101.972 17.1683L101.977 17.1706L102.391 16.2602ZM104.124 17.6238L103.319 18.2175L103.322 18.2217L104.124 17.6238ZM104.806 19.5912V20.5912H105.838L105.805 19.5589L104.806 19.5912ZM104.094 19.4736C103.974 18.4604 103.466 17.6387 102.613 17.079L101.515 18.7511C101.875 18.9868 102.057 19.2825 102.108 19.7088L104.094 19.4736ZM102.613 17.079C101.812 16.5532 100.867 16.3184 99.834 16.3184V18.3184C100.562 18.3184 101.104 18.4814 101.515 18.7511L102.613 17.079ZM99.834 16.3184C99.0836 16.3184 98.3803 16.4398 97.7475 16.7127L98.5397 18.5491C98.8729 18.4054 99.2965 18.3184 99.834 18.3184V16.3184ZM97.7442 16.7141C97.1298 16.9818 96.6067 17.3699 96.2177 17.8953L97.8252 19.0853C97.9761 18.8815 98.201 18.6967 98.543 18.5477L97.7442 16.7141ZM96.2127 17.9021C95.8194 18.4429 95.6237 19.0645 95.6237 19.7332H97.6237C97.6237 19.4739 97.6932 19.2668 97.8302 19.0785L96.2127 17.9021ZM95.6237 19.7332C95.6237 20.2855 95.7573 20.8183 96.0665 21.2861L97.7349 20.1832C97.6748 20.0922 97.6237 19.9574 97.6237 19.7332H95.6237ZM96.0775 21.3024C96.347 21.6931 96.689 22.016 97.0927 22.27L98.1576 20.5771C97.9742 20.4617 97.8333 20.3254 97.7239 20.1669L96.0775 21.3024ZM97.1026 22.2761C97.4521 22.4904 97.8193 22.6684 98.2034 22.8096L98.8935 20.9324C98.6336 20.8369 98.3853 20.7166 98.1477 20.5709L97.1026 22.2761ZM98.2156 22.814C98.5579 22.9348 98.8804 23.0357 99.1817 23.115L99.6907 21.1809C99.4523 21.1182 99.1829 21.0345 98.8813 20.928L98.2156 22.814ZM99.1763 23.1136L100.654 23.5113L101.173 21.5801L99.6962 21.1824L99.1763 23.1136ZM100.66 23.5129C100.997 23.6016 101.385 23.7272 101.825 23.8932L102.531 22.0221C102.042 21.8377 101.587 21.6887 101.167 21.5785L100.66 23.5129ZM101.828 23.8943C102.211 24.0378 102.582 24.235 102.941 24.4899L104.1 22.86C103.606 22.5089 103.082 22.2279 102.528 22.0209L101.828 23.8943ZM102.951 24.4972C103.259 24.7106 103.517 24.9865 103.726 25.3375L105.444 24.3136C105.095 23.7271 104.643 23.2359 104.089 22.8528L102.951 24.4972ZM103.726 25.3375C103.893 25.6171 104.004 26.0052 104.004 26.5514H106.004C106.004 25.7339 105.836 24.9714 105.444 24.3136L103.726 25.3375ZM104.004 26.5514C104.004 27.152 103.85 27.6717 103.548 28.1375L105.225 29.2266C105.747 28.4235 106.004 27.5227 106.004 26.5514H104.004ZM103.545 28.1419C103.253 28.5964 102.811 28.9854 102.167 29.2919L103.026 31.0978C103.954 30.6562 104.705 30.0367 105.228 29.2222L103.545 28.1419ZM102.165 29.2929C101.552 29.5865 100.758 29.7559 99.7487 29.7559V31.7559C100.974 31.7559 102.079 31.5513 103.029 31.0968L102.165 29.2929ZM99.7487 29.7559C98.8123 29.7559 98.0539 29.6046 97.4463 29.3367L96.6393 31.1666C97.5563 31.571 98.6018 31.7559 99.7487 31.7559V29.7559ZM97.4484 29.3376C96.8329 29.0645 96.3833 28.7011 96.0628 28.2588L94.4432 29.4321C94.9939 30.1924 95.7375 30.7665 96.6372 31.1657L97.4484 29.3376ZM96.0659 28.263C95.7509 27.8234 95.5637 27.3052 95.5189 26.679L93.524 26.8215C93.5929 27.7862 93.8933 28.6647 94.4401 29.4279L96.0659 28.263ZM94.5215 27.7502H96.3396V25.7502H94.5215V27.7502ZM95.3433 26.8361C95.4065 27.5692 95.6621 28.2371 96.1484 28.7807L97.6389 27.4471C97.4813 27.2709 97.3675 27.0298 97.336 26.6644L95.3433 26.8361ZM96.1577 28.7909C96.6051 29.2773 97.1602 29.6281 97.7971 29.8525L98.4618 27.9662C98.1043 27.8402 97.8355 27.6607 97.6296 27.4368L96.1577 28.7909ZM97.8078 29.8562C98.4222 30.0649 99.0715 30.165 99.7487 30.165V28.165C99.2707 28.165 98.8404 28.0947 98.451 27.9625L97.8078 29.8562ZM99.7487 30.165C100.529 30.165 101.264 30.0384 101.937 29.7645L101.183 27.9121C100.785 28.0739 100.313 28.165 99.7487 28.165V30.165ZM101.944 29.7616C102.611 29.4842 103.181 29.082 103.614 28.5374L102.048 27.2926C101.856 27.534 101.579 27.7473 101.176 27.915L101.944 29.7616ZM103.617 28.5328C104.075 27.95 104.3 27.2657 104.3 26.523H102.3C102.3 26.8409 102.212 27.0846 102.045 27.2972L103.617 28.5328ZM104.3 26.523C104.3 25.844 104.105 25.1988 103.642 24.6789L102.148 26.0091C102.225 26.0953 102.3 26.2361 102.3 26.523H104.3ZM103.642 24.6789C103.259 24.2486 102.775 23.9235 102.225 23.6867L101.435 25.524C101.765 25.666 101.992 25.8333 102.148 26.0091L103.642 24.6789ZM102.225 23.6867C101.739 23.4777 101.22 23.2975 100.67 23.1447L100.135 25.0717C100.607 25.203 101.04 25.3542 101.435 25.524L102.225 23.6867ZM100.677 23.1467L98.8871 22.6353L98.3377 24.5584L100.127 25.0697L100.677 23.1467ZM98.8887 22.6358C97.8555 22.3387 97.1072 21.9341 96.5883 21.4597L95.2387 22.9357C96.0456 23.6734 97.0965 24.2015 98.3361 24.5579L98.8887 22.6358ZM96.5883 21.4597C96.1528 21.0615 95.9192 20.5464 95.9192 19.8184H93.9192C93.9192 21.0507 94.3484 22.1217 95.2387 22.9357L96.5883 21.4597ZM95.9192 19.8184C95.9192 19.1958 96.0834 18.6957 96.3887 18.2755L94.7707 17.0999C94.1953 17.8919 93.9192 18.8123 93.9192 19.8184H95.9192ZM96.3879 18.2767C96.7219 17.8182 97.1759 17.4506 97.7794 17.1794L96.9596 15.3552C96.0668 15.7563 95.3276 16.3356 94.7715 17.0988L96.3879 18.2767ZM97.782 17.1782C98.3901 16.9029 99.0875 16.7559 99.8908 16.7559V14.7559C98.838 14.7559 97.8545 14.9499 96.957 15.3563L97.782 17.1782ZM99.8908 16.7559C100.708 16.7559 101.394 16.902 101.972 17.1683L102.809 15.3521C101.929 14.946 100.949 14.7559 99.8908 14.7559V16.7559ZM101.977 17.1706C102.569 17.4398 103.005 17.7923 103.319 18.2175L104.928 17.0302C104.39 16.3 103.671 15.7435 102.805 15.3498L101.977 17.1706ZM103.322 18.2217C103.628 18.6322 103.789 19.0897 103.806 19.6234L105.805 19.5589C105.775 18.6248 105.481 17.7707 104.925 17.0259L103.322 18.2217ZM104.806 18.5912H103.101V20.5912H104.806V18.5912ZM112.417 19.5912H113.417V18.5912H112.417V19.5912ZM112.417 21.0116V22.0116H113.417V21.0116H112.417ZM106.764 21.0116H105.764V22.0116H106.764V21.0116ZM106.764 19.5912V18.5912H105.764V19.5912H106.764ZM108.412 16.9775V15.9775H107.412V16.9775H108.412ZM110.088 16.9775H111.088V15.9775H110.088V16.9775ZM110.294 28.4406L109.429 28.9423L109.435 28.9526L109.441 28.9627L110.294 28.4406ZM110.834 28.9093L110.487 29.8473L110.499 29.8518L110.511 29.856L110.834 28.9093ZM111.991 28.9946L112.149 29.982L112.168 29.9789L112.187 29.9751L111.991 28.9946ZM112.275 28.9377L113.251 28.7169L113.035 27.7659L112.079 27.9572L112.275 28.9377ZM112.616 30.4434L112.967 31.3798L113.784 31.0734L113.592 30.2226L112.616 30.4434ZM112.14 30.5713L111.936 29.5925L111.925 29.5947L111.914 29.5973L112.14 30.5713ZM109.974 30.3369L109.562 31.2479L109.565 31.2495L109.974 30.3369ZM108.852 29.4065L108.035 29.9825L108.039 29.9886L108.852 29.4065ZM111.417 19.5912V21.0116H113.417V19.5912H111.417ZM112.417 20.0116H106.764V22.0116H112.417V20.0116ZM107.764 21.0116V19.5912H105.764V21.0116H107.764ZM106.764 20.5912H112.417V18.5912H106.764V20.5912ZM108.412 17.9775H110.088V15.9775H108.412V17.9775ZM109.088 16.9775V27.3752H111.088V16.9775H109.088ZM109.088 27.3752C109.088 27.9126 109.16 28.4789 109.429 28.9423L111.159 27.9389C111.161 27.9427 111.141 27.9079 111.121 27.8069C111.102 27.7076 111.088 27.5666 111.088 27.3752H109.088ZM109.441 28.9627C109.679 29.352 110.024 29.6761 110.487 29.8473L111.18 27.9713C111.183 27.9723 111.186 27.9737 111.189 27.9755C111.192 27.9772 111.192 27.978 111.191 27.9767C111.188 27.9744 111.172 27.9593 111.147 27.9184L109.441 28.9627ZM110.511 29.856C110.842 29.9687 111.186 30.023 111.537 30.023V28.023C111.395 28.023 111.27 28.0015 111.156 27.9627L110.511 29.856ZM111.537 30.023C111.749 30.023 111.959 30.0125 112.149 29.982L111.833 28.0071C111.787 28.0145 111.694 28.023 111.537 28.023V30.023ZM112.187 29.9751C112.306 29.9515 112.4 29.9325 112.471 29.9183L112.079 27.9572C112.008 27.9714 111.914 27.9903 111.795 28.014L112.187 29.9751ZM111.3 29.1586L111.641 30.6643L113.592 30.2226L113.251 28.7169L111.3 29.1586ZM112.265 29.5071C112.221 29.5237 112.119 29.5541 111.936 29.5925L112.345 31.5501C112.569 31.5033 112.784 31.4484 112.967 31.3798L112.265 29.5071ZM111.914 29.5973C111.811 29.6211 111.636 29.6423 111.366 29.6423V31.6423C111.721 31.6423 112.062 31.6161 112.367 31.5453L111.914 29.5973ZM111.366 29.6423C111.041 29.6423 110.716 29.5733 110.383 29.4243L109.565 31.2495C110.142 31.5077 110.745 31.6423 111.366 31.6423V29.6423ZM110.387 29.4259C110.103 29.2976 109.865 29.1037 109.665 28.8244L108.039 29.9886C108.436 30.5426 108.946 30.969 109.562 31.2479L110.387 29.4259ZM109.67 28.8305C109.521 28.6198 109.412 28.309 109.412 27.8298H107.412C107.412 28.6195 107.596 29.3599 108.035 29.9824L109.67 28.8305ZM109.412 27.8298V16.9775H107.412V27.8298H109.412ZM116.267 30.3653L115.841 31.2701L115.847 31.273L116.267 30.3653ZM114.925 29.2218L114.09 29.7729L114.092 29.7765L114.925 29.2218ZM114.797 25.8838L115.641 26.4193L115.644 26.4147L114.797 25.8838ZM117.148 24.4633L117.362 25.4402L117.368 25.4386L117.148 24.4633ZM118.66 24.1934L118.533 23.2016L118.531 23.2019L118.66 24.1934ZM120.273 24.0017L120.375 24.9964L120.385 24.9953L120.273 24.0017ZM121.182 23.7673L120.692 22.8951L120.683 22.9004L121.182 23.7673ZM120.898 21.5088L120.182 22.2071L120.186 22.2115L120.898 21.5088ZM117.29 21.4519L117.9 22.244L117.29 21.4519ZM116.331 22.5741L115.994 23.5158L116.854 23.8227L117.238 22.9952L116.331 22.5741ZM114.74 22.0059L113.821 21.612L113.402 22.5899L114.404 22.9477L114.74 22.0059ZM115.876 20.4576L116.491 21.2461L116.492 21.2453L115.876 20.4576ZM117.439 19.6764L117.691 20.6441L117.696 20.6426L117.439 19.6764ZM120.322 19.5769L120.138 20.5599L120.15 20.5619L120.322 19.5769ZM121.65 20.0812L121.136 20.9387L121.14 20.9412L121.65 20.0812ZM122.723 21.2389L121.847 21.7211V21.7211L122.723 21.2389ZM123.149 30.5002V31.5002H124.149V30.5002H123.149ZM121.473 30.5002H120.473V31.5002H121.473V30.5002ZM121.473 29.023H122.473V28.023H121.473V29.023ZM121.388 29.023V28.023H120.758L120.486 28.5902L121.388 29.023ZM120.819 29.7829L121.533 30.4837L120.819 29.7829ZM119.761 30.4718L119.366 29.5532L119.761 30.4718ZM120.081 28.8596L119.588 27.9897L119.584 27.9919L120.081 28.8596ZM121.118 27.8511L120.251 27.3528L120.246 27.3604L121.118 27.8511ZM121.473 25.0173H122.473V22.2552L120.705 24.3771L121.473 25.0173ZM121.004 25.2517L121.274 26.2147L121.286 26.211L121.004 25.2517ZM120.18 25.4292L120.332 26.4177L120.345 26.4156L120.18 25.4292ZM119.278 25.5571L119.392 26.5506L119.406 26.5488L119.278 25.5571ZM118.575 25.6423L118.704 26.6339L118.706 26.6337L118.575 25.6423ZM117.353 25.9193L117.666 26.8692L117.673 26.8668L117.353 25.9193ZM116.444 26.4804L115.71 25.8015L115.71 25.8021L116.444 26.4804ZM116.75 28.8099L116.181 29.6322L116.191 29.6392L116.75 28.8099ZM118.149 29.7559C117.586 29.7559 117.104 29.6506 116.686 29.4576L115.847 31.273C116.557 31.6008 117.329 31.7559 118.149 31.7559V29.7559ZM116.693 29.4605C116.287 29.2694 115.983 29.0062 115.757 28.6671L114.092 29.7765C114.529 30.4318 115.12 30.9309 115.841 31.2701L116.693 29.4605ZM115.759 28.6708C115.554 28.3601 115.427 27.954 115.427 27.4037H113.427C113.427 28.2737 113.632 29.0798 114.09 29.7729L115.759 28.6708ZM115.427 27.4037C115.427 26.9023 115.527 26.5995 115.641 26.4193L113.952 25.3482C113.574 25.9445 113.427 26.655 113.427 27.4037H115.427ZM115.644 26.4147C115.798 26.1697 115.998 25.9815 116.259 25.8403L115.309 24.0807C114.746 24.3845 114.288 24.8119 113.949 25.3528L115.644 26.4147ZM116.259 25.8403C116.582 25.6658 116.948 25.5308 117.362 25.4402L116.934 23.4865C116.353 23.6136 115.809 23.8101 115.309 24.0807L116.259 25.8403ZM117.368 25.4386C117.84 25.3318 118.314 25.2472 118.79 25.185L118.531 23.2019C117.993 23.2722 117.458 23.3676 116.927 23.488L117.368 25.4386ZM118.788 25.1853C119.447 25.1005 119.975 25.0378 120.375 24.9964L120.17 23.007C119.746 23.0508 119.2 23.1159 118.533 23.2016L118.788 25.1853ZM120.385 24.9953C120.836 24.9441 121.307 24.8485 121.68 24.6342L120.683 22.9004C120.692 22.8953 120.661 22.9138 120.563 22.9392C120.468 22.9636 120.336 22.988 120.16 23.0081L120.385 24.9953ZM121.671 24.6394C122.252 24.3132 122.473 23.7397 122.473 23.1991H120.473C120.473 23.2169 120.469 23.1667 120.51 23.0875C120.556 22.9988 120.626 22.9323 120.692 22.8951L121.671 24.6394ZM122.473 23.1991V23.1423H120.473V23.1991H122.473ZM122.473 23.1423C122.473 22.2565 122.226 21.4305 121.609 20.806L120.186 22.2115C120.336 22.3636 120.473 22.6265 120.473 23.1423H122.473ZM121.613 20.8104C120.979 20.1599 120.098 19.9264 119.172 19.9264V21.9264C119.789 21.9264 120.059 22.0811 120.182 22.2071L121.613 20.8104ZM119.172 19.9264C118.236 19.9264 117.366 20.1305 116.679 20.6599L117.9 22.244C118.122 22.0726 118.507 21.9264 119.172 21.9264V19.9264ZM116.679 20.6599C116.135 21.0791 115.694 21.5717 115.424 22.153L117.238 22.9952C117.337 22.7811 117.535 22.5255 117.9 22.244L116.679 20.6599ZM116.667 21.6324L115.076 21.0642L114.404 22.9477L115.994 23.5158L116.667 21.6324ZM115.659 22.3998C115.89 21.861 116.175 21.4927 116.491 21.2461L115.261 19.6691C114.63 20.1612 114.158 20.8251 113.821 21.612L115.659 22.3998ZM116.492 21.2453C116.868 20.9518 117.265 20.7549 117.691 20.6441L117.187 18.7087C116.485 18.8914 115.841 19.2153 115.26 19.67L116.492 21.2453ZM117.696 20.6426C118.186 20.5119 118.659 20.4491 119.115 20.4491V18.4491C118.473 18.4491 117.827 18.5378 117.181 18.7101L117.696 20.6426ZM119.115 20.4491C119.387 20.4491 119.726 20.4826 120.138 20.5598L120.507 18.5941C120.009 18.5008 119.543 18.4491 119.115 18.4491V20.4491ZM120.15 20.5619C120.48 20.6199 120.808 20.7419 121.136 20.9387L122.165 19.2237C121.641 18.9091 121.083 18.695 120.495 18.592L120.15 20.5619ZM121.14 20.9412C121.392 21.0909 121.633 21.3336 121.847 21.7211L123.599 20.7567C123.244 20.112 122.77 19.5828 122.161 19.2212L121.14 20.9412ZM121.847 21.7211C122.02 22.0361 122.149 22.5411 122.149 23.3127H124.149C124.149 22.3514 123.994 21.4739 123.599 20.7567L121.847 21.7211ZM122.149 23.3127V30.5002H124.149V23.3127H122.149ZM123.149 29.5002H121.473V31.5002H123.149V29.5002ZM122.473 30.5002V29.023H120.473V30.5002H122.473ZM121.473 28.023H121.388V30.023H121.473V28.023ZM120.486 28.5902C120.436 28.6947 120.325 28.8591 120.106 29.0821L121.533 30.4837C121.844 30.1669 122.112 29.8248 122.289 29.4557L120.486 28.5902ZM120.106 29.0821C119.953 29.2383 119.718 29.4019 119.366 29.5532L120.156 31.3905C120.685 31.163 121.156 30.8673 121.533 30.4837L120.106 29.0821ZM119.366 29.5532C119.084 29.6746 118.689 29.7559 118.149 29.7559V31.7559C118.878 31.7559 119.558 31.6479 120.156 31.3905L119.366 29.5532ZM118.405 30.2502C119.196 30.2502 119.937 30.0945 120.578 29.7273L119.584 27.9919C119.316 28.1455 118.939 28.2502 118.405 28.2502V30.2502ZM120.574 29.7295C121.172 29.3902 121.658 28.9301 121.989 28.3418L120.246 27.3604C120.114 27.5959 119.908 27.8082 119.588 27.9897L120.574 29.7295ZM121.985 28.3494C122.304 27.793 122.473 27.1889 122.473 26.5514H120.473C120.473 26.823 120.404 27.0853 120.251 27.3528L121.985 28.3494ZM122.473 26.5514V25.0173H120.473V26.5514H122.473ZM120.705 24.3771C120.753 24.3193 120.797 24.2845 120.82 24.2679C120.844 24.2507 120.858 24.2441 120.855 24.2454C120.853 24.2464 120.842 24.2519 120.818 24.2607C120.795 24.2695 120.763 24.2802 120.722 24.2923L121.286 26.211C121.441 26.1654 121.601 26.1085 121.75 26.0342C121.888 25.965 122.081 25.8494 122.241 25.6575L120.705 24.3771ZM120.734 24.2887C120.541 24.343 120.302 24.3951 120.016 24.4428L120.345 26.4156C120.683 26.3592 120.994 26.2929 121.274 26.2146L120.734 24.2887ZM120.028 24.4408C119.728 24.487 119.435 24.5285 119.15 24.5653L119.406 26.5488C119.708 26.5099 120.017 26.4661 120.332 26.4176L120.028 24.4408ZM119.164 24.5636C118.873 24.597 118.632 24.6261 118.445 24.6508L118.706 26.6337C118.878 26.6111 119.106 26.5834 119.392 26.5505L119.164 24.5636ZM118.446 24.6507C117.952 24.7151 117.48 24.8211 117.034 24.9718L117.673 26.8668C117.984 26.7618 118.327 26.6831 118.704 26.6339L118.446 24.6507ZM117.041 24.9694C116.53 25.1374 116.074 25.408 115.71 25.8015L117.179 27.1592C117.279 27.0508 117.429 26.9473 117.666 26.8692L117.041 24.9694ZM115.71 25.8021C115.269 26.2792 115.103 26.8822 115.103 27.4889H117.103C117.103 27.2432 117.165 27.1739 117.179 27.1586L115.71 25.8021ZM115.103 27.4889C115.103 28.3568 115.447 29.124 116.181 29.6321L117.319 27.9877C117.191 27.8992 117.103 27.7858 117.103 27.4889H115.103ZM116.191 29.6392C116.831 30.0707 117.592 30.2502 118.405 30.2502V28.2502C117.882 28.2502 117.54 28.1362 117.309 27.9806L116.191 29.6392ZM126.208 30.5002H125.208V31.5002H126.208V30.5002ZM126.208 19.5912V18.5912H125.208V19.5912H126.208ZM127.828 19.5912H128.828V18.5912H127.828V19.5912ZM127.828 21.2389H126.828V22.2389H127.828V21.2389ZM127.941 21.2389V22.2389H128.638L128.88 21.5846L127.941 21.2389ZM129.021 19.925L128.478 19.0848V19.0848L129.021 19.925ZM131.663 19.4491H132.663V18.5441L131.762 18.4541L131.663 19.4491ZM131.663 21.1537L131.42 22.1238L132.663 22.4344V21.1537H131.663ZM131.272 21.0897L131.108 22.0761L131.121 22.0783L131.134 22.0801L131.272 21.0897ZM129.22 21.3738L129.687 22.2579L129.691 22.2559L129.22 21.3738ZM128.24 22.2829L127.39 21.7548L127.389 21.7576L128.24 22.2829ZM127.884 30.5002V31.5002H128.884V30.5002H127.884ZM127.208 30.5002V19.5912H125.208V30.5002H127.208ZM126.208 20.5912H127.828V18.5912H126.208V20.5912ZM126.828 19.5912V21.2389H128.828V19.5912H126.828ZM127.828 22.2389H127.941V20.2389H127.828V22.2389ZM128.88 21.5846C128.998 21.2644 129.209 20.9935 129.563 20.7651L128.478 19.0848C127.791 19.5288 127.283 20.1339 127.003 20.8932L128.88 21.5846ZM129.563 20.7651C129.913 20.5391 130.31 20.4207 130.782 20.4207V18.4207C129.947 18.4207 129.17 18.6385 128.478 19.0848L129.563 20.7651ZM130.782 20.4207C130.894 20.4207 131.038 20.4229 131.218 20.4275L131.269 18.4281C131.08 18.4233 130.917 18.4207 130.782 18.4207V20.4207ZM131.218 20.4275C131.396 20.432 131.506 20.4385 131.563 20.4441L131.762 18.4541C131.63 18.4408 131.46 18.433 131.269 18.4281L131.218 20.4275ZM130.663 19.4491V21.1537H132.663V19.4491H130.663ZM131.905 20.1835C131.786 20.1538 131.599 20.1257 131.41 20.0993L131.134 22.0801C131.232 22.0938 131.307 22.105 131.361 22.1139C131.388 22.1183 131.407 22.1217 131.42 22.1241C131.434 22.1269 131.432 22.1268 131.42 22.1238L131.905 20.1835ZM131.437 20.1033C131.178 20.0603 130.912 20.04 130.64 20.04V22.04C130.813 22.04 130.969 22.0529 131.108 22.0761L131.437 20.1033ZM130.64 20.04C129.966 20.04 129.327 20.1827 128.749 20.4917L129.691 22.2559C129.945 22.1199 130.254 22.04 130.64 22.04V20.04ZM128.752 20.4898C128.187 20.7887 127.727 21.2132 127.39 21.7548L129.089 22.8111C129.235 22.5761 129.428 22.3946 129.687 22.2579L128.752 20.4898ZM127.389 21.7576C127.045 22.3135 126.884 22.9367 126.884 23.5968H128.884C128.884 23.2722 128.96 23.0194 129.09 22.8082L127.389 21.7576ZM126.884 23.5968V30.5002H128.884V23.5968H126.884ZM127.884 29.5002H126.208V31.5002H127.884V29.5002ZM139.078 19.5912H140.078V18.5912H139.078V19.5912ZM139.078 21.0116V22.0116H140.078V21.0116H139.078ZM133.424 21.0116H132.424V22.0116H133.424V21.0116ZM133.424 19.5912V18.5912H132.424V19.5912H133.424ZM135.072 16.9775V15.9775H134.072V16.9775H135.072ZM136.748 16.9775H137.748V15.9775H136.748V16.9775ZM136.954 28.4406L136.089 28.9423L136.095 28.9526L136.101 28.9627L136.954 28.4406ZM137.494 28.9093L137.147 29.8473L137.159 29.8518L137.172 29.856L137.494 28.9093ZM138.651 28.9946L138.809 29.982L138.829 29.9789L138.848 29.9751L138.651 28.9946ZM138.936 28.9377L139.911 28.7169L139.696 27.7659L138.739 27.9572L138.936 28.9377ZM139.276 30.4434L139.628 31.3798L140.444 31.0734L140.252 30.2226L139.276 30.4434ZM138.801 30.5713L138.596 29.5925L138.585 29.5947L138.574 29.5973L138.801 30.5713ZM136.634 30.3369L136.222 31.2479L136.226 31.2495L136.634 30.3369ZM135.512 29.4065L134.695 29.9825L134.699 29.9886L135.512 29.4065ZM138.078 19.5912V21.0116H140.078V19.5912H138.078ZM139.078 20.0116H133.424V22.0116H139.078V20.0116ZM134.424 21.0116V19.5912H132.424V21.0116H134.424ZM133.424 20.5912H139.078V18.5912H133.424V20.5912ZM135.072 17.9775H136.748V15.9775H135.072V17.9775ZM135.748 16.9775V27.3752H137.748V16.9775H135.748ZM135.748 27.3752C135.748 27.9126 135.82 28.4789 136.089 28.9423L137.819 27.9389C137.821 27.9427 137.801 27.9079 137.781 27.8069C137.762 27.7076 137.748 27.5666 137.748 27.3752H135.748ZM136.101 28.9627C136.339 29.352 136.684 29.6761 137.147 29.8473L137.84 27.9713C137.843 27.9723 137.846 27.9737 137.849 27.9755C137.852 27.9772 137.853 27.978 137.851 27.9767C137.848 27.9744 137.832 27.9593 137.807 27.9184L136.101 28.9627ZM137.172 29.856C137.503 29.9687 137.846 30.023 138.197 30.023V28.023C138.055 28.023 137.93 28.0015 137.816 27.9627L137.172 29.856ZM138.197 30.023C138.409 30.023 138.619 30.0125 138.809 29.982L138.493 28.0071C138.447 28.0145 138.354 28.023 138.197 28.023V30.023ZM138.848 29.9751C138.966 29.9515 139.061 29.9325 139.132 29.9183L138.739 27.9572C138.668 27.9714 138.574 27.9903 138.455 28.014L138.848 29.9751ZM137.96 29.1586L138.301 30.6643L140.252 30.2226L139.911 28.7169L137.96 29.1586ZM138.925 29.5071C138.881 29.5237 138.779 29.5541 138.596 29.5925L139.005 31.5501C139.229 31.5033 139.444 31.4484 139.628 31.3798L138.925 29.5071ZM138.574 29.5973C138.472 29.6211 138.296 29.6423 138.026 29.6423V31.6423C138.382 31.6423 138.722 31.6161 139.027 31.5453L138.574 29.5973ZM138.026 29.6423C137.701 29.6423 137.376 29.5733 137.043 29.4243L136.226 31.2495C136.802 31.5077 137.405 31.6423 138.026 31.6423V29.6423ZM137.047 29.4259C136.763 29.2976 136.525 29.1037 136.325 28.8244L134.699 29.9886C135.096 30.5426 135.606 30.969 136.222 31.2479L137.047 29.4259ZM136.33 28.8305C136.181 28.6198 136.072 28.309 136.072 27.8298H134.072C134.072 28.6195 134.256 29.3599 134.695 29.9824L136.33 28.8305ZM136.072 27.8298V16.9775H134.072V27.8298H136.072Z" fill="white"/>
<rect width="193.104" height="42.4622" rx="21.2311" fill="#B7B7B7"/>
<path fill-rule="evenodd" clip-rule="evenodd" d="M21.2311 0C9.50548 0 0 9.50549 0 21.2311C0 22.1635 0.0601078 23.0819 0.17666 23.9826L0 23.9845C0.136657 25.0353 0.468684 26.3921 1.05164 27.8487C3.19942 34.4021 8.45057 39.5496 15.0677 41.5537C16.3209 42.8142 18.1406 43.8296 20.647 43.8296C20.7559 44.0606 20.8633 44.2887 20.9693 44.5139C24.6106 52.2509 26.6103 56.5 35.5 56.5C43.3051 56.5 46.9719 48.4601 47.488 46.3102C48.077 45.6875 48.7679 46.2754 49.9116 47.2486C52.1089 49.1184 55.9775 52.4104 64.0056 51.2715C67.055 50.8389 68.4898 53.9015 70.0945 57.3269C72.1706 61.7582 74.5309 66.7965 81.0394 65.6591C85.5817 64.8653 89.1261 57.7211 90.3305 54.2482C90.6746 52.5945 92.6017 49.4854 97.557 50.2792C98.0191 50.3532 98.4496 50.4162 98.8511 50.475C103.831 51.2035 104.344 51.2786 105.3 63.6746C106.332 77.0701 110.461 81.5352 116.139 79.5507C121.461 77.6905 121.795 73.6509 122.241 68.249C122.271 67.8878 122.301 67.5206 122.333 67.1475C122.401 66.3623 122.443 65.5598 122.484 64.7514C122.757 59.4308 123.043 53.8556 131.108 51.2715C133.517 50.61 138.541 50.18 139.367 53.7521C140.193 57.3242 143.5 57.5 144.529 57.225C145.217 57.7211 146.077 59.408 144.013 62.1863C141.432 65.6591 142.98 71.1165 146.077 70.1243C149.174 69.132 150.723 66.1553 149.174 63.6746C147.936 61.6901 148.658 60.2018 149.174 59.7056C149.468 59.2361 149.533 57.6213 149.286 56.8122C151.76 55.9412 154.909 54.7721 157.433 50.2792C159.103 47.3078 165.176 45.9795 168.273 45.8141C169.019 45.7245 173.443 43.8242 177.209 41.7861C186.352 39.4196 193.104 31.1139 193.104 21.2311C193.104 9.50549 183.599 0 171.873 0H21.2311Z" fill="#FFC759"/>
<path d="M64.9492 20.9202C64.819 20.4709 64.6139 20.0868 64.334 19.7678C64.0605 19.4423 63.722 19.1949 63.3184 19.0256C62.9147 18.8499 62.4557 18.762 61.9414 18.762C61.2122 18.762 60.571 18.9443 60.0176 19.3088C59.4707 19.6734 59.041 20.2073 58.7285 20.9104C58.4225 21.607 58.2695 22.4436 58.2695 23.4202C58.2695 24.4032 58.4225 25.2431 58.7285 25.9397C59.0345 26.6363 59.4642 27.1702 60.0176 27.5413C60.571 27.9058 61.222 28.0914 61.9707 28.0979C62.6413 28.0979 63.224 27.9742 63.7188 27.7268C64.2135 27.4794 64.5879 27.1311 64.8418 26.6819C65.0957 26.2327 65.2259 25.7021 65.2324 25.0901L65.8379 25.178H62.166V22.9417H68.0645V24.719C68.0645 25.9364 67.8073 26.9976 67.293 27.9026C66.7786 28.801 66.056 29.4911 65.125 29.9729C64.2005 30.4547 63.1458 30.6956 61.9609 30.6956C60.6393 30.6956 59.474 30.4026 58.4648 29.8167C57.4622 29.2242 56.6842 28.3811 56.1309 27.2874C55.5775 26.1936 55.3008 24.9111 55.3008 23.4397C55.3008 21.9553 55.5872 20.663 56.1602 19.5627C56.7331 18.4625 57.5176 17.6226 58.5137 17.0432C59.5098 16.4573 60.6361 16.1643 61.8926 16.1643C62.9408 16.1643 63.901 16.3661 64.7734 16.7698C65.6523 17.1669 66.3652 17.7268 66.9121 18.4495C67.4655 19.1721 67.8073 19.9957 67.9375 20.9202H64.9492ZM74.9688 30.7053C73.8945 30.7053 72.9603 30.484 72.166 30.0413C71.3783 29.5986 70.7728 28.967 70.3496 28.1467C69.9264 27.3264 69.7148 26.3629 69.7148 25.2561C69.7148 24.1689 69.9264 23.2086 70.3496 22.3752C70.7793 21.5419 71.3783 20.8974 72.1465 20.4417C72.9212 19.9859 73.8229 19.7581 74.8516 19.7581C75.8021 19.7581 76.6517 19.9599 77.4004 20.3635C78.1491 20.7607 78.7383 21.3629 79.168 22.1702C79.6042 22.9775 79.8223 23.9638 79.8223 25.1292V25.9397H70.8965V24.1331H77.0977C77.0911 23.7099 76.9935 23.329 76.8047 22.9905C76.6224 22.6519 76.3652 22.3883 76.0332 22.1995C75.7012 22.0107 75.3236 21.9163 74.9004 21.9163C74.4512 21.9163 74.0508 22.0204 73.6992 22.2288C73.3477 22.4306 73.071 22.7105 72.8691 23.0686C72.6738 23.4267 72.5729 23.8173 72.5664 24.2405V25.9397C72.5664 26.4736 72.6673 26.9358 72.8691 27.3264C73.0775 27.7105 73.3639 28.01 73.7285 28.2249C74.0931 28.4397 74.5195 28.5471 75.0078 28.5471C75.3333 28.5406 75.6296 28.4918 75.8965 28.4006C76.1634 28.3095 76.388 28.189 76.5703 28.0393C76.7526 27.8831 76.8958 27.7008 77 27.4924H79.7539C79.6107 28.1435 79.3275 28.7099 78.9043 29.1917C78.4811 29.6734 77.9342 30.0478 77.2637 30.3147C76.5931 30.5751 75.8281 30.7053 74.9688 30.7053ZM87.2246 22.0627H80.877V19.8948H87.2246V22.0627ZM85.2324 17.3557V27.2385C85.2324 27.512 85.2715 27.7268 85.3496 27.8831C85.4342 28.0328 85.5482 28.1402 85.6914 28.2053C85.8411 28.2704 86.0234 28.303 86.2383 28.303C86.3359 28.3095 86.4564 28.3095 86.5996 28.303C86.7428 28.2965 86.8861 28.29 87.0293 28.2834L87.3711 28.2542V30.5393C86.9284 30.6109 86.4238 30.6467 85.8574 30.6467C85.1413 30.6467 84.5195 30.5393 83.9922 30.3245C83.4648 30.1031 83.0547 29.7711 82.7617 29.3284C82.4753 28.8792 82.332 28.316 82.332 27.6389V17.3557H85.2324ZM101.395 20.4026C101.362 20.025 101.245 19.7027 101.043 19.4358C100.841 19.1689 100.561 18.967 100.203 18.8303C99.8516 18.6936 99.4349 18.6252 98.9531 18.6252C98.4714 18.6252 98.0579 18.6936 97.7129 18.8303C97.3678 18.967 97.1042 19.1591 96.9219 19.4065C96.7396 19.6474 96.6484 19.9241 96.6484 20.2366C96.6354 20.7183 96.8307 21.0959 97.2344 21.3694C97.638 21.6363 98.1947 21.8512 98.9043 22.0139L100.174 22.3167C101.508 22.6226 102.547 23.1077 103.289 23.7717C104.038 24.4358 104.412 25.3342 104.412 26.467C104.412 27.3264 104.194 28.0751 103.758 28.7131C103.328 29.3512 102.7 29.8427 101.873 30.1877C101.053 30.5263 100.073 30.6956 98.9336 30.6956C97.7878 30.7021 96.7949 30.5295 95.9551 30.178C95.1217 29.8199 94.4707 29.2991 94.002 28.6155C93.5397 27.9254 93.2923 27.0823 93.2598 26.0862H96.1113C96.1439 26.5484 96.2806 26.9423 96.5215 27.2678C96.7624 27.5868 97.0846 27.8277 97.4883 27.9905C97.8984 28.1467 98.3704 28.2249 98.9043 28.2249C99.4121 28.2249 99.8581 28.15 100.242 28.0002C100.626 27.8505 100.923 27.6422 101.131 27.3752C101.339 27.1083 101.443 26.7991 101.443 26.4475C101.443 26.135 101.352 25.8681 101.17 25.6467C100.988 25.4254 100.721 25.2398 100.369 25.0901C100.024 24.9403 99.5781 24.7971 99.0312 24.6604L97.4785 24.2893C96.2415 23.9833 95.291 23.5178 94.627 22.8928C93.9629 22.2613 93.6341 21.441 93.6406 20.4319C93.6406 19.592 93.8685 18.8466 94.3242 18.1956C94.7799 17.5445 95.4115 17.0432 96.2188 16.6917C97.0326 16.3401 97.9538 16.1643 98.9824 16.1643C100.011 16.1643 100.919 16.3433 101.707 16.7014C102.501 17.053 103.117 17.551 103.553 18.1956C103.989 18.8401 104.21 19.5758 104.217 20.4026H101.395ZM111.854 22.0627H105.506V19.8948H111.854V22.0627ZM109.861 17.3557V27.2385C109.861 27.512 109.9 27.7268 109.979 27.8831C110.063 28.0328 110.177 28.1402 110.32 28.2053C110.47 28.2704 110.652 28.303 110.867 28.303C110.965 28.3095 111.085 28.3095 111.229 28.303C111.372 28.2965 111.515 28.29 111.658 28.2834L112 28.2542V30.5393C111.557 30.6109 111.053 30.6467 110.486 30.6467C109.77 30.6467 109.148 30.5393 108.621 30.3245C108.094 30.1031 107.684 29.7711 107.391 29.3284C107.104 28.8792 106.961 28.316 106.961 27.6389V17.3557H109.861ZM119.891 25.9202C119.715 25.9332 119.572 25.943 119.461 25.9495C119.357 25.956 119.204 25.9657 119.002 25.9788C118.462 25.9983 117.986 26.0308 117.576 26.0764C117.062 26.1155 116.658 26.2555 116.365 26.4963C116.079 26.7307 115.932 27.0497 115.926 27.4534C115.926 27.7138 115.994 27.9384 116.131 28.1272C116.268 28.3095 116.453 28.4495 116.688 28.5471C116.928 28.6448 117.205 28.6903 117.518 28.6838C117.947 28.6903 118.331 28.609 118.67 28.4397C119.015 28.2639 119.282 28.0263 119.471 27.7268C119.66 27.4208 119.754 27.0823 119.754 26.7112L119.734 23.2834C119.734 22.984 119.669 22.7301 119.539 22.5217C119.415 22.3069 119.227 22.1474 118.973 22.0432C118.719 21.9325 118.413 21.8772 118.055 21.8772C117.56 21.8772 117.16 21.9814 116.854 22.1897C116.554 22.3915 116.365 22.678 116.287 23.0491H113.533C113.592 22.4241 113.81 21.8642 114.188 21.3694C114.565 20.8681 115.086 20.4742 115.75 20.1877C116.421 19.9013 117.212 19.7581 118.123 19.7581C118.943 19.7581 119.692 19.8818 120.369 20.1292C121.046 20.3765 121.59 20.7737 122 21.3206C122.41 21.8609 122.618 22.538 122.625 23.3518V30.5002H119.881V29.0354H119.803C119.529 29.5497 119.132 29.9566 118.611 30.2561C118.097 30.5491 117.456 30.6956 116.688 30.6956C116.004 30.6956 115.398 30.5784 114.871 30.344C114.344 30.1031 113.927 29.745 113.621 29.2698C113.315 28.7945 113.162 28.2183 113.162 27.5413C113.162 26.441 113.527 25.6402 114.256 25.1389C114.985 24.6311 115.936 24.3414 117.107 24.2698C117.426 24.2437 117.771 24.2242 118.143 24.2112C118.52 24.1917 118.882 24.1721 119.227 24.1526C119.441 24.1461 119.656 24.1396 119.871 24.1331L119.891 25.9202ZM124.822 19.8948H127.615V21.7405H127.732C127.921 21.0959 128.243 20.6044 128.699 20.2659C129.155 19.9208 129.682 19.745 130.281 19.7385C130.698 19.7515 131.007 19.7841 131.209 19.8362V22.4143C131.066 22.3687 130.877 22.3329 130.643 22.3069C130.408 22.2743 130.184 22.2581 129.969 22.2581C129.539 22.2581 129.155 22.3525 128.816 22.5413C128.478 22.7301 128.208 22.9937 128.006 23.3323C127.811 23.6643 127.713 24.0452 127.713 24.4749V30.5002H124.822V19.8948ZM138.748 22.0627H132.4V19.8948H138.748V22.0627ZM136.756 17.3557V27.2385C136.756 27.512 136.795 27.7268 136.873 27.8831C136.958 28.0328 137.072 28.1402 137.215 28.2053C137.365 28.2704 137.547 28.303 137.762 28.303C137.859 28.3095 137.98 28.3095 138.123 28.303C138.266 28.2965 138.41 28.29 138.553 28.2834L138.895 28.2542V30.5393C138.452 30.6109 137.947 30.6467 137.381 30.6467C136.665 30.6467 136.043 30.5393 135.516 30.3245C134.988 30.1031 134.578 29.7711 134.285 29.3284C133.999 28.8792 133.855 28.316 133.855 27.6389V17.3557H136.756Z" fill="white"/>
<path d="M7.0053 20C6.86993 24.2105 9.27937 33.3053 20 36" stroke="#FAFAFA" stroke-width="3" stroke-linecap="round"/>
<path d="M26 46C26.6 48.3333 28.8125 51.7138 35 52" stroke="#FAFAFA" stroke-width="2" stroke-linecap="round"/>
<path d="M109 71C109 73.2857 111.091 76 114 76" stroke="#FAFAFA" stroke-width="2" stroke-linecap="round"/>
<circle cx="40" cy="52" r="1" fill="#FAFAFA"/>
</svg>
