<svg width="250" height="250" viewBox="0 0 250 250" fill="none" xmlns="http://www.w3.org/2000/svg">
<ellipse cx="124.928" cy="124.515" rx="124.928" ry="124.515" fill="#FFD27A"/>
<path d="M49.5322 79.8457C49.5322 74.3229 54.0094 69.8457 59.5322 69.8457H190.606C196.128 69.8457 200.606 74.3229 200.606 79.8457V169.731C200.606 175.254 196.128 179.731 190.606 179.731H59.5322C54.0094 179.731 49.5322 175.254 49.5322 169.731V79.8457Z" fill="white" fill-opacity="0.7"/>
<path d="M63.9775 93.0905C63.9775 90.2562 66.2752 87.9585 69.1096 87.9585H102.181C105.016 87.9585 107.313 90.2562 107.313 93.0905V93.0905C107.313 95.9248 105.016 98.2225 102.181 98.2225H69.1096C66.2752 98.2225 63.9775 95.9248 63.9775 93.0905V93.0905Z" fill="white"/>
<path d="M96.4795 113.015C96.4795 110.181 98.7772 107.883 101.612 107.883H134.683C137.518 107.883 139.815 110.181 139.815 113.015V113.015C139.815 115.849 137.518 118.147 134.683 118.147H101.612C98.7772 118.147 96.4795 115.849 96.4795 113.015V113.015Z" fill="white"/>
<path d="M63.9775 132.939C63.9775 130.105 66.2752 127.807 69.1096 127.807H102.181C105.016 127.807 107.313 130.105 107.313 132.939V132.939C107.313 135.774 105.016 138.071 102.181 138.071H69.1096C66.2752 138.071 63.9775 135.774 63.9775 132.939V132.939Z" fill="#4695DE"/>
<path d="M112.128 132.939C112.128 130.105 114.426 127.807 117.26 127.807H178.018C180.853 127.807 183.15 130.105 183.15 132.939V132.939C183.15 135.774 180.853 138.071 178.018 138.071H117.26C114.426 138.071 112.128 135.774 112.128 132.939V132.939Z" fill="white"/>
<path d="M63.9775 152.863C63.9775 150.029 66.2752 147.731 69.1096 147.731H129.868C132.702 147.731 135 150.029 135 152.863V152.863C135 155.698 132.702 157.995 129.868 157.995H69.1096C66.2752 157.995 63.9775 155.698 63.9775 152.863V152.863Z" fill="white"/>
<path d="M112.128 93.0905C112.128 90.2562 114.426 87.9585 117.26 87.9585H150.332C153.166 87.9585 155.464 90.2562 155.464 93.0905V93.0905C155.464 95.9248 153.166 98.2225 150.332 98.2225H117.26C114.426 98.2225 112.128 95.9248 112.128 93.0905V93.0905Z" fill="#F97676"/>
<path d="M144.631 113.015C144.631 110.181 146.929 107.883 149.763 107.883H167.186C170.02 107.883 172.318 110.181 172.318 113.015V113.015C172.318 115.849 170.02 118.147 167.186 118.147H149.763C146.929 118.147 144.631 115.849 144.631 113.015V113.015Z" fill="#F9BE28"/>
<path d="M160.279 93.0905C160.279 90.2562 162.577 87.9585 165.411 87.9585H182.834C185.668 87.9585 187.966 90.2562 187.966 93.0905V93.0905C187.966 95.9248 185.668 98.2225 182.834 98.2225H165.411C162.577 98.2225 160.279 95.9248 160.279 93.0905V93.0905Z" fill="white"/>
<path d="M155.464 152.863C155.464 150.029 157.762 147.731 160.596 147.731H178.019C180.853 147.731 183.151 150.029 183.151 152.863V152.863C183.151 155.698 180.853 157.995 178.019 157.995H160.596C157.762 157.995 155.464 155.698 155.464 152.863V152.863Z" fill="#F97676"/>
<path d="M177.132 113.015C177.132 110.181 179.43 107.883 182.264 107.883H182.834C185.668 107.883 187.966 110.181 187.966 113.015V113.015C187.966 115.849 185.668 118.147 182.834 118.147H182.264C179.43 118.147 177.132 115.849 177.132 113.015V113.015Z" fill="white"/>
<path d="M139.814 152.863C139.814 150.029 142.112 147.731 144.946 147.731H145.516C148.351 147.731 150.648 150.029 150.648 152.863V152.863C150.648 155.698 148.351 157.995 145.516 157.995H144.946C142.112 157.995 139.814 155.698 139.814 152.863V152.863Z" fill="white"/>
<path d="M63.9775 113.015C63.9775 110.181 66.2752 107.883 69.1096 107.883H86.5323C89.3666 107.883 91.6643 110.181 91.6643 113.015V113.015C91.6643 115.849 89.3666 118.147 86.5323 118.147H69.1096C66.2752 118.147 63.9775 115.849 63.9775 113.015V113.015Z" fill="white"/>
</svg>
