<svg width="251" height="249" viewBox="0 0 251 249" fill="none" xmlns="http://www.w3.org/2000/svg">
<ellipse cx="125.014" cy="124.489" rx="125.014" ry="124.489" fill="#FFD27A"/>
<path d="M124.667 190.745C160.934 190.745 190.334 161.253 190.334 124.872C190.334 88.4921 160.934 59 124.667 59C88.4002 59 59 88.4921 59 124.872C59 161.253 88.4002 190.745 124.667 190.745Z" stroke="white" stroke-width="10" stroke-linecap="round" stroke-linejoin="round"/>
<path d="M124.669 190.745C138.26 190.745 149.279 161.253 149.279 124.872C149.279 88.4921 138.26 59 124.669 59C111.077 59 100.059 88.4921 100.059 124.872C100.059 161.253 111.077 190.745 124.669 190.745Z" stroke="white" stroke-width="10" stroke-linecap="round" stroke-linejoin="round"/>
<path d="M63.3066 101.448H186.072" stroke="white" stroke-width="10" stroke-linecap="round" stroke-linejoin="round"/>
<path d="M65.2549 142.43H188.061" stroke="white" stroke-width="10" stroke-linecap="round" stroke-linejoin="round"/>
</svg>
