<svg width="251" height="249" viewBox="0 0 251 249" fill="none" xmlns="http://www.w3.org/2000/svg">
<ellipse cx="125.014" cy="124.489" rx="125.014" ry="124.489" fill="white" fill-opacity="0.7"/>
<path d="M124.661 83.3814H93.286C92.3308 83.3768 91.3842 83.5616 90.5004 83.925C89.6166 84.2885 88.8131 84.8236 88.1361 85.4995C87.4591 86.1754 86.9219 86.9788 86.5553 87.8636C86.1887 88.7483 86 89.6971 86 90.6552V163.463C86 165.392 86.764 167.242 88.1238 168.606C89.4837 169.97 91.328 170.737 93.2511 170.737H165.727C166.694 170.76 167.656 170.589 168.556 170.234C169.456 169.879 170.276 169.347 170.968 168.669C171.66 167.991 172.209 167.182 172.585 166.287C172.96 165.393 173.153 164.433 173.153 163.463V130.101" stroke="#FFD27A" stroke-width="10" stroke-linecap="round" stroke-linejoin="round"/>
<path d="M183.123 91.3902L138.536 136.117C133.83 140.838 117.305 148.706 112.564 143.95C107.858 139.229 115.109 122.059 119.815 117.303L164.403 72.5414C166.67 70.2735 169.742 69 172.944 69C176.146 69 179.217 70.2735 181.485 72.5414L183.123 74.2199C184.256 75.3422 185.156 76.6789 185.77 78.1527C186.384 79.6264 186.7 81.2078 186.7 82.8051C186.7 84.4024 186.384 85.9837 185.77 87.4575C185.156 88.9312 184.256 90.268 183.123 91.3902Z" stroke="#FFD27A" stroke-width="10" stroke-linecap="round" stroke-linejoin="round"/>
<path d="M154.433 82.5781L172.979 101.602" stroke="#FFD27A" stroke-width="10" stroke-miterlimit="10"/>
</svg>
