<svg width="438" height="404" viewBox="0 0 438 404" fill="none" xmlns="http://www.w3.org/2000/svg">
<path d="M263.581 327.132C264.602 331.813 268.181 335.67 273 337.281L306.663 348.537C311.575 350.179 317.027 349.24 320.942 346.077L347.183 324.875C351.098 321.711 352.874 316.811 351.834 312.04L344.708 279.344C343.687 274.663 340.108 270.807 335.289 269.195L301.626 257.939C296.714 256.297 291.262 257.236 287.347 260.4L261.106 281.602C257.19 284.765 255.415 289.665 256.455 294.436L263.581 327.132Z" stroke="#F9BE28" stroke-width="2"/>
<path d="M339.693 113.179C344.756 115.226 348.215 119.754 348.628 124.874L358.816 251.207C359.194 255.894 356.959 260.375 352.911 263.05L236.662 339.857C232.613 342.532 227.328 343.02 222.693 341.145L97.7659 290.622C92.7026 288.575 89.2436 284.047 88.8307 278.927L78.6428 152.593C78.2649 147.907 80.4993 143.426 84.548 140.751L200.797 63.9436C204.846 61.2686 210.131 60.7811 214.765 62.6553L339.693 113.179Z" stroke="#FFC759" stroke-width="2"/>
</svg>
