<svg width="21" height="20" viewBox="0 0 21 20" fill="none" xmlns="http://www.w3.org/2000/svg">
<path d="M10.2336 1.036C10.2413 1.02042 10.249 1.0144 10.2547 1.01098C10.2623 1.0065 10.2737 1.00278 10.2877 1.00278C10.3016 1.00278 10.313 1.0065 10.3206 1.01098C10.3264 1.0144 10.3341 1.02042 10.3418 1.036L13.0015 6.41338C13.1562 6.72606 13.4548 6.94227 13.7997 6.99227L19.747 7.85458C19.7648 7.85715 19.7731 7.86279 19.778 7.86714C19.7846 7.87285 19.7914 7.88222 19.7955 7.89495C19.7997 7.90768 19.7996 7.91908 19.7978 7.92719C19.7964 7.93328 19.7932 7.94236 19.7806 7.95463L15.4771 12.1403C15.227 12.3835 15.1127 12.7342 15.1718 13.0782L16.1877 18.9885C16.1907 19.0055 16.188 19.0146 16.1855 19.0204C16.1821 19.0281 16.1753 19.0375 16.1642 19.0456C16.1531 19.0537 16.1417 19.0574 16.1328 19.0582C16.1259 19.0588 16.1158 19.0585 16.1001 19.0502L10.7806 16.2597C10.472 16.0978 10.1034 16.0978 9.79475 16.2597L4.47528 19.0502C4.45951 19.0585 4.4494 19.0588 4.44254 19.0582C4.43362 19.0574 4.42227 19.0537 4.41114 19.0456C4.4 19.0375 4.39321 19.0281 4.38988 19.0204C4.38737 19.0146 4.38469 19.0055 4.38761 18.9885L5.40354 13.0782C5.46266 12.7342 5.3483 12.3835 5.09828 12.1403L0.794744 7.95463L0.446131 8.31306L0.794743 7.95463C0.782129 7.94236 0.778928 7.93328 0.777557 7.92719C0.775729 7.91908 0.775677 7.90768 0.779822 7.89495C0.783968 7.88222 0.790784 7.87285 0.797292 7.86714C0.802255 7.86279 0.810544 7.85715 0.828306 7.85458L6.77565 6.99227C7.12052 6.94227 7.41917 6.72606 7.57382 6.41338L10.2336 1.036Z" stroke="#838E9E" stroke-linejoin="round"/>
</svg>
