<svg width="35" height="36" viewBox="0 0 35 36" fill="none" xmlns="http://www.w3.org/2000/svg">
<path d="M20.2344 24.1552L5.46875 24.1552" stroke="#525050" stroke-width="1.5" stroke-linecap="round" stroke-linejoin="round"/>
<path d="M29.5312 24.1552L25.7031 24.1552" stroke="#525050" stroke-width="1.5" stroke-linecap="round" stroke-linejoin="round"/>
<path d="M22.9688 26.8845C24.4789 26.8845 25.7031 25.6626 25.7031 24.1552C25.7031 22.6479 24.4789 21.4259 22.9688 21.4259C21.4586 21.4259 20.2344 22.6479 20.2344 24.1552C20.2344 25.6626 21.4586 26.8845 22.9688 26.8845Z" stroke="#525050" stroke-width="1.5" stroke-linecap="round" stroke-linejoin="round"/>
<path d="M11.4844 12.1463L5.46875 12.1462" stroke="#525050" stroke-width="1.5" stroke-linecap="round" stroke-linejoin="round"/>
<path d="M29.5312 12.1462L16.9531 12.1463" stroke="#525050" stroke-width="1.5" stroke-linecap="round" stroke-linejoin="round"/>
<path d="M14.2188 14.8755C15.7289 14.8755 16.9531 13.6536 16.9531 12.1462C16.9531 10.6388 15.7289 9.41689 14.2188 9.41689C12.7086 9.41689 11.4844 10.6388 11.4844 12.1462C11.4844 13.6536 12.7086 14.8755 14.2188 14.8755Z" stroke="#525050" stroke-width="1.5" stroke-linecap="round" stroke-linejoin="round"/>
</svg>
