<svg width="294" height="282" viewBox="0 0 294 282" fill="none" xmlns="http://www.w3.org/2000/svg">
<path d="M134.908 44.5111C139.972 46.5589 143.431 51.0864 143.844 56.2067L147.18 97.5813C147.558 102.268 145.324 106.749 141.275 109.424L102.188 135.249C98.1394 137.924 92.8539 138.412 88.2197 136.537L47.3055 119.991C42.2421 117.943 38.7832 113.416 38.3702 108.295L35.0337 66.9207C34.6557 62.2342 36.8902 57.7532 40.9388 55.0782L80.0258 29.2529C84.0745 26.5779 89.3599 26.0904 93.9942 27.9646L134.908 44.5111Z" stroke="#F9BE28" stroke-width="2"/>
<path d="M226.708 88.1181C232.228 90.1204 235.979 95.0306 236.196 100.537L239.192 176.751C239.369 181.257 237.143 185.5 233.255 188.069L156.34 238.888C152.452 241.457 147.411 242.015 142.893 240.377L66.491 212.664C60.9707 210.661 57.2194 205.751 57.0029 200.244L54.0068 124.031C53.8297 119.525 56.0552 115.281 59.9434 112.712L136.859 61.8932C140.747 59.3242 145.788 58.7663 150.306 60.405L226.708 88.1181Z" stroke="#F9BE28" stroke-width="2"/>
</svg>
