<svg width="1920" height="178" viewBox="0 0 1920 178" fill="none" xmlns="http://www.w3.org/2000/svg">
<path d="M90 112.154C54 79.5565 15 71.1382 0 71.0038V0H1920V52.446C1911.6 46.3138 1892.17 42.6291 1883.5 41.5533C1848.3 37.0349 1833.5 60.918 1830.5 73.4243C1824.5 103.009 1797.6 164.761 1738 175.089C1663.5 187.999 1631.5 156.934 1607 102.471C1582.5 48.0082 1549.5 63.3386 1492.5 86.3341C1435.5 109.33 1426.5 102.471 1384 68.1797C1350 40.7465 1322.5 50.8322 1313 59.3043C1293.4 77.7007 1252.5 95.7475 1234.5 102.471C1217 115.381 1117.5 126.274 1067.5 109.33C1027.5 95.7744 993.5 107.985 981.5 115.785C960.667 125.601 904.8 146.849 848 153.304C791.2 159.758 728.667 130.98 704.5 115.785C613.7 57.3678 558.333 44.6463 542 45.5876C494.4 41.0692 458.833 61.7248 447 72.6175C423.4 101.019 386.5 110.809 371 112.154C340.2 116.027 313.167 100.32 303.5 91.9821C263.5 58.4167 244.167 52.177 239.5 53.2528C224.3 51.3163 191.167 78.2655 176.5 91.9821C157.7 108.765 133.667 118.877 124 121.836C108.8 126.677 95 117.398 90 112.154Z" fill="#FFC759"/>
</svg>
