<svg width="290" height="290" viewBox="0 0 290 290" fill="none" xmlns="http://www.w3.org/2000/svg">
<g filter="url(#filter0_d_1030_10381)">
<ellipse cx="142.928" cy="142.515" rx="124.928" ry="124.515" fill="#FFD27A"/>
</g>
<path d="M67.5322 97.8457C67.5322 92.3229 72.0094 87.8457 77.5322 87.8457H208.606C214.128 87.8457 218.606 92.3229 218.606 97.8457V187.731C218.606 193.254 214.128 197.731 208.606 197.731H77.5322C72.0094 197.731 67.5322 193.254 67.5322 187.731V97.8457Z" fill="white" fill-opacity="0.7"/>
<path d="M81.9775 111.091C81.9775 108.256 84.2752 105.958 87.1096 105.958H120.181C123.016 105.958 125.313 108.256 125.313 111.091V111.091C125.313 113.925 123.016 116.223 120.181 116.223H87.1096C84.2752 116.223 81.9775 113.925 81.9775 111.091V111.091Z" fill="white"/>
<path d="M114.479 131.015C114.479 128.181 116.777 125.883 119.612 125.883H152.683C155.518 125.883 157.815 128.181 157.815 131.015V131.015C157.815 133.849 155.518 136.147 152.683 136.147H119.612C116.777 136.147 114.479 133.849 114.479 131.015V131.015Z" fill="white"/>
<path d="M81.9775 150.939C81.9775 148.105 84.2752 145.807 87.1096 145.807H120.181C123.016 145.807 125.313 148.105 125.313 150.939V150.939C125.313 153.774 123.016 156.071 120.181 156.071H87.1096C84.2752 156.071 81.9775 153.774 81.9775 150.939V150.939Z" fill="#4695DE"/>
<path d="M130.128 150.939C130.128 148.105 132.426 145.807 135.26 145.807H196.018C198.853 145.807 201.15 148.105 201.15 150.939V150.939C201.15 153.774 198.853 156.071 196.018 156.071H135.26C132.426 156.071 130.128 153.774 130.128 150.939V150.939Z" fill="white"/>
<path d="M81.9775 170.863C81.9775 168.029 84.2752 165.731 87.1096 165.731H147.868C150.702 165.731 153 168.029 153 170.863V170.863C153 173.698 150.702 175.995 147.868 175.995H87.1096C84.2752 175.995 81.9775 173.698 81.9775 170.863V170.863Z" fill="white"/>
<path d="M130.128 111.091C130.128 108.256 132.426 105.958 135.26 105.958H168.332C171.166 105.958 173.464 108.256 173.464 111.091V111.091C173.464 113.925 171.166 116.223 168.332 116.223H135.26C132.426 116.223 130.128 113.925 130.128 111.091V111.091Z" fill="#F97676"/>
<path d="M162.63 131.015C162.63 128.181 164.928 125.883 167.762 125.883H185.185C188.019 125.883 190.317 128.181 190.317 131.015V131.015C190.317 133.849 188.019 136.147 185.185 136.147H167.762C164.928 136.147 162.63 133.849 162.63 131.015V131.015Z" fill="#F9BE28"/>
<path d="M178.279 111.091C178.279 108.256 180.577 105.958 183.411 105.958H200.834C203.668 105.958 205.966 108.256 205.966 111.091V111.091C205.966 113.925 203.668 116.223 200.834 116.223H183.411C180.577 116.223 178.279 113.925 178.279 111.091V111.091Z" fill="white"/>
<path d="M173.464 170.863C173.464 168.029 175.762 165.731 178.596 165.731H196.019C198.853 165.731 201.151 168.029 201.151 170.863V170.863C201.151 173.698 198.853 175.995 196.019 175.995H178.596C175.762 175.995 173.464 173.698 173.464 170.863V170.863Z" fill="#F97676"/>
<path d="M195.132 131.015C195.132 128.181 197.43 125.883 200.264 125.883H200.834C203.668 125.883 205.966 128.181 205.966 131.015V131.015C205.966 133.849 203.668 136.147 200.834 136.147H200.264C197.43 136.147 195.132 133.849 195.132 131.015V131.015Z" fill="white"/>
<path d="M157.815 170.863C157.815 168.029 160.113 165.731 162.947 165.731H163.517C166.351 165.731 168.649 168.029 168.649 170.863V170.863C168.649 173.698 166.351 175.995 163.517 175.995H162.947C160.113 175.995 157.815 173.698 157.815 170.863V170.863Z" fill="white"/>
<path d="M81.9775 131.015C81.9775 128.181 84.2752 125.883 87.1096 125.883H104.532C107.367 125.883 109.664 128.181 109.664 131.015V131.015C109.664 133.849 107.367 136.147 104.532 136.147H87.1096C84.2752 136.147 81.9775 133.849 81.9775 131.015V131.015Z" fill="white"/>
<defs>
<filter id="filter0_d_1030_10381" x="0" y="0" width="289.856" height="289.03" filterUnits="userSpaceOnUse" color-interpolation-filters="sRGB">
<feFlood flood-opacity="0" result="BackgroundImageFix"/>
<feColorMatrix in="SourceAlpha" type="matrix" values="0 0 0 0 0 0 0 0 0 0 0 0 0 0 0 0 0 0 127 0" result="hardAlpha"/>
<feOffset dx="2" dy="2"/>
<feGaussianBlur stdDeviation="10"/>
<feComposite in2="hardAlpha" operator="out"/>
<feColorMatrix type="matrix" values="0 0 0 0 0 0 0 0 0 0 0 0 0 0 0 0 0 0 0.25 0"/>
<feBlend mode="normal" in2="BackgroundImageFix" result="effect1_dropShadow_1030_10381"/>
<feBlend mode="normal" in="SourceGraphic" in2="effect1_dropShadow_1030_10381" result="shape"/>
</filter>
</defs>
</svg>
