<svg width="1210" height="746" viewBox="0 0 1210 746" fill="none" xmlns="http://www.w3.org/2000/svg">
<path d="M1040.66 546.537L1031.15 507.165L1061.01 477.305L1100.38 486.818L1109.89 526.19L1080.03 556.05L1040.66 546.537Z" fill="#F9BE28" fill-opacity="0.3"/>
<path d="M1091.85 597.725L1082.34 558.353L1112.2 528.493L1151.57 538.006L1161.08 577.378L1131.22 607.238L1091.85 597.725Z" fill="#F9BE28" fill-opacity="0.3"/>
<path d="M1091.85 597.725L1082.34 558.353L1112.2 528.493L1151.57 538.006L1161.08 577.378L1131.22 607.238L1091.85 597.725Z" fill="#F9BE28" fill-opacity="0.3"/>
<path d="M1091.85 597.725L1082.34 558.353L1112.2 528.493L1151.57 538.006L1161.08 577.378L1131.22 607.238L1091.85 597.725Z" fill="#F9BE28" fill-opacity="0.3"/>
<path d="M946.817 640.382L937.305 601.01L967.165 571.15L1006.54 580.662L1016.05 620.035L986.19 649.894L946.817 640.382Z" fill="#F9BE28" fill-opacity="0.3"/>
<path d="M1019.33 619.054L1009.82 579.681L1039.68 549.822L1079.05 559.334L1088.57 598.706L1058.71 628.566L1019.33 619.054Z" fill="#F9BE28" fill-opacity="0.3"/>
<path d="M998.006 691.57L988.493 652.198L1018.35 622.338L1057.73 631.851L1067.24 671.223L1037.38 701.082L998.006 691.57Z" fill="#F9BE28" fill-opacity="0.3"/>
<path d="M998.006 691.57L988.493 652.198L1018.35 622.338L1057.73 631.851L1067.24 671.223L1037.38 701.082L998.006 691.57Z" fill="#F9BE28" fill-opacity="0.3"/>
<path d="M968.147 567.865L958.634 528.493L988.494 498.634L1027.87 508.146L1037.38 547.518L1007.52 577.378L968.147 567.865Z" fill="#F9BE28" fill-opacity="0.3"/>
<path d="M968.147 567.865L958.634 528.493L988.494 498.634L1027.87 508.146L1037.38 547.518L1007.52 577.378L968.147 567.865Z" fill="#F9BE28" fill-opacity="0.3"/>
<path d="M1070.52 670.242L1061.01 630.869L1090.87 601.01L1130.24 610.522L1139.75 649.894L1109.89 679.754L1070.52 670.242Z" fill="#F9BE28" fill-opacity="0.3"/>
<path d="M1070.52 670.242L1061.01 630.869L1090.87 601.01L1130.24 610.522L1139.75 649.894L1109.89 679.754L1070.52 670.242Z" fill="#F9BE28" fill-opacity="0.3"/>
<path d="M1019.33 619.054L1009.82 579.681L1039.68 549.822L1079.05 559.334L1088.57 598.706L1058.71 628.566L1019.33 619.054Z" fill="#F9BE28" fill-opacity="0.3"/>
<path d="M1019.33 619.054L1009.82 579.681L1039.68 549.822L1079.05 559.334L1088.57 598.706L1058.71 628.566L1019.33 619.054Z" fill="#F9BE28" fill-opacity="0.3"/>
<circle cx="1175" cy="519" r="10" fill="#FDEBBF"/>
<circle cx="1195" cy="554" r="15" fill="#FDEBBF"/>
<path d="M171.984 302.402L128.988 372.793L42.9964 372.793L0.00040989 302.402L42.9964 232.012L128.988 232.012L171.984 302.402Z" fill="#F9BE28" fill-opacity="0.3"/>
<path d="M171.984 154.988L128.988 225.378L42.9964 225.378L0.00040989 154.988L42.9964 84.5969L128.988 84.5969L171.984 154.988Z" fill="#F9BE28" fill-opacity="0.3"/>
<path d="M171.984 154.988L128.988 225.378L42.9964 225.378L0.00040989 154.988L42.9964 84.5969L128.988 84.5969L171.984 154.988Z" fill="#F9BE28" fill-opacity="0.3"/>
<path d="M171.984 154.988L128.988 225.378L42.9964 225.378L0.00040989 154.988L42.9964 84.5969L128.988 84.5969L171.984 154.988Z" fill="#F9BE28" fill-opacity="0.3"/>
<path d="M171.984 154.988L128.988 225.378L42.9964 225.378L0.00040989 154.988L42.9964 84.5969L128.988 84.5969L171.984 154.988Z" fill="#F9BE28" fill-opacity="0.3"/>
<path d="M171.984 154.988L128.988 225.378L42.9964 225.378L0.00040989 154.988L42.9964 84.5969L128.988 84.5969L171.984 154.988Z" fill="#F9BE28" fill-opacity="0.3"/>
<path d="M171.984 154.988L128.988 225.378L42.9964 225.378L0.00040989 154.988L42.9964 84.5969L128.988 84.5969L171.984 154.988Z" fill="#F9BE28" fill-opacity="0.3"/>
<path d="M442.244 302.402L399.248 372.793L313.256 372.793L270.26 302.402L313.256 232.012L399.248 232.012L442.244 302.402Z" fill="#F9BE28" fill-opacity="0.3"/>
<path d="M307.114 228.695L264.118 299.086L178.126 299.086L135.13 228.695L178.126 158.304L264.118 158.304L307.114 228.695Z" fill="#F9BE28" fill-opacity="0.3"/>
<path d="M442.244 154.988L399.248 225.378L313.256 225.378L270.26 154.987L313.256 84.5969L399.248 84.5969L442.244 154.988Z" fill="#F9BE28" fill-opacity="0.3"/>
<path d="M442.244 154.988L399.248 225.378L313.256 225.378L270.26 154.987L313.256 84.5969L399.248 84.5969L442.244 154.988Z" fill="#F9BE28" fill-opacity="0.3"/>
<path d="M307.114 376.11L264.118 446.501L178.126 446.501L135.13 376.11L178.126 305.719L264.118 305.719L307.114 376.11Z" fill="#F9BE28" fill-opacity="0.3"/>
<path d="M307.114 376.11L264.118 446.501L178.126 446.501L135.13 376.11L178.126 305.719L264.118 305.719L307.114 376.11Z" fill="#F9BE28" fill-opacity="0.3"/>
<path d="M307.114 81.2802L264.118 151.671L178.126 151.671L135.13 81.2802L178.126 10.8895L264.118 10.8895L307.114 81.2802Z" fill="#F9BE28" fill-opacity="0.3"/>
<path d="M307.114 228.695L264.118 299.086L178.126 299.086L135.13 228.695L178.126 158.304L264.118 158.304L307.114 228.695Z" fill="#F9BE28" fill-opacity="0.3"/>
<path d="M307.114 228.695L264.118 299.086L178.126 299.086L135.13 228.695L178.126 158.304L264.118 158.304L307.114 228.695Z" fill="#F9BE28" fill-opacity="0.3"/>
<circle cx="12" cy="12" r="12" transform="matrix(1 0 0 -1 8 99)" fill="#FDEBBF"/>
<circle cx="9" cy="9" r="9" transform="matrix(1 0 0 -1 13 68)" fill="#FDEBBF"/>
<ellipse cx="11" cy="10" rx="11" ry="10" transform="matrix(1 0 0 -1 40 75)" fill="#FDEBBF"/>
</svg>
