<svg width="291" height="289" viewBox="0 0 291 289" fill="none" xmlns="http://www.w3.org/2000/svg">
<g filter="url(#filter0_d_1030_10398)">
<ellipse cx="143.014" cy="142.489" rx="125.014" ry="124.489" fill="#FFD27A"/>
</g>
<path d="M142.667 208.745C178.934 208.745 208.334 179.253 208.334 142.872C208.334 106.492 178.934 77 142.667 77C106.4 77 77 106.492 77 142.872C77 179.253 106.4 208.745 142.667 208.745Z" stroke="white" stroke-width="10" stroke-linecap="round" stroke-linejoin="round"/>
<path d="M142.669 208.745C156.26 208.745 167.279 179.253 167.279 142.872C167.279 106.492 156.26 77 142.669 77C129.077 77 118.059 106.492 118.059 142.872C118.059 179.253 129.077 208.745 142.669 208.745Z" stroke="white" stroke-width="10" stroke-linecap="round" stroke-linejoin="round"/>
<path d="M81.3062 119.448H204.072" stroke="white" stroke-width="10" stroke-linecap="round" stroke-linejoin="round"/>
<path d="M83.2549 160.43H206.061" stroke="white" stroke-width="10" stroke-linecap="round" stroke-linejoin="round"/>
<defs>
<filter id="filter0_d_1030_10398" x="0" y="0" width="290.027" height="288.978" filterUnits="userSpaceOnUse" color-interpolation-filters="sRGB">
<feFlood flood-opacity="0" result="BackgroundImageFix"/>
<feColorMatrix in="SourceAlpha" type="matrix" values="0 0 0 0 0 0 0 0 0 0 0 0 0 0 0 0 0 0 127 0" result="hardAlpha"/>
<feOffset dx="2" dy="2"/>
<feGaussianBlur stdDeviation="10"/>
<feComposite in2="hardAlpha" operator="out"/>
<feColorMatrix type="matrix" values="0 0 0 0 0 0 0 0 0 0 0 0 0 0 0 0 0 0 0.25 0"/>
<feBlend mode="normal" in2="BackgroundImageFix" result="effect1_dropShadow_1030_10398"/>
<feBlend mode="normal" in="SourceGraphic" in2="effect1_dropShadow_1030_10398" result="shape"/>
</filter>
</defs>
</svg>
