<svg width="53" height="53" viewBox="0 0 53 53" fill="none" xmlns="http://www.w3.org/2000/svg">
<path d="M20.5342 34.8052L15.4007 43.2095L5.13365 43.2095L0.00013902 34.8052L5.13365 26.4009L15.4007 26.4009L20.5342 34.8052Z" fill="#8F8F8F" fill-opacity="0.3"/>
<path d="M20.5342 17.2046L15.4007 25.6089L5.13365 25.6089L0.00013902 17.2046L5.13365 8.80029L15.4007 8.80029L20.5342 17.2046Z" fill="#8F8F8F" fill-opacity="0.3"/>
<path d="M20.5342 17.2046L15.4007 25.6089L5.13365 25.6089L0.00013902 17.2046L5.13365 8.80029L15.4007 8.80029L20.5342 17.2046Z" fill="#8F8F8F" fill-opacity="0.3"/>
<path d="M20.5342 17.2046L15.4007 25.6089L5.13365 25.6089L0.00013902 17.2046L5.13365 8.80029L15.4007 8.80029L20.5342 17.2046Z" fill="#8F8F8F" fill-opacity="0.3"/>
<path d="M20.5342 17.2046L15.4007 25.6089L5.13365 25.6089L0.00013902 17.2046L5.13365 8.80029L15.4007 8.80029L20.5342 17.2046Z" fill="#8F8F8F" fill-opacity="0.3"/>
<path d="M20.5342 17.2046L15.4007 25.6089L5.13365 25.6089L0.00013902 17.2046L5.13365 8.80029L15.4007 8.80029L20.5342 17.2046Z" fill="#8F8F8F" fill-opacity="0.3"/>
<path d="M20.5342 17.2046L15.4007 25.6089L5.13365 25.6089L0.00013902 17.2046L5.13365 8.80029L15.4007 8.80029L20.5342 17.2046Z" fill="#8F8F8F" fill-opacity="0.3"/>
<path d="M52.8018 34.8052L47.6682 43.2095L37.4012 43.2095L32.2677 34.8052L37.4012 26.4009L47.6682 26.4009L52.8018 34.8052Z" fill="#8F8F8F" fill-opacity="0.3"/>
<path d="M36.668 26.0049L31.5345 34.4092L21.2674 34.4092L16.1339 26.0049L21.2674 17.6006L31.5345 17.6006L36.668 26.0049Z" fill="#8F8F8F" fill-opacity="0.3"/>
<path d="M52.8018 17.2046L47.6682 25.6089L37.4012 25.6089L32.2677 17.2046L37.4012 8.80029L47.6682 8.80029L52.8018 17.2046Z" fill="#8F8F8F" fill-opacity="0.3"/>
<path d="M52.8018 17.2046L47.6682 25.6089L37.4012 25.6089L32.2677 17.2046L37.4012 8.80029L47.6682 8.80029L52.8018 17.2046Z" fill="#8F8F8F" fill-opacity="0.3"/>
<path d="M36.668 43.6055L31.5345 52.0098L21.2674 52.0098L16.1339 43.6055L21.2674 35.2012L31.5345 35.2012L36.668 43.6055Z" fill="#8F8F8F" fill-opacity="0.3"/>
<path d="M36.668 43.6055L31.5345 52.0098L21.2674 52.0098L16.1339 43.6055L21.2674 35.2012L31.5345 35.2012L36.668 43.6055Z" fill="#8F8F8F" fill-opacity="0.3"/>
<path d="M36.668 8.4043L31.5345 16.8086L21.2674 16.8086L16.1339 8.4043L21.2674 -3.97481e-07L31.5345 -1.32494e-07L36.668 8.4043Z" fill="#8F8F8F" fill-opacity="0.3"/>
<path d="M36.668 26.0049L31.5345 34.4092L21.2674 34.4092L16.1339 26.0049L21.2674 17.6006L31.5345 17.6006L36.668 26.0049Z" fill="#8F8F8F" fill-opacity="0.3"/>
<path d="M36.668 26.0049L31.5345 34.4092L21.2674 34.4092L16.1339 26.0049L21.2674 17.6006L31.5345 17.6006L36.668 26.0049Z" fill="#8F8F8F" fill-opacity="0.3"/>
</svg>
