<svg width="54" height="53" viewBox="0 0 54 53" fill="none" xmlns="http://www.w3.org/2000/svg">
<path d="M21.3359 34.8052L16.2024 43.2095L5.93541 43.2095L0.801897 34.8052L5.93541 26.4009L16.2024 26.4009L21.3359 34.8052Z" fill="#F9BE28" fill-opacity="0.3"/>
<path d="M21.3359 17.2046L16.2024 25.6089L5.93541 25.6089L0.801897 17.2046L5.93541 8.80029L16.2024 8.80029L21.3359 17.2046Z" fill="#F9BE28" fill-opacity="0.3"/>
<path d="M21.3359 17.2046L16.2024 25.6089L5.93541 25.6089L0.801897 17.2046L5.93541 8.80029L16.2024 8.80029L21.3359 17.2046Z" fill="#F9BE28" fill-opacity="0.3"/>
<path d="M21.3359 17.2046L16.2024 25.6089L5.93541 25.6089L0.801897 17.2046L5.93541 8.80029L16.2024 8.80029L21.3359 17.2046Z" fill="#F9BE28" fill-opacity="0.3"/>
<path d="M21.3359 17.2046L16.2024 25.6089L5.93541 25.6089L0.801897 17.2046L5.93541 8.80029L16.2024 8.80029L21.3359 17.2046Z" fill="#F9BE28" fill-opacity="0.3"/>
<path d="M21.3359 17.2046L16.2024 25.6089L5.93541 25.6089L0.801897 17.2046L5.93541 8.80029L16.2024 8.80029L21.3359 17.2046Z" fill="#F9BE28" fill-opacity="0.3"/>
<path d="M21.3359 17.2046L16.2024 25.6089L5.93541 25.6089L0.801897 17.2046L5.93541 8.80029L16.2024 8.80029L21.3359 17.2046Z" fill="#F9BE28" fill-opacity="0.3"/>
<path d="M53.6035 34.8052L48.47 43.2095L38.203 43.2095L33.0695 34.8052L38.203 26.4009L48.47 26.4009L53.6035 34.8052Z" fill="#F9BE28" fill-opacity="0.3"/>
<path d="M37.4697 26.0049L32.3362 34.4092L22.0692 34.4092L16.9357 26.0049L22.0692 17.6006L32.3362 17.6006L37.4697 26.0049Z" fill="#F9BE28" fill-opacity="0.3"/>
<path d="M53.6035 17.2046L48.47 25.6089L38.203 25.6089L33.0695 17.2046L38.203 8.80029L48.47 8.80029L53.6035 17.2046Z" fill="#F9BE28" fill-opacity="0.3"/>
<path d="M53.6035 17.2046L48.47 25.6089L38.203 25.6089L33.0695 17.2046L38.203 8.80029L48.47 8.80029L53.6035 17.2046Z" fill="#F9BE28" fill-opacity="0.3"/>
<path d="M37.4697 43.6055L32.3362 52.0098L22.0692 52.0098L16.9357 43.6055L22.0692 35.2012L32.3362 35.2012L37.4697 43.6055Z" fill="#F9BE28" fill-opacity="0.3"/>
<path d="M37.4697 43.6055L32.3362 52.0098L22.0692 52.0098L16.9357 43.6055L22.0692 35.2012L32.3362 35.2012L37.4697 43.6055Z" fill="#F9BE28" fill-opacity="0.3"/>
<path d="M37.4697 8.4043L32.3362 16.8086L22.0692 16.8086L16.9357 8.4043L22.0692 -3.97481e-07L32.3362 -1.32494e-07L37.4697 8.4043Z" fill="#F9BE28" fill-opacity="0.3"/>
<path d="M37.4697 26.0049L32.3362 34.4092L22.0692 34.4092L16.9357 26.0049L22.0692 17.6006L32.3362 17.6006L37.4697 26.0049Z" fill="#F9BE28" fill-opacity="0.3"/>
<path d="M37.4697 26.0049L32.3362 34.4092L22.0692 34.4092L16.9357 26.0049L22.0692 17.6006L32.3362 17.6006L37.4697 26.0049Z" fill="#F9BE28" fill-opacity="0.3"/>
</svg>
