<svg width="283" height="290" viewBox="0 0 283 290" fill="none" xmlns="http://www.w3.org/2000/svg">
<path fill-rule="evenodd" clip-rule="evenodd" d="M270.03 64.3639L280.218 190.697C280.568 195.049 278.494 199.21 274.734 201.694L262.321 209.895C261.046 208.982 259.613 208.244 258.059 207.725L224.396 196.469C219.133 194.709 213.292 195.716 209.097 199.105L182.856 220.307C178.661 223.696 176.758 228.947 177.873 234.058L183.9 261.709L158.485 278.501C154.726 280.985 149.818 281.438 145.515 279.697L20.5871 229.174C15.8854 227.273 12.6735 223.068 12.2901 218.314L2.10216 91.9805C1.75124 87.6289 3.82606 83.4679 7.58555 80.984L123.835 4.17667C127.594 1.69273 132.502 1.24008 136.805 2.98041L261.733 53.5037C266.434 55.4051 269.646 59.6093 270.03 64.3639ZM184.355 263.8L159.699 280.09C155.362 282.956 149.699 283.479 144.733 281.471L19.8057 230.947C14.3807 228.753 10.6747 223.902 10.2323 218.416L0.0443918 92.0831C-0.360522 87.0619 2.0335 82.2608 6.37137 79.3947L122.62 2.5874C126.958 -0.278685 132.621 -0.800973 137.586 1.2071L262.514 51.7304C267.939 53.9243 271.645 58.7753 272.087 64.2613L282.275 190.595C282.68 195.616 280.286 200.417 275.948 203.283L263.932 211.223C266.042 213.217 267.533 215.767 268.15 218.599L275.277 251.295C276.391 256.406 274.489 261.657 270.294 265.046L244.053 286.248C239.858 289.637 234.017 290.644 228.754 288.884L195.091 277.628C189.927 275.902 186.093 271.77 184.999 266.754L184.355 263.8ZM262.226 212.35C264.184 214.109 265.567 216.405 266.126 218.966L273.252 251.662C274.218 256.092 272.569 260.643 268.933 263.58L242.692 284.782C239.057 287.72 233.994 288.592 229.433 287.067L195.77 275.811C191.295 274.315 187.972 270.733 187.024 266.387L186.195 262.584L262.226 212.35ZM260.549 211.066L185.74 260.494L179.898 233.691C178.932 229.261 180.581 224.71 184.216 221.773L210.458 200.571C214.093 197.634 219.155 196.761 223.717 198.286L257.379 209.542C258.517 209.923 259.58 210.438 260.549 211.066Z" fill="#FFC759"/>
</svg>
