<svg width="207" height="217" viewBox="0 0 207 217" fill="none" xmlns="http://www.w3.org/2000/svg">
<path fill-rule="evenodd" clip-rule="evenodd" d="M109.202 34.701L112.191 71.7617C112.542 76.1134 110.467 80.2743 106.707 82.7583L67.6203 108.584C63.8608 111.068 58.9529 111.52 54.6497 109.78L21.1576 96.2349C21.5861 92.7848 23.5355 89.6541 26.5899 87.6361L103.505 36.817C105.219 35.685 107.173 34.9735 109.202 34.701ZM109.046 32.7628C106.64 33.0586 104.319 33.8879 102.291 35.2277L25.3757 86.0468C22.009 88.2712 19.8057 91.6673 19.1845 95.437L13.7355 93.2333C9.03379 91.3318 5.82191 87.1277 5.43848 82.3731L2.10191 40.9985C1.75098 36.6468 3.82581 32.4859 7.58528 30.0019L46.6723 4.17664C50.4317 1.6927 55.3396 1.24006 59.6429 2.98039L100.557 19.5269C105.259 21.4284 108.471 25.6325 108.854 30.3871L109.046 32.7628ZM111.102 32.6404L110.912 30.2846C110.469 24.7985 106.763 19.9476 101.338 17.7536L60.4242 1.20708C55.4589 -0.800996 49.7959 -0.278716 45.4581 2.58737L6.37111 28.4127C2.03325 31.2788 -0.360787 36.0799 0.0441395 41.101L3.38071 82.4756C3.82312 87.9617 7.52915 92.8126 12.9542 95.0066L19.0058 97.454C19.0025 97.6932 19.0056 97.9333 19.0151 98.1741L22.0112 174.387C22.2431 180.287 26.2623 185.548 32.1769 187.694L108.579 215.407C113.419 217.162 118.82 216.565 122.986 213.812L199.902 162.993C204.068 160.241 206.452 155.694 206.262 150.866L203.266 74.6525C203.034 68.7526 199.015 63.4916 193.101 61.3463L116.699 33.6332C114.88 32.9737 112.983 32.6463 111.102 32.6404ZM111.258 34.5755L114.248 71.6592C114.653 76.6804 112.259 81.4815 107.921 84.3475L68.8345 110.173C64.4966 113.039 58.8337 113.561 53.8684 111.553L21.0831 98.2941L24.0734 174.36C24.2744 179.473 27.7578 184.032 32.8837 185.892L109.286 213.605C113.481 215.126 118.162 214.608 121.772 212.223L198.688 161.404C202.298 159.018 204.365 155.078 204.2 150.894L201.204 74.6802C201.003 69.5669 197.52 65.0075 192.394 63.1481L115.992 35.4351C114.454 34.8771 112.85 34.5934 111.258 34.5755Z" fill="#F9BE28"/>
</svg>
