<svg width="25" height="22" viewBox="0 0 25 22" fill="none" xmlns="http://www.w3.org/2000/svg">
<path d="M3.3335 21.9152H21.3335C22.9903 21.9152 24.3335 20.5745 24.3335 18.9207V6.64346C24.3335 4.98967 22.9903 3.64901 21.3335 3.64901H18.3335L16.2335 0.0556641H8.4335L6.3335 3.64901H3.3335C1.67664 3.64901 0.333496 4.98967 0.333496 6.64346V18.9207C0.333496 20.5745 1.67664 21.9152 3.3335 21.9152Z" fill="#838E9E"/>
<path d="M16.8335 12.0335C16.8335 14.5142 14.8188 16.5252 12.3335 16.5252C9.84822 16.5252 7.8335 14.5142 7.8335 12.0335C7.8335 9.5528 9.84822 7.5418 12.3335 7.5418C14.8188 7.5418 16.8335 9.5528 16.8335 12.0335Z" fill="white"/>
</svg>
