<svg width="17" height="10" viewBox="0 0 17 10" fill="none" xmlns="http://www.w3.org/2000/svg">
<path fill-rule="evenodd" clip-rule="evenodd" d="M9.74767 0.0106483C10.018 0.0670686 10.1914 0.331942 10.135 0.602259L8.25996 9.58562C8.20354 9.85594 7.93867 10.0293 7.66835 9.97292C7.39803 9.9165 7.22464 9.65162 7.28106 9.38131L9.15606 0.397943C9.21248 0.127626 9.47735 -0.045772 9.74767 0.0106483ZM13.0435 2.03626C13.2396 1.84184 13.5562 1.84321 13.7506 2.03931L16.5631 4.87616C16.7563 5.07107 16.7563 5.3853 16.5631 5.58021L13.7506 8.41706C13.5562 8.61317 13.2396 8.61453 13.0435 8.42011C12.8474 8.22569 12.846 7.90911 13.0404 7.71301L15.5039 5.22819L13.0404 2.74336C12.846 2.54726 12.8474 2.23068 13.0435 2.03626ZM4.37253 2.03626C4.56864 2.23068 4.57 2.54726 4.37558 2.74336L1.91209 5.22819L4.37558 7.71301C4.57 7.90911 4.56864 8.22569 4.37253 8.42011C4.17643 8.61453 3.85985 8.61317 3.66543 8.41706L0.852934 5.58021C0.659699 5.3853 0.659699 5.07107 0.852934 4.87616L3.66543 2.03931C3.85985 1.84321 4.17643 1.84184 4.37253 2.03626Z" fill="#525050"/>
</svg>
