<svg width="50" height="51" viewBox="0 0 50 51" fill="none" xmlns="http://www.w3.org/2000/svg">
<path d="M19.4443 33.6253L14.5832 41.7048L4.86095 41.7048L-0.000180871 33.6253L4.86095 25.5457L14.5832 25.5457L19.4443 33.6253Z" fill="#F9BE28" fill-opacity="0.3"/>
<path d="M19.4443 16.7048L14.5832 24.7843L4.86095 24.7843L-0.000180871 16.7048L4.86095 8.62527L14.5832 8.62527L19.4443 16.7048Z" fill="#F9BE28" fill-opacity="0.3"/>
<path d="M19.4443 16.7048L14.5832 24.7843L4.86095 24.7843L-0.000180871 16.7048L4.86095 8.62527L14.5832 8.62527L19.4443 16.7048Z" fill="#F9BE28" fill-opacity="0.3"/>
<path d="M19.4443 16.7048L14.5832 24.7843L4.86095 24.7843L-0.000180871 16.7048L4.86095 8.62527L14.5832 8.62527L19.4443 16.7048Z" fill="#F9BE28" fill-opacity="0.3"/>
<path d="M19.4443 16.7048L14.5832 24.7843L4.86095 24.7843L-0.000180871 16.7048L4.86095 8.62527L14.5832 8.62527L19.4443 16.7048Z" fill="#F9BE28" fill-opacity="0.3"/>
<path d="M19.4443 16.7048L14.5832 24.7843L4.86095 24.7843L-0.000180871 16.7048L4.86095 8.62527L14.5832 8.62527L19.4443 16.7048Z" fill="#F9BE28" fill-opacity="0.3"/>
<path d="M19.4443 16.7048L14.5832 24.7843L4.86095 24.7843L-0.000180871 16.7048L4.86095 8.62527L14.5832 8.62527L19.4443 16.7048Z" fill="#F9BE28" fill-opacity="0.3"/>
<path d="M50 33.6253L45.1389 41.7048L35.4166 41.7048L30.5555 33.6253L35.4166 25.5457L45.1389 25.5457L50 33.6253Z" fill="#F9BE28" fill-opacity="0.3"/>
<path d="M34.7227 25.165L29.8615 33.2446L20.1393 33.2446L15.2781 25.165L20.1393 17.0855L29.8615 17.0855L34.7227 25.165Z" fill="#F9BE28" fill-opacity="0.3"/>
<path d="M50 16.7048L45.1389 24.7843L35.4166 24.7843L30.5555 16.7048L35.4166 8.62527L45.1389 8.62527L50 16.7048Z" fill="#F9BE28" fill-opacity="0.3"/>
<path d="M50 16.7048L45.1389 24.7843L35.4166 24.7843L30.5555 16.7048L35.4166 8.62527L45.1389 8.62527L50 16.7048Z" fill="#F9BE28" fill-opacity="0.3"/>
<path d="M34.7227 42.0855L29.8615 50.1651L20.1393 50.1651L15.2781 42.0855L20.1393 34.006L29.8615 34.006L34.7227 42.0855Z" fill="#F9BE28" fill-opacity="0.3"/>
<path d="M34.7227 42.0855L29.8615 50.1651L20.1393 50.1651L15.2781 42.0855L20.1393 34.006L29.8615 34.006L34.7227 42.0855Z" fill="#F9BE28" fill-opacity="0.3"/>
<path d="M34.7227 8.24458L29.8615 16.3241L20.1393 16.3241L15.2781 8.24458L20.1393 0.165039L29.8615 0.165039L34.7227 8.24458Z" fill="#F9BE28" fill-opacity="0.3"/>
<path d="M34.7227 25.165L29.8615 33.2446L20.1393 33.2446L15.2781 25.165L20.1393 17.0855L29.8615 17.0855L34.7227 25.165Z" fill="#F9BE28" fill-opacity="0.3"/>
<path d="M34.7227 25.165L29.8615 33.2446L20.1393 33.2446L15.2781 25.165L20.1393 17.0855L29.8615 17.0855L34.7227 25.165Z" fill="#F9BE28" fill-opacity="0.3"/>
</svg>
