<svg width="18" height="21" viewBox="0 0 18 21" fill="none" xmlns="http://www.w3.org/2000/svg">
<path fill-rule="evenodd" clip-rule="evenodd" d="M7.53569 2.31311C8.0043 1.82412 8.6329 1.55566 9.28125 1.55566C9.9296 1.55566 10.5582 1.82412 11.0268 2.31311C11.4965 2.80318 11.7656 3.47442 11.7656 4.18066C11.7656 4.59488 12.1014 4.93066 12.5156 4.93066C12.9298 4.93066 13.2656 4.59488 13.2656 4.18066C13.2656 3.0967 12.8533 2.05105 12.1098 1.27525C11.3653 0.498366 10.3485 0.0556641 9.28125 0.0556641C8.21398 0.0556641 7.19722 0.498366 6.45271 1.27525C5.70924 2.05105 5.29688 3.0967 5.29688 4.18066V6.80566H2.09375C1.25282 6.80566 0.625 7.50764 0.625 8.30566V18.8057C0.625 19.6037 1.25282 20.3057 2.09375 20.3057H16.4688C17.3097 20.3057 17.9375 19.6037 17.9375 18.8057V8.30566C17.9375 7.50764 17.3097 6.80566 16.4688 6.80566H6.79688V4.18066C6.79688 3.47442 7.06604 2.80318 7.53569 2.31311ZM6.04688 8.30566H2.125V18.8057H16.4375V8.30566H6.04688ZM8.23438 12.4307C8.23438 11.7789 8.73284 11.3057 9.28125 11.3057C9.82966 11.3057 10.3281 11.7789 10.3281 12.4307C10.3281 13.0824 9.82966 13.5557 9.28125 13.5557C8.73284 13.5557 8.23438 13.0824 8.23438 12.4307ZM10.0312 14.9409C11.0864 14.6079 11.8281 13.5906 11.8281 12.4307C11.8281 11.0113 10.7176 9.80566 9.28125 9.80566C7.84489 9.80566 6.73438 11.0113 6.73438 12.4307C6.73438 13.5906 7.47611 14.6079 8.53125 14.9409V16.5557C8.53125 16.9699 8.86704 17.3057 9.28125 17.3057C9.69546 17.3057 10.0312 16.9699 10.0312 16.5557V14.9409Z" fill="#FFC759"/>
</svg>
