<svg width="18" height="21" viewBox="0 0 18 21" fill="none" xmlns="http://www.w3.org/2000/svg">
<path fill-rule="evenodd" clip-rule="evenodd" d="M6.91069 2.31311C7.3793 1.82412 8.0079 1.55566 8.65625 1.55566C9.3046 1.55566 9.9332 1.82412 10.4018 2.31311C10.8715 2.80318 11.1406 3.47442 11.1406 4.18066C11.1406 4.59488 11.4764 4.93066 11.8906 4.93066C12.3048 4.93066 12.6406 4.59488 12.6406 4.18066C12.6406 3.0967 12.2283 2.05105 11.4848 1.27525C10.7403 0.498366 9.72352 0.0556641 8.65625 0.0556641C7.58898 0.0556641 6.57222 0.498366 5.82771 1.27525C5.08424 2.05105 4.67188 3.0967 4.67188 4.18066V6.80566H1.46875C0.627819 6.80566 0 7.50764 0 8.30566V18.8057C0 19.6037 0.627819 20.3057 1.46875 20.3057H15.8438C16.6847 20.3057 17.3125 19.6037 17.3125 18.8057V8.30566C17.3125 7.50764 16.6847 6.80566 15.8438 6.80566H6.17188V4.18066C6.17188 3.47442 6.44104 2.80318 6.91069 2.31311ZM5.42188 8.30566H1.5V18.8057H15.8125V8.30566H5.42188ZM7.60938 12.4307C7.60938 11.7789 8.10784 11.3057 8.65625 11.3057C9.20466 11.3057 9.70312 11.7789 9.70312 12.4307C9.70312 13.0824 9.20466 13.5557 8.65625 13.5557C8.10784 13.5557 7.60938 13.0824 7.60938 12.4307ZM9.40625 14.9409C10.4614 14.6079 11.2031 13.5906 11.2031 12.4307C11.2031 11.0113 10.0926 9.80566 8.65625 9.80566C7.21989 9.80566 6.10938 11.0113 6.10938 12.4307C6.10938 13.5906 6.85111 14.6079 7.90625 14.9409V16.5557C7.90625 16.9699 8.24204 17.3057 8.65625 17.3057C9.07046 17.3057 9.40625 16.9699 9.40625 16.5557V14.9409Z" fill="#838E9E"/>
</svg>
