<svg width="43" height="45" viewBox="0 0 43 45" fill="none" xmlns="http://www.w3.org/2000/svg">
<g filter="url(#filter0_d_967_10888)">
<path fill-rule="evenodd" clip-rule="evenodd" d="M17.1589 18.7166C16.4297 18.7166 15.8532 19.2833 15.8532 20C15.8532 20.7 16.4297 21.2833 17.1589 21.2833H27.3333V29.25C27.3333 33.3333 23.9588 36.6666 19.7873 36.6666H11.5291C7.37452 36.6666 4 33.35 4 29.2666V10.75C4 6.64998 7.39147 3.33331 11.546 3.33331H19.8212C23.9588 3.33331 27.3333 6.64998 27.3333 10.7333V18.7166H17.1589ZM33.3837 14.2336L38.2503 19.0836C38.5003 19.3336 38.6337 19.6503 38.6337 20.0003C38.6337 20.3336 38.5003 20.667 38.2503 20.9003L33.3837 25.7503C33.1337 26.0003 32.8003 26.1336 32.4837 26.1336C32.1503 26.1336 31.817 26.0003 31.567 25.7503C31.067 25.2503 31.067 24.4336 31.567 23.9336L34.2337 21.2836H27.3337V18.717H34.2337L31.567 16.067C31.067 15.567 31.067 14.7503 31.567 14.2503C32.067 13.7336 32.8837 13.7336 33.3837 14.2336Z" fill="#838E9E"/>
</g>
<defs>
<filter id="filter0_d_967_10888" x="-3.3335" y="0" width="48" height="48" filterUnits="userSpaceOnUse" color-interpolation-filters="sRGB">
<feFlood flood-opacity="0" result="BackgroundImageFix"/>
<feColorMatrix in="SourceAlpha" type="matrix" values="0 0 0 0 0 0 0 0 0 0 0 0 0 0 0 0 0 0 127 0" result="hardAlpha"/>
<feOffset dy="4"/>
<feGaussianBlur stdDeviation="2"/>
<feComposite in2="hardAlpha" operator="out"/>
<feColorMatrix type="matrix" values="0 0 0 0 0 0 0 0 0 0 0 0 0 0 0 0 0 0 0.07 0"/>
<feBlend mode="normal" in2="BackgroundImageFix" result="effect1_dropShadow_967_10888"/>
<feBlend mode="normal" in="SourceGraphic" in2="effect1_dropShadow_967_10888" result="shape"/>
</filter>
</defs>
</svg>
