<svg width="17" height="4" viewBox="0 0 17 4" fill="none" xmlns="http://www.w3.org/2000/svg">
<path d="M4.3999 2C4.3999 3.10457 3.50447 4 2.3999 4C1.29533 4 0.399902 3.10457 0.399902 2C0.399902 0.895431 1.29533 0 2.3999 0C3.50447 0 4.3999 0.895431 4.3999 2Z" fill="#525050"/>
<path d="M10.3999 2C10.3999 3.10457 9.50447 4 8.3999 4C7.29533 4 6.3999 3.10457 6.3999 2C6.3999 0.895431 7.29533 0 8.3999 0C9.50447 0 10.3999 0.895431 10.3999 2Z" fill="#525050"/>
<path d="M16.3999 2C16.3999 3.10457 15.5045 4 14.3999 4C13.2953 4 12.3999 3.10457 12.3999 2C12.3999 0.895431 13.2953 0 14.3999 0C15.5045 0 16.3999 0.895431 16.3999 2Z" fill="#525050"/>
</svg>
