<svg width="15" height="18" viewBox="0 0 15 18" fill="none" xmlns="http://www.w3.org/2000/svg">
<path fill-rule="evenodd" clip-rule="evenodd" d="M0.708085 2.62106C0.708094 1.20159 1.80007 0 3.20804 0H12.208C13.616 0 14.708 1.20163 14.708 2.62112L14.7078 15.3476C14.7077 16.767 13.6158 17.9686 12.2078 17.9686L3.20796 17.9685C1.79998 17.9685 0.707999 16.7669 0.708008 15.3474L0.708085 2.62106ZM3.20804 1C2.40693 1 1.70809 1.69767 1.70809 2.62106L1.70801 15.3475C1.708 16.2709 2.40684 16.9685 3.20796 16.9685L12.2078 16.9686C13.0089 16.9686 13.7078 16.2709 13.7078 15.3475L13.708 2.6211C13.708 1.69769 13.0092 1 12.208 1H3.20804ZM4.20825 4.74215C4.20825 4.466 4.43211 4.24215 4.70825 4.24215H10.7081C10.9843 4.24215 11.2081 4.466 11.2081 4.74215C11.2081 5.01829 10.9843 5.24215 10.7081 5.24215H4.70825C4.43211 5.24215 4.20825 5.01829 4.20825 4.74215ZM4.20825 7.92376C4.20825 7.64761 4.43211 7.42376 4.70825 7.42376H10.7081C10.9843 7.42376 11.2081 7.64761 11.2081 7.92376C11.2081 8.1999 10.9843 8.42376 10.7081 8.42376H4.70825C4.43211 8.42376 4.20825 8.1999 4.20825 7.92376ZM4.20825 11.1054C4.20825 10.8292 4.43211 10.6054 4.70825 10.6054H7.70819C7.98433 10.6054 8.20819 10.8292 8.20819 11.1054C8.20819 11.3815 7.98433 11.6054 7.70819 11.6054H4.70825C4.43211 11.6054 4.20825 11.3815 4.20825 11.1054Z" fill="#525050"/>
</svg>
