<svg width="17" height="12" viewBox="0 0 17 12" fill="none" xmlns="http://www.w3.org/2000/svg">
<path fill-rule="evenodd" clip-rule="evenodd" d="M1.30684 9.22493L10.5489 9.22491C10.8082 9.22491 11.0183 9.43509 11.0183 9.69435C11.0183 9.95361 10.8082 10.1638 10.5489 10.1638L1.30684 10.1638C1.04758 10.1638 0.837403 9.95363 0.837402 9.69437C0.837402 9.4351 1.04758 9.22493 1.30684 9.22493Z" fill="#525050"/>
<path fill-rule="evenodd" clip-rule="evenodd" d="M13.5024 9.69435C13.5024 9.43509 13.7126 9.22491 13.9719 9.22491L16.368 9.22493C16.6272 9.22493 16.8374 9.43511 16.8374 9.69437C16.8374 9.95363 16.6272 10.1638 16.368 10.1638L13.9719 10.1638C13.7126 10.1638 13.5024 9.95361 13.5024 9.69435Z" fill="#525050"/>
<path fill-rule="evenodd" clip-rule="evenodd" d="M12.2605 8.45535C11.5737 8.45535 11.0185 9.01084 11.0185 9.69425C11.0185 10.3776 11.5737 10.9331 12.2605 10.9331C12.9473 10.9331 13.5026 10.3776 13.5026 9.69425C13.5026 9.01084 12.9473 8.45535 12.2605 8.45535ZM10.0796 9.69425C10.0796 8.49068 11.0568 7.51648 12.2605 7.51648C13.4642 7.51648 14.4414 8.49068 14.4414 9.69425C14.4414 10.8978 13.4642 11.872 12.2605 11.872C11.0568 11.872 10.0796 10.8978 10.0796 9.69425Z" fill="#525050"/>
<path fill-rule="evenodd" clip-rule="evenodd" d="M0.837402 2.17786C0.837407 1.9186 1.04759 1.70843 1.30685 1.70844L5.07213 1.7085C5.33139 1.70851 5.54156 1.91868 5.54156 2.17795C5.54155 2.43721 5.33138 2.64738 5.07211 2.64738L1.30683 2.64731C1.04757 2.64731 0.837398 2.43713 0.837402 2.17786Z" fill="#525050"/>
<path fill-rule="evenodd" clip-rule="evenodd" d="M8.49531 1.7085L16.3682 1.70844C16.6274 1.70843 16.8376 1.91861 16.8376 2.17787C16.8376 2.43713 16.6274 2.64731 16.3682 2.64731L8.49532 2.64738C8.23606 2.64738 8.02588 2.43721 8.02588 2.17794C8.02588 1.91868 8.23605 1.7085 8.49531 1.7085Z" fill="#525050"/>
<path fill-rule="evenodd" clip-rule="evenodd" d="M6.78347 0.938875C6.09668 0.938875 5.54141 1.49436 5.54141 2.17777C5.54141 2.86117 6.09668 3.41666 6.78347 3.41666C7.47025 3.41666 8.02552 2.86117 8.02552 2.17777C8.02552 1.49436 7.47025 0.938875 6.78347 0.938875ZM4.60254 2.17777C4.60254 0.9742 5.57979 0 6.78347 0C7.98714 0 8.9644 0.9742 8.9644 2.17777C8.9644 3.38133 7.98714 4.35553 6.78347 4.35553C5.57979 4.35553 4.60254 3.38133 4.60254 2.17777Z" fill="#525050"/>
</svg>
