<svg width="18" height="14" viewBox="0 0 18 14" fill="none" xmlns="http://www.w3.org/2000/svg">
<path fill-rule="evenodd" clip-rule="evenodd" d="M10.6022 0.438068C11.2109 -0.145684 12.1896 -0.146062 12.7987 0.437172L14.6348 2.195C15.2562 2.78993 15.2567 3.76425 14.6357 4.35971L5.96837 12.6717C5.74925 12.8818 5.47275 13.023 5.17462 13.0806L1.30283 13.8284C1.13835 13.8601 0.968902 13.8074 0.851465 13.688C0.734029 13.5685 0.684213 13.3982 0.718773 13.2343L1.50032 9.52764C1.56295 9.23061 1.71496 8.96087 1.93388 8.75093L10.6022 0.438068ZM12.1072 1.1595C11.8849 0.946698 11.5164 0.946863 11.2943 1.15982L2.62603 9.47268C2.54909 9.54647 2.49908 9.63778 2.47881 9.73395L1.85263 12.7037L4.98499 12.0988C5.09795 12.0769 5.1989 12.0241 5.27622 11.95L13.9436 3.63797C14.1538 3.43639 14.1537 3.11877 13.9433 2.91733L12.1072 1.1595ZM12.8332 12.9401C12.3634 12.2321 11.2985 12.1437 10.708 12.778L10.0498 13.4851C9.86162 13.6873 9.54524 13.6986 9.34312 13.5104C9.141 13.3223 9.12968 13.0059 9.31783 12.8038L9.97609 12.0967C11.0009 10.9957 12.8342 11.1329 13.6665 12.3872C14.1031 13.0451 15.0709 13.1799 15.6887 12.6483L16.8819 11.6215C17.0912 11.4413 17.4069 11.465 17.587 11.6743C17.7671 11.8836 17.7435 12.1993 17.5342 12.3794L16.341 13.4062C15.277 14.3219 13.6096 14.1101 12.8332 12.9401Z" fill="#525050"/>
</svg>
