<svg width="17" height="16" viewBox="0 0 17 16" fill="none" xmlns="http://www.w3.org/2000/svg">
<path fill-rule="evenodd" clip-rule="evenodd" d="M8.3999 0C8.69446 4.24588e-08 8.93324 0.239194 8.93324 0.534255L8.93324 7.46574H15.8666C16.1611 7.46574 16.3999 7.70494 16.3999 8C16.3999 8.29506 16.1611 8.53425 15.8666 8.53425H8.93324L8.93324 15.4657C8.93324 15.7608 8.69445 16 8.3999 16C8.10535 16 7.86657 15.7608 7.86657 15.4657L7.86657 8.53425H0.933236C0.638684 8.53425 0.399902 8.29506 0.399902 8C0.399902 7.70494 0.638684 7.46574 0.933236 7.46574H7.86657L7.86657 0.534255C7.86657 0.239194 8.10535 -4.24588e-08 8.3999 0Z" fill="#525050"/>
</svg>
