<svg width="41" height="43" viewBox="0 0 41 43" fill="none" xmlns="http://www.w3.org/2000/svg">
<g filter="url(#filter0_d_967_10886)">
<path fill-rule="evenodd" clip-rule="evenodd" d="M16.2938 33.3798L30.9378 14.4424C31.7337 13.4212 32.0167 12.2405 31.7514 11.0383C31.5214 9.94543 30.8494 8.90629 29.8413 8.11797L27.3829 6.16511C25.2429 4.46307 22.59 4.64223 21.069 6.5951L19.4242 8.72892C19.212 8.99587 19.2651 9.39002 19.5304 9.60502C19.5304 9.60502 23.6866 12.9374 23.775 13.0091C24.058 13.2778 24.2702 13.6362 24.3233 14.0662C24.4117 14.9082 23.8281 15.6965 22.9614 15.804C22.5547 15.8578 22.1656 15.7324 21.8826 15.4995L17.5142 12.0237C17.3019 11.8643 16.9836 11.8983 16.8067 12.1133L6.42507 25.5505C5.753 26.3925 5.52308 27.4854 5.753 28.5425L7.07945 34.2936C7.15019 34.5981 7.41548 34.8131 7.73383 34.8131L13.5702 34.7415C14.6314 34.7236 15.6218 34.2398 16.2938 33.3798ZM24.466 31.5888H33.9828C34.9113 31.5888 35.6665 32.3538 35.6665 33.2944C35.6665 34.2368 34.9113 35 33.9828 35H24.466C23.5375 35 22.7823 34.2368 22.7823 33.2944C22.7823 32.3538 23.5375 31.5888 24.466 31.5888Z" fill="#838E9E"/>
</g>
<defs>
<filter id="filter0_d_967_10886" x="-3.3335" y="0" width="48" height="48" filterUnits="userSpaceOnUse" color-interpolation-filters="sRGB">
<feFlood flood-opacity="0" result="BackgroundImageFix"/>
<feColorMatrix in="SourceAlpha" type="matrix" values="0 0 0 0 0 0 0 0 0 0 0 0 0 0 0 0 0 0 127 0" result="hardAlpha"/>
<feOffset dy="4"/>
<feGaussianBlur stdDeviation="2"/>
<feComposite in2="hardAlpha" operator="out"/>
<feColorMatrix type="matrix" values="0 0 0 0 0 0 0 0 0 0 0 0 0 0 0 0 0 0 0.07 0"/>
<feBlend mode="normal" in2="BackgroundImageFix" result="effect1_dropShadow_967_10886"/>
<feBlend mode="normal" in="SourceGraphic" in2="effect1_dropShadow_967_10886" result="shape"/>
</filter>
</defs>
</svg>
