<svg width="17" height="16" viewBox="0 0 17 16" fill="none" xmlns="http://www.w3.org/2000/svg">
<path fill-rule="evenodd" clip-rule="evenodd" d="M8.61205 1.12676C11.0725 1.12676 13.2211 2.46039 14.3711 4.44484C14.3821 4.46367 14.3939 4.48164 14.4066 4.49871H12.6684C12.3572 4.49871 12.105 4.75094 12.105 5.06209C12.105 5.37324 12.3572 5.62547 12.6684 5.62547H16.274C16.5852 5.62547 16.8374 5.37324 16.8374 5.06209V1.46312C16.8374 1.15198 16.5852 0.899742 16.274 0.899742C15.9629 0.899742 15.7106 1.15198 15.7106 1.46312V4.49871H15.3107C15.4409 4.32353 15.4624 4.08068 15.346 3.87986C14.0024 1.56137 11.49 0 8.61205 0C4.31921 0 0.837402 3.47388 0.837402 7.76132C0.837402 12.0488 4.31921 15.5226 8.61205 15.5226C12.0576 15.5226 14.979 13.2853 15.9993 10.1869C16.0966 9.89135 15.936 9.57288 15.6404 9.47556C15.3449 9.37824 15.0264 9.53893 14.9291 9.83446C14.0568 12.4835 11.5579 14.3959 8.61205 14.3959C4.93954 14.3959 1.96416 11.4245 1.96416 7.76132C1.96416 4.09813 4.93954 1.12676 8.61205 1.12676Z" fill="#525050"/>
</svg>
