<svg width="17" height="17" viewBox="0 0 17 17" fill="none" xmlns="http://www.w3.org/2000/svg">
<path d="M15.2031 15.7925L11.7645 12.3538C11.2239 12.8224 10.5931 13.1874 9.87224 13.4487C9.15138 13.71 8.38546 13.8406 7.57448 13.8406C5.62814 13.8406 3.97916 13.1648 2.62753 11.8132C1.27591 10.4616 0.600098 8.83061 0.600098 6.92032C0.600098 5.01002 1.27591 3.37906 2.62753 2.02744C3.97916 0.675812 5.61913 0 7.54745 0C9.45775 0 11.0842 0.675812 12.4268 2.02744C13.7694 3.37906 14.4407 5.01002 14.4407 6.92032C14.4407 7.69525 14.3146 8.44315 14.0623 9.16402C13.81 9.88488 13.4315 10.5607 12.9269 11.1915L16.4196 14.6301C16.5818 14.7742 16.6629 14.959 16.6629 15.1842C16.6629 15.4095 16.5728 15.6122 16.3926 15.7925C16.2304 15.9546 16.0321 16.0357 15.7978 16.0357C15.5636 16.0357 15.3653 15.9546 15.2031 15.7925ZM7.54745 12.2187C9.0072 12.2187 10.2507 11.7006 11.2779 10.6643C12.3052 9.62807 12.8188 8.38007 12.8188 6.92032C12.8188 5.46056 12.3052 4.21256 11.2779 3.17632C10.2507 2.14007 9.0072 1.62195 7.54745 1.62195C6.06967 1.62195 4.81266 2.14007 3.77642 3.17632C2.74017 4.21256 2.22205 5.46056 2.22205 6.92032C2.22205 8.38007 2.74017 9.62807 3.77642 10.6643C4.81266 11.7006 6.06967 12.2187 7.54745 12.2187Z" fill="#CDD2D8"/>
</svg>
