<svg width="40" height="40" viewBox="0 0 40 40" fill="none" xmlns="http://www.w3.org/2000/svg">
<g filter="url(#filter0_d_1071_10321)">
<path d="M35.0966 0.931172C34.2963 0.109757 33.1118 -0.196261 32.0073 0.125863L6.25279 7.61524C5.08752 7.93897 4.26158 8.8683 4.03909 10.0489C3.8118 11.2504 4.60572 12.7757 5.64294 13.4135L13.6958 18.3629C14.5218 18.8702 15.5878 18.743 16.2713 18.0537L25.4927 8.77488C25.9569 8.2917 26.7252 8.2917 27.1894 8.77488C27.6536 9.24196 27.6536 9.99895 27.1894 10.4821L17.952 19.7625C17.2669 20.4503 17.1389 21.5213 17.6431 22.3524L22.5635 30.486C23.1397 31.4524 24.1321 32 25.2206 32C25.3486 32 25.4927 32 25.6207 31.9839C26.8692 31.8228 27.8616 30.9692 28.2298 29.7612L35.8649 4.03967C36.2011 2.94445 35.8969 1.75259 35.0966 0.931172Z" fill="#838E9E"/>
</g>
<defs>
<filter id="filter0_d_1071_10321" x="0" y="0" width="40" height="40" filterUnits="userSpaceOnUse" color-interpolation-filters="sRGB">
<feFlood flood-opacity="0" result="BackgroundImageFix"/>
<feColorMatrix in="SourceAlpha" type="matrix" values="0 0 0 0 0 0 0 0 0 0 0 0 0 0 0 0 0 0 127 0" result="hardAlpha"/>
<feOffset dy="4"/>
<feGaussianBlur stdDeviation="2"/>
<feComposite in2="hardAlpha" operator="out"/>
<feColorMatrix type="matrix" values="0 0 0 0 0 0 0 0 0 0 0 0 0 0 0 0 0 0 0.07 0"/>
<feBlend mode="normal" in2="BackgroundImageFix" result="effect1_dropShadow_1071_10321"/>
<feBlend mode="normal" in="SourceGraphic" in2="effect1_dropShadow_1071_10321" result="shape"/>
</filter>
</defs>
</svg>
