<svg width="45" height="42" viewBox="0 0 45 42" fill="none" xmlns="http://www.w3.org/2000/svg">
<g filter="url(#filter0_d_967_10887)">
<path fill-rule="evenodd" clip-rule="evenodd" d="M29.5969 13.7214C29.5969 17.6376 26.4749 20.7777 22.5814 20.7777C18.6879 20.7777 15.5659 17.6376 15.5659 13.7214C15.5659 9.8038 18.6879 6.66669 22.5814 6.66669C26.4749 6.66669 29.5969 9.8038 29.5969 13.7214ZM22.5814 33.3334C16.8628 33.3334 11.9798 32.4267 11.9798 28.8003C11.9798 25.1724 16.8314 24.2327 22.5814 24.2327C28.3 24.2327 33.183 25.1393 33.183 28.7673C33.183 32.3937 28.3314 33.3334 22.5814 33.3334ZM32.5948 13.8487C32.5948 15.8451 31.9994 17.7048 30.9548 19.2509C30.8473 19.41 30.9428 19.6246 31.1323 19.6576C31.3935 19.7027 31.6636 19.7282 31.9382 19.7357C34.6766 19.8077 37.1345 18.035 37.8135 15.3662C38.8194 11.4021 35.866 7.84318 32.1053 7.84318C31.6964 7.84318 31.3054 7.88671 30.9249 7.96476C30.8727 7.97677 30.8175 8.00079 30.7876 8.04732C30.7518 8.10436 30.7787 8.18091 30.8145 8.23044C31.9442 9.82301 32.5948 11.7653 32.5948 13.8487ZM37.13 22.521C38.9701 22.8827 40.1804 23.6212 40.6818 24.6944C41.1056 25.5755 41.1056 26.5977 40.6818 27.4773C39.9147 29.1419 37.4419 29.6763 36.4809 29.8144C36.2824 29.8444 36.1227 29.6718 36.1436 29.4722C36.6346 24.8595 32.7291 22.6726 31.7188 22.1697C31.6755 22.1472 31.6666 22.1127 31.6711 22.0917C31.6741 22.0767 31.692 22.0527 31.7248 22.0482C33.9111 22.0076 36.2615 22.3078 37.13 22.521ZM13.3949 19.7355C13.6694 19.728 13.9381 19.704 14.2007 19.6575C14.3902 19.6245 14.4858 19.4098 14.3783 19.2507C13.3337 17.7047 12.7382 15.8449 12.7382 13.8486C12.7382 11.7652 13.3889 9.82286 14.5186 8.23029C14.5544 8.18076 14.5798 8.10421 14.5454 8.04717C14.5156 8.00214 14.4589 7.97662 14.4082 7.96461C14.0261 7.88656 13.6351 7.84303 13.2262 7.84303C9.46553 7.84303 6.51219 11.4019 7.51952 15.3661C8.19854 18.0349 10.6564 19.8076 13.3949 19.7355ZM13.6612 22.0908C13.6657 22.1133 13.6568 22.1463 13.615 22.1703C12.6032 22.6732 8.69772 24.8601 9.1887 29.4713C9.20959 29.6724 9.05141 29.8435 8.85293 29.815C7.89186 29.6769 5.41906 29.1425 4.652 27.4779C4.22668 26.5968 4.22668 25.5761 4.652 24.695C5.15342 23.6218 6.36221 22.8833 8.20227 22.5201C9.0723 22.3084 11.4212 22.0082 13.609 22.0488C13.6418 22.0533 13.6583 22.0773 13.6612 22.0908Z" fill="#838E9E"/>
</g>
<defs>
<filter id="filter0_d_967_10887" x="-1.3335" y="0" width="48" height="48" filterUnits="userSpaceOnUse" color-interpolation-filters="sRGB">
<feFlood flood-opacity="0" result="BackgroundImageFix"/>
<feColorMatrix in="SourceAlpha" type="matrix" values="0 0 0 0 0 0 0 0 0 0 0 0 0 0 0 0 0 0 127 0" result="hardAlpha"/>
<feOffset dy="4"/>
<feGaussianBlur stdDeviation="2"/>
<feComposite in2="hardAlpha" operator="out"/>
<feColorMatrix type="matrix" values="0 0 0 0 0 0 0 0 0 0 0 0 0 0 0 0 0 0 0.07 0"/>
<feBlend mode="normal" in2="BackgroundImageFix" result="effect1_dropShadow_967_10887"/>
<feBlend mode="normal" in="SourceGraphic" in2="effect1_dropShadow_967_10887" result="shape"/>
</filter>
</defs>
</svg>
