<svg width="21" height="20" viewBox="0 0 21 20" fill="none" xmlns="http://www.w3.org/2000/svg">
<path fill-rule="evenodd" clip-rule="evenodd" d="M10.6744 1.5516L8.40872 6.13228C8.18099 6.59269 7.74141 6.91077 7.23412 6.98432L2.17245 7.71821L5.83361 11.2791C6.20164 11.6371 6.37011 12.1535 6.28303 12.6601L5.41826 17.691L9.9492 15.3142C10.4033 15.076 10.9455 15.076 11.3996 15.3142L15.9305 17.691L15.0657 12.6601C14.9787 12.1535 15.1471 11.6371 15.5152 11.2791L19.1763 7.71821L14.1147 6.98432C13.6074 6.91077 13.1678 6.59269 12.9401 6.13228L10.6744 1.5516ZM11.1767 0.311549C10.9712 -0.10385 10.3776 -0.10385 10.1721 0.311549L7.51237 5.68893C7.43078 5.85389 7.27307 5.96822 7.09063 5.99467L1.14328 6.85697C0.683852 6.92359 0.500405 7.48694 0.83285 7.81028L5.13639 11.996C5.2684 12.1244 5.32865 12.3094 5.29748 12.4907L4.28155 18.401C4.20307 18.8576 4.68334 19.2057 5.09427 18.9902L10.4137 16.1997C10.5769 16.1141 10.7719 16.1141 10.935 16.1997L16.2545 18.9902C16.6654 19.2057 17.1457 18.8576 17.0672 18.401L16.0513 12.4907C16.0201 12.3094 16.0804 12.1244 16.2124 11.996L20.5159 7.81028C20.8484 7.48694 20.6649 6.92359 20.2055 6.85697L14.2582 5.99467C14.0757 5.96822 13.918 5.85389 13.8364 5.68893L11.1767 0.311549Z" fill="#838E9E"/>
</svg>
