<svg width="21" height="20" viewBox="0 0 21 20" fill="none" xmlns="http://www.w3.org/2000/svg">
<path d="M10.1946 0.311549C10.4 -0.10385 10.9937 -0.10385 11.1991 0.311549L13.8589 5.68893C13.9405 5.85389 14.0982 5.96822 14.2806 5.99467L20.228 6.85697C20.6874 6.92359 20.8708 7.48694 20.5384 7.81028L16.2348 11.996C16.1028 12.1244 16.0426 12.3094 16.0738 12.4907L17.0897 18.401C17.1682 18.8576 16.6879 19.2057 16.277 18.9902L10.9575 16.1997C10.7943 16.1141 10.5994 16.1141 10.4362 16.1997L5.11673 18.9902C4.70581 19.2057 4.22553 18.8576 4.30401 18.401L5.31994 12.4907C5.35111 12.3094 5.29087 12.1244 5.15885 11.996L0.855311 7.81028C0.522866 7.48694 0.706313 6.92359 1.16574 6.85697L7.11309 5.99467C7.29553 5.96822 7.45324 5.85389 7.53483 5.68893L10.1946 0.311549Z" fill="#FFC759"/>
</svg>
