<svg width="22" height="21" viewBox="0 0 22 21" fill="none" xmlns="http://www.w3.org/2000/svg">
<path fill-rule="evenodd" clip-rule="evenodd" d="M11.2875 1.55566C6.39847 1.55566 2.4375 5.51131 2.4375 10.3879C2.4375 15.2645 6.39847 19.2202 11.2875 19.2202C16.1765 19.2202 20.1375 15.2645 20.1375 10.3879C20.1375 5.51131 16.1765 1.55566 11.2875 1.55566ZM0.9375 10.3879C0.9375 4.68026 5.57266 0.0556641 11.2875 0.0556641C17.0023 0.0556641 21.6375 4.68026 21.6375 10.3879C21.6375 16.0956 17.0023 20.7202 11.2875 20.7202C5.57266 20.7202 0.9375 16.0956 0.9375 10.3879ZM11.2875 4.84679C11.7017 4.84679 12.0375 5.18258 12.0375 5.59679V10.3879C12.0375 10.8021 11.7017 11.1379 11.2875 11.1379C10.8733 11.1379 10.5375 10.8021 10.5375 10.3879V5.59679C10.5375 5.18258 10.8733 4.84679 11.2875 4.84679ZM11.2875 13.1892C11.7017 13.1892 12.0375 13.5249 12.0375 13.9392V13.9813C12.0375 14.3955 11.7017 14.7313 11.2875 14.7313C10.8733 14.7313 10.5375 14.3955 10.5375 13.9813V13.9392C10.5375 13.5249 10.8733 13.1892 11.2875 13.1892Z" fill="#EC131E"/>
</svg>
