<svg width="41" height="45" viewBox="0 0 41 45" fill="none" xmlns="http://www.w3.org/2000/svg">
<g filter="url(#filter0_d_967_10885)">
<path fill-rule="evenodd" clip-rule="evenodd" d="M15.5429 27.3166H24.5198C25.1964 27.3166 25.7574 26.75 25.7574 26.0666C25.7574 25.3833 25.1964 24.8333 24.5198 24.8333H15.5429C14.8663 24.8333 14.3053 25.3833 14.3053 26.0666C14.3053 26.75 14.8663 27.3166 15.5429 27.3166ZM21.1205 16.5H15.5429C14.8663 16.5 14.3053 17.0666 14.3053 17.75C14.3053 18.4333 14.8663 18.9833 15.5429 18.9833H21.1205C21.797 18.9833 22.3581 18.4333 22.3581 17.75C22.3581 17.0666 21.797 16.5 21.1205 16.5ZM32.8968 15.0427C33.2847 15.0382 33.707 15.0333 34.0908 15.0333C34.5033 15.0333 34.8333 15.3666 34.8333 15.7833V29.1833C34.8333 33.3166 31.5165 36.6666 27.4241 36.6666H14.2888C9.99835 36.6666 6.5 33.15 6.5 28.8166V10.85C6.5 6.71665 9.83333 3.33331 13.9422 3.33331H22.7541C23.1832 3.33331 23.5132 3.68331 23.5132 4.09998V9.46665C23.5132 12.5166 26.005 15.0166 29.0248 15.0333C29.7301 15.0333 30.352 15.0386 30.8962 15.0432C31.3195 15.0468 31.6959 15.05 32.0281 15.05C32.263 15.05 32.5674 15.0465 32.8968 15.0427ZM33.3518 12.61C31.9954 12.615 30.3964 12.61 29.2462 12.5983C27.4211 12.5983 25.9178 11.08 25.9178 9.23665V4.84331C25.9178 4.12498 26.7809 3.76831 27.2743 4.28665C28.1673 5.22454 29.3946 6.51376 30.6163 7.79708C31.8348 9.07706 33.0477 10.3512 33.9178 11.265C34.3997 11.77 34.0465 12.6083 33.3518 12.61Z" fill="#838E9E"/>
</g>
<defs>
<filter id="filter0_d_967_10885" x="-3.3335" y="0" width="48" height="48" filterUnits="userSpaceOnUse" color-interpolation-filters="sRGB">
<feFlood flood-opacity="0" result="BackgroundImageFix"/>
<feColorMatrix in="SourceAlpha" type="matrix" values="0 0 0 0 0 0 0 0 0 0 0 0 0 0 0 0 0 0 127 0" result="hardAlpha"/>
<feOffset dy="4"/>
<feGaussianBlur stdDeviation="2"/>
<feComposite in2="hardAlpha" operator="out"/>
<feColorMatrix type="matrix" values="0 0 0 0 0 0 0 0 0 0 0 0 0 0 0 0 0 0 0.07 0"/>
<feBlend mode="normal" in2="BackgroundImageFix" result="effect1_dropShadow_967_10885"/>
<feBlend mode="normal" in="SourceGraphic" in2="effect1_dropShadow_967_10885" result="shape"/>
</filter>
</defs>
</svg>
